SplineFontDB: 3.2
FontName: PetMe
FullName: Pet Me
FamilyName: Pet Me
Weight: Medium
Copyright: Created by Rebecca Bettencourt with FontForge 2.0 (http://fontforge.sf.net)
Version: 1.0
ItalicAngle: 0
UnderlinePosition: -150
UnderlineWidth: 100
Ascent: 700
Descent: 100
InvalidEm: 0
sfntRevision: 0x00010000
LayerCount: 2
Layer: 0 1 "Back" 1
Layer: 1 1 "Fore" 0
XUID: [1021 956 -86194217 11010264]
StyleMap: 0x0000
FSType: 0
OS2Version: 3
OS2_WeightWidthSlopeOnly: 0
OS2_UseTypoMetrics: 0
CreationTime: 1297159804
ModificationTime: 1693414008
PfmFamily: 81
TTFWeight: 500
TTFWidth: 5
LineGap: 0
VLineGap: 0
Panose: 0 0 0 0 0 0 0 0 0 0
OS2TypoAscent: 700
OS2TypoAOffset: 0
OS2TypoDescent: -100
OS2TypoDOffset: 0
OS2TypoLinegap: 0
OS2WinAscent: 700
OS2WinAOffset: 0
OS2WinDescent: 100
OS2WinDOffset: 0
HheadAscent: 700
HheadAOffset: 0
HheadDescent: -100
HheadDOffset: 0
OS2SubXSize: 800
OS2SubYSize: 800
OS2SubXOff: 0
OS2SubYOff: 400
OS2SupXSize: 800
OS2SupYSize: 800
OS2SupXOff: 0
OS2SupYOff: 400
OS2StrikeYSize: 100
OS2StrikeYPos: 350
OS2CapHeight: 700
OS2XHeight: 500
OS2Vendor: 'KBnP'
OS2CodePages: 20000001.40000000
OS2UnicodeRanges: 800000af.5000f86a.00000000.00000000
DEI: 91125
ShortTable: maxp 16
  1
  0
  2893
  128
  32
  0
  0
  2
  0
  0
  0
  0
  0
  0
  0
  0
EndShort
LangName: 1033 "" "" "" "BitsNPicas: PetMe: 2011" "" "Version 1.0" "" "" "Made with Bits'n'Picas by Kreative Software" "" "" "http://www.kreativekorp.com/software/bitsnpicas/"
Encoding: UnicodeBmp
UnicodeInterp: none
NameList: AGL For New Fonts
DisplaySize: -48
AntiAlias: 1
FitToEm: 0
WinInfo: 0 37 13
BeginChars: 65539 2897

StartChar: exclam
Encoding: 33 33 4
Width: 800
GlyphClass: 1
Flags: W
LayerCount: 2
Fore
SplineSet
500 100 m 1,0,-1
 500 0 l 1,1,-1
 400 0 l 1,2,-1
 400 100 l 1,3,-1
 500 100 l 1,0,-1
500 300 m 1,4,-1
 400 300 l 1,5,-1
 400 700 l 1,6,-1
 500 700 l 1,7,-1
 500 300 l 1,4,-1
EndSplineSet
Validated: 1
EndChar

StartChar: quotedbl
Encoding: 34 34 5
Width: 800
GlyphClass: 1
Flags: W
LayerCount: 2
Fore
SplineSet
600 700 m 1,0,-1
 600 400 l 1,1,-1
 500 400 l 1,2,-1
 500 700 l 1,3,-1
 600 700 l 1,0,-1
300 700 m 1,4,-1
 300 400 l 1,5,-1
 200 400 l 1,6,-1
 200 700 l 1,7,-1
 300 700 l 1,4,-1
EndSplineSet
Validated: 1
EndChar

StartChar: numbersign
Encoding: 35 35 6
Width: 800
GlyphClass: 1
Flags: W
LayerCount: 2
Fore
SplineSet
600 300 m 1,0,-1
 700 300 l 1,1,-1
 700 200 l 1,2,-1
 600 200 l 1,3,-1
 600 0 l 1,4,-1
 500 0 l 1,5,-1
 500 200 l 1,6,-1
 300 200 l 1,7,-1
 300 0 l 1,8,-1
 200 0 l 1,9,-1
 200 200 l 1,10,-1
 100 200 l 1,11,-1
 100 300 l 1,12,-1
 200 300 l 1,13,-1
 200 400 l 1,14,-1
 100 400 l 1,15,-1
 100 500 l 1,16,-1
 200 500 l 1,17,-1
 200 700 l 1,18,-1
 300 700 l 1,19,-1
 300 500 l 1,20,-1
 500 500 l 1,21,-1
 500 700 l 1,22,-1
 600 700 l 1,23,-1
 600 500 l 1,24,-1
 700 500 l 1,25,-1
 700 400 l 1,26,-1
 600 400 l 1,27,-1
 600 300 l 1,0,-1
300 300 m 1,28,-1
 500 300 l 1,29,-1
 500 400 l 1,30,-1
 300 400 l 1,31,-1
 300 300 l 1,28,-1
EndSplineSet
Validated: 1
EndChar

StartChar: dollar
Encoding: 36 36 7
Width: 800
GlyphClass: 1
Flags: W
LayerCount: 2
Fore
SplineSet
500 100 m 1,0,-1
 500 0 l 1,1,-1
 400 0 l 1,2,-1
 400 100 l 1,3,-1
 200 100 l 1,4,-1
 200 200 l 1,5,-1
 400 200 l 1,6,-1
 400 300 l 1,7,-1
 300 300 l 1,8,-1
 300 400 l 1,9,-1
 400 400 l 1,10,-1
 400 500 l 1,11,-1
 300 500 l 1,12,-1
 300 600 l 1,13,-1
 400 600 l 1,14,-1
 400 700 l 1,15,-1
 500 700 l 1,16,-1
 500 600 l 1,17,-1
 700 600 l 1,18,-1
 700 500 l 1,19,-1
 500 500 l 1,20,-1
 500 400 l 1,21,-1
 600 400 l 1,22,-1
 600 300 l 1,23,-1
 500 300 l 1,24,-1
 500 200 l 1,25,-1
 600 200 l 1,26,-1
 600 100 l 1,27,-1
 500 100 l 1,0,-1
600 300 m 1,28,-1
 700 300 l 1,29,-1
 700 200 l 1,30,-1
 600 200 l 1,31,-1
 600 300 l 1,28,-1
300 500 m 1,32,-1
 300 400 l 1,33,-1
 200 400 l 1,34,-1
 200 500 l 1,35,-1
 300 500 l 1,32,-1
EndSplineSet
Validated: 5
EndChar

StartChar: percent
Encoding: 37 37 8
Width: 800
GlyphClass: 1
Flags: W
LayerCount: 2
Fore
SplineSet
600 500 m 1,0,-1
 600 600 l 1,1,-1
 700 600 l 1,2,-1
 700 500 l 1,3,-1
 600 500 l 1,0,-1
700 200 m 1,4,-1
 700 0 l 1,5,-1
 500 0 l 1,6,-1
 500 200 l 1,7,-1
 700 200 l 1,4,-1
300 300 m 1,8,-1
 400 300 l 1,9,-1
 400 200 l 1,10,-1
 300 200 l 1,11,-1
 300 300 l 1,8,-1
200 0 m 1,12,-1
 100 0 l 1,13,-1
 100 100 l 1,14,-1
 200 100 l 1,15,-1
 200 0 l 1,12,-1
300 600 m 1,16,-1
 300 400 l 1,17,-1
 100 400 l 1,18,-1
 100 600 l 1,19,-1
 300 600 l 1,16,-1
500 300 m 1,20,-1
 400 300 l 1,21,-1
 400 400 l 1,22,-1
 500 400 l 1,23,-1
 500 300 l 1,20,-1
500 500 m 1,24,-1
 600 500 l 1,25,-1
 600 400 l 1,26,-1
 500 400 l 1,27,-1
 500 500 l 1,24,-1
200 200 m 1,28,-1
 300 200 l 1,29,-1
 300 100 l 1,30,-1
 200 100 l 1,31,-1
 200 200 l 1,28,-1
EndSplineSet
Validated: 5
EndChar

StartChar: ampersand
Encoding: 38 38 9
Width: 800
GlyphClass: 1
Flags: W
LayerCount: 2
Fore
SplineSet
500 100 m 1,0,-1
 500 0 l 1,1,-1
 200 0 l 1,2,-1
 200 100 l 1,3,-1
 500 100 l 1,0,-1
600 300 m 1,4,-1
 700 300 l 1,5,-1
 700 200 l 1,6,-1
 600 200 l 1,7,-1
 600 300 l 1,4,-1
400 700 m 1,8,-1
 400 600 l 1,9,-1
 200 600 l 1,10,-1
 200 700 l 1,11,-1
 400 700 l 1,8,-1
100 100 m 1,12,-1
 100 300 l 1,13,-1
 200 300 l 1,14,-1
 200 100 l 1,15,-1
 100 100 l 1,12,-1
500 300 m 1,16,-1
 500 200 l 1,17,-1
 400 200 l 1,18,-1
 400 300 l 1,19,-1
 500 300 l 1,16,-1
600 100 m 1,20,-1
 500 100 l 1,21,-1
 500 200 l 1,22,-1
 600 200 l 1,23,-1
 600 100 l 1,20,-1
700 0 m 1,24,-1
 600 0 l 1,25,-1
 600 100 l 1,26,-1
 700 100 l 1,27,-1
 700 0 l 1,24,-1
100 600 m 1,28,-1
 200 600 l 1,29,-1
 200 400 l 1,30,-1
 100 400 l 1,31,-1
 100 600 l 1,28,-1
200 400 m 1,32,-1
 400 400 l 1,33,-1
 400 300 l 1,34,-1
 200 300 l 1,35,-1
 200 400 l 1,32,-1
500 600 m 1,36,-1
 500 400 l 1,37,-1
 400 400 l 1,38,-1
 400 600 l 1,39,-1
 500 600 l 1,36,-1
EndSplineSet
Validated: 5
EndChar

StartChar: quotesingle
Encoding: 39 39 10
Width: 800
GlyphClass: 1
Flags: W
LayerCount: 2
Fore
SplineSet
600 700 m 1,0,-1
 600 600 l 1,1,-1
 500 600 l 1,2,-1
 500 700 l 1,3,-1
 600 700 l 1,0,-1
400 500 m 1,4,-1
 400 400 l 1,5,-1
 300 400 l 1,6,-1
 300 500 l 1,7,-1
 400 500 l 1,4,-1
500 500 m 1,8,-1
 400 500 l 1,9,-1
 400 600 l 1,10,-1
 500 600 l 1,11,-1
 500 500 l 1,8,-1
EndSplineSet
Validated: 5
EndChar

StartChar: parenleft
Encoding: 40 40 11
Width: 800
GlyphClass: 1
Flags: W
LayerCount: 2
Fore
SplineSet
500 100 m 1,0,-1
 600 100 l 1,1,-1
 600 0 l 1,2,-1
 500 0 l 1,3,-1
 500 100 l 1,0,-1
500 700 m 1,4,-1
 600 700 l 1,5,-1
 600 600 l 1,6,-1
 500 600 l 1,7,-1
 500 700 l 1,4,-1
400 100 m 1,8,-1
 400 200 l 1,9,-1
 500 200 l 1,10,-1
 500 100 l 1,11,-1
 400 100 l 1,8,-1
300 500 m 1,12,-1
 400 500 l 1,13,-1
 400 200 l 1,14,-1
 300 200 l 1,15,-1
 300 500 l 1,12,-1
400 500 m 1,16,-1
 400 600 l 1,17,-1
 500 600 l 1,18,-1
 500 500 l 1,19,-1
 400 500 l 1,16,-1
EndSplineSet
Validated: 5
EndChar

StartChar: parenright
Encoding: 41 41 12
Width: 800
GlyphClass: 1
Flags: W
LayerCount: 2
Fore
SplineSet
400 100 m 1,0,-1
 300 100 l 1,1,-1
 300 200 l 1,2,-1
 400 200 l 1,3,-1
 400 100 l 1,0,-1
200 0 m 1,4,-1
 200 100 l 1,5,-1
 300 100 l 1,6,-1
 300 0 l 1,7,-1
 200 0 l 1,4,-1
300 500 m 1,8,-1
 300 600 l 1,9,-1
 400 600 l 1,10,-1
 400 500 l 1,11,-1
 300 500 l 1,8,-1
200 700 m 1,12,-1
 300 700 l 1,13,-1
 300 600 l 1,14,-1
 200 600 l 1,15,-1
 200 700 l 1,12,-1
400 500 m 1,16,-1
 500 500 l 1,17,-1
 500 200 l 1,18,-1
 400 200 l 1,19,-1
 400 500 l 1,16,-1
EndSplineSet
Validated: 5
EndChar

StartChar: asterisk
Encoding: 42 42 13
Width: 800
GlyphClass: 1
Flags: W
LayerCount: 2
Fore
SplineSet
600 300 m 1,0,-1
 600 200 l 1,1,-1
 500 200 l 1,2,-1
 500 0 l 1,3,-1
 400 0 l 1,4,-1
 400 200 l 1,5,-1
 300 200 l 1,6,-1
 300 300 l 1,7,-1
 200 300 l 1,8,-1
 200 400 l 1,9,-1
 300 400 l 1,10,-1
 300 500 l 1,11,-1
 400 500 l 1,12,-1
 400 700 l 1,13,-1
 500 700 l 1,14,-1
 500 500 l 1,15,-1
 600 500 l 1,16,-1
 600 400 l 1,17,-1
 700 400 l 1,18,-1
 700 300 l 1,19,-1
 600 300 l 1,0,-1
600 500 m 1,20,-1
 600 600 l 1,21,-1
 700 600 l 1,22,-1
 700 500 l 1,23,-1
 600 500 l 1,20,-1
700 200 m 1,24,-1
 700 100 l 1,25,-1
 600 100 l 1,26,-1
 600 200 l 1,27,-1
 700 200 l 1,24,-1
300 500 m 1,28,-1
 200 500 l 1,29,-1
 200 600 l 1,30,-1
 300 600 l 1,31,-1
 300 500 l 1,28,-1
300 100 m 1,32,-1
 200 100 l 1,33,-1
 200 200 l 1,34,-1
 300 200 l 1,35,-1
 300 100 l 1,32,-1
EndSplineSet
Validated: 5
EndChar

StartChar: plus
Encoding: 43 43 14
Width: 800
GlyphClass: 1
Flags: W
LayerCount: 2
Fore
SplineSet
500 100 m 1,0,-1
 400 100 l 1,1,-1
 400 300 l 1,2,-1
 200 300 l 1,3,-1
 200 400 l 1,4,-1
 400 400 l 1,5,-1
 400 600 l 1,6,-1
 500 600 l 1,7,-1
 500 400 l 1,8,-1
 700 400 l 1,9,-1
 700 300 l 1,10,-1
 500 300 l 1,11,-1
 500 100 l 1,0,-1
EndSplineSet
Validated: 1
EndChar

StartChar: comma
Encoding: 44 44 15
Width: 800
GlyphClass: 1
Flags: W
LayerCount: 2
Fore
SplineSet
500 0 m 1,0,-1
 400 0 l 1,1,-1
 400 200 l 1,2,-1
 500 200 l 1,3,-1
 500 0 l 1,0,-1
400 -100 m 1,4,-1
 300 -100 l 1,5,-1
 300 0 l 1,6,-1
 400 0 l 1,7,-1
 400 -100 l 1,4,-1
EndSplineSet
Validated: 5
EndChar

StartChar: hyphen
Encoding: 45 45 16
Width: 800
GlyphClass: 1
Flags: W
LayerCount: 2
Fore
SplineSet
700 400 m 1,0,-1
 700 300 l 1,1,-1
 100 300 l 1,2,-1
 100 400 l 1,3,-1
 700 400 l 1,0,-1
EndSplineSet
Validated: 2097153
EndChar

StartChar: period
Encoding: 46 46 17
Width: 800
GlyphClass: 1
Flags: W
LayerCount: 2
Fore
SplineSet
500 0 m 1,0,-1
 300 0 l 1,1,-1
 300 200 l 1,2,-1
 500 200 l 1,3,-1
 500 0 l 1,0,-1
EndSplineSet
Validated: 1
EndChar

StartChar: slash
Encoding: 47 47 18
Width: 800
GlyphClass: 1
Flags: W
LayerCount: 2
Fore
SplineSet
100 0 m 1,0,-1
 100 100 l 1,1,-1
 200 100 l 1,2,-1
 200 0 l 1,3,-1
 100 0 l 1,0,-1
600 500 m 1,4,-1
 600 600 l 1,5,-1
 700 600 l 1,6,-1
 700 500 l 1,7,-1
 600 500 l 1,4,-1
300 300 m 1,8,-1
 400 300 l 1,9,-1
 400 200 l 1,10,-1
 300 200 l 1,11,-1
 300 300 l 1,8,-1
600 400 m 1,12,-1
 500 400 l 1,13,-1
 500 500 l 1,14,-1
 600 500 l 1,15,-1
 600 400 l 1,12,-1
200 100 m 1,16,-1
 200 200 l 1,17,-1
 300 200 l 1,18,-1
 300 100 l 1,19,-1
 200 100 l 1,16,-1
500 300 m 1,20,-1
 400 300 l 1,21,-1
 400 400 l 1,22,-1
 500 400 l 1,23,-1
 500 300 l 1,20,-1
EndSplineSet
Validated: 5
EndChar

StartChar: zero
Encoding: 48 48 19
Width: 800
GlyphClass: 1
Flags: W
LayerCount: 2
Fore
SplineSet
600 500 m 1,0,-1
 600 600 l 1,1,-1
 700 600 l 1,2,-1
 700 100 l 1,3,-1
 600 100 l 1,4,-1
 600 400 l 1,5,-1
 500 400 l 1,6,-1
 500 500 l 1,7,-1
 600 500 l 1,0,-1
300 300 m 1,8,-1
 300 200 l 1,9,-1
 200 200 l 1,10,-1
 200 100 l 1,11,-1
 100 100 l 1,12,-1
 100 600 l 1,13,-1
 200 600 l 1,14,-1
 200 300 l 1,15,-1
 300 300 l 1,8,-1
200 0 m 1,16,-1
 200 100 l 1,17,-1
 600 100 l 1,18,-1
 600 0 l 1,19,-1
 200 0 l 1,16,-1
600 600 m 1,20,-1
 200 600 l 1,21,-1
 200 700 l 1,22,-1
 600 700 l 1,23,-1
 600 600 l 1,20,-1
300 400 m 1,24,-1
 500 400 l 1,25,-1
 500 300 l 1,26,-1
 300 300 l 1,27,-1
 300 400 l 1,24,-1
EndSplineSet
Validated: 5
EndChar

StartChar: one
Encoding: 49 49 20
Width: 800
GlyphClass: 1
Flags: W
LayerCount: 2
Fore
SplineSet
500 100 m 1,0,-1
 700 100 l 1,1,-1
 700 0 l 1,2,-1
 200 0 l 1,3,-1
 200 100 l 1,4,-1
 400 100 l 1,5,-1
 400 500 l 1,6,-1
 300 500 l 1,7,-1
 300 600 l 1,8,-1
 400 600 l 1,9,-1
 400 700 l 1,10,-1
 500 700 l 1,11,-1
 500 100 l 1,0,-1
300 500 m 1,12,-1
 300 400 l 1,13,-1
 200 400 l 1,14,-1
 200 500 l 1,15,-1
 300 500 l 1,12,-1
EndSplineSet
Validated: 5
EndChar

StartChar: two
Encoding: 50 50 21
Width: 800
GlyphClass: 1
Flags: W
LayerCount: 2
Fore
SplineSet
600 300 m 1,0,-1
 400 300 l 1,1,-1
 400 400 l 1,2,-1
 600 400 l 1,3,-1
 600 300 l 1,0,-1
700 400 m 1,4,-1
 600 400 l 1,5,-1
 600 600 l 1,6,-1
 700 600 l 1,7,-1
 700 400 l 1,4,-1
100 0 m 1,8,-1
 100 200 l 1,9,-1
 200 200 l 1,10,-1
 200 100 l 1,11,-1
 700 100 l 1,12,-1
 700 0 l 1,13,-1
 100 0 l 1,8,-1
600 600 m 1,14,-1
 200 600 l 1,15,-1
 200 700 l 1,16,-1
 600 700 l 1,17,-1
 600 600 l 1,14,-1
400 300 m 1,18,-1
 400 200 l 1,19,-1
 200 200 l 1,20,-1
 200 300 l 1,21,-1
 400 300 l 1,18,-1
100 600 m 1,22,-1
 200 600 l 1,23,-1
 200 500 l 1,24,-1
 100 500 l 1,25,-1
 100 600 l 1,22,-1
EndSplineSet
Validated: 5
EndChar

StartChar: three
Encoding: 51 51 22
Width: 800
GlyphClass: 1
Flags: W
LayerCount: 2
Fore
SplineSet
700 400 m 1,0,-1
 600 400 l 1,1,-1
 600 600 l 1,2,-1
 700 600 l 1,3,-1
 700 400 l 1,0,-1
600 300 m 1,4,-1
 300 300 l 1,5,-1
 300 400 l 1,6,-1
 600 400 l 1,7,-1
 600 300 l 1,4,-1
200 0 m 1,8,-1
 200 100 l 1,9,-1
 600 100 l 1,10,-1
 600 0 l 1,11,-1
 200 0 l 1,8,-1
600 600 m 1,12,-1
 200 600 l 1,13,-1
 200 700 l 1,14,-1
 600 700 l 1,15,-1
 600 600 l 1,12,-1
100 100 m 1,16,-1
 100 200 l 1,17,-1
 200 200 l 1,18,-1
 200 100 l 1,19,-1
 100 100 l 1,16,-1
700 300 m 1,20,-1
 700 100 l 1,21,-1
 600 100 l 1,22,-1
 600 300 l 1,23,-1
 700 300 l 1,20,-1
100 600 m 1,24,-1
 200 600 l 1,25,-1
 200 500 l 1,26,-1
 100 500 l 1,27,-1
 100 600 l 1,24,-1
EndSplineSet
Validated: 5
EndChar

StartChar: four
Encoding: 52 52 23
Width: 800
GlyphClass: 1
Flags: W
LayerCount: 2
Fore
SplineSet
600 300 m 1,0,-1
 700 300 l 1,1,-1
 700 200 l 1,2,-1
 600 200 l 1,3,-1
 600 0 l 1,4,-1
 500 0 l 1,5,-1
 500 200 l 1,6,-1
 100 200 l 1,7,-1
 100 300 l 1,8,-1
 200 300 l 1,9,-1
 200 400 l 1,10,-1
 300 400 l 1,11,-1
 300 300 l 1,12,-1
 500 300 l 1,13,-1
 500 500 l 1,14,-1
 400 500 l 1,15,-1
 400 600 l 1,16,-1
 500 600 l 1,17,-1
 500 700 l 1,18,-1
 600 700 l 1,19,-1
 600 300 l 1,0,-1
300 500 m 1,20,-1
 400 500 l 1,21,-1
 400 400 l 1,22,-1
 300 400 l 1,23,-1
 300 500 l 1,20,-1
EndSplineSet
Validated: 5
EndChar

StartChar: five
Encoding: 53 53 24
Width: 800
GlyphClass: 1
Flags: W
LayerCount: 2
Fore
SplineSet
500 100 m 1,0,-1
 500 0 l 1,1,-1
 200 0 l 1,2,-1
 200 100 l 1,3,-1
 500 100 l 1,0,-1
600 300 m 1,4,-1
 500 300 l 1,5,-1
 500 400 l 1,6,-1
 600 400 l 1,7,-1
 600 300 l 1,4,-1
700 200 m 1,8,-1
 600 200 l 1,9,-1
 600 300 l 1,10,-1
 700 300 l 1,11,-1
 700 200 l 1,8,-1
700 600 m 1,12,-1
 200 600 l 1,13,-1
 200 500 l 1,14,-1
 500 500 l 1,15,-1
 500 400 l 1,16,-1
 100 400 l 1,17,-1
 100 700 l 1,18,-1
 700 700 l 1,19,-1
 700 600 l 1,12,-1
600 200 m 1,20,-1
 600 100 l 1,21,-1
 500 100 l 1,22,-1
 500 200 l 1,23,-1
 600 200 l 1,20,-1
100 100 m 1,24,-1
 100 200 l 1,25,-1
 200 200 l 1,26,-1
 200 100 l 1,27,-1
 100 100 l 1,24,-1
EndSplineSet
Validated: 5
EndChar

StartChar: six
Encoding: 54 54 25
Width: 800
GlyphClass: 1
Flags: W
LayerCount: 2
Fore
SplineSet
600 300 m 1,0,-1
 700 300 l 1,1,-1
 700 100 l 1,2,-1
 600 100 l 1,3,-1
 600 300 l 1,0,-1
200 0 m 1,4,-1
 200 100 l 1,5,-1
 600 100 l 1,6,-1
 600 0 l 1,7,-1
 200 0 l 1,4,-1
300 500 m 1,8,-1
 200 500 l 1,9,-1
 200 600 l 1,10,-1
 300 600 l 1,11,-1
 300 500 l 1,8,-1
600 600 m 1,12,-1
 300 600 l 1,13,-1
 300 700 l 1,14,-1
 600 700 l 1,15,-1
 600 600 l 1,12,-1
100 100 m 1,16,-1
 100 500 l 1,17,-1
 200 500 l 1,18,-1
 200 400 l 1,19,-1
 600 400 l 1,20,-1
 600 300 l 1,21,-1
 200 300 l 1,22,-1
 200 100 l 1,23,-1
 100 100 l 1,16,-1
EndSplineSet
Validated: 5
EndChar

StartChar: seven
Encoding: 55 55 26
Width: 800
GlyphClass: 1
Flags: W
LayerCount: 2
Fore
SplineSet
600 500 m 1,0,-1
 600 600 l 1,1,-1
 200 600 l 1,2,-1
 200 500 l 1,3,-1
 100 500 l 1,4,-1
 100 700 l 1,5,-1
 700 700 l 1,6,-1
 700 500 l 1,7,-1
 600 500 l 1,0,-1
300 300 m 1,8,-1
 400 300 l 1,9,-1
 400 0 l 1,10,-1
 300 0 l 1,11,-1
 300 300 l 1,8,-1
600 400 m 1,12,-1
 500 400 l 1,13,-1
 500 500 l 1,14,-1
 600 500 l 1,15,-1
 600 400 l 1,12,-1
500 300 m 1,16,-1
 400 300 l 1,17,-1
 400 400 l 1,18,-1
 500 400 l 1,19,-1
 500 300 l 1,16,-1
EndSplineSet
Validated: 5
EndChar

StartChar: eight
Encoding: 56 56 27
Width: 800
GlyphClass: 1
Flags: W
LayerCount: 2
Fore
SplineSet
600 300 m 1,0,-1
 700 300 l 1,1,-1
 700 100 l 1,2,-1
 600 100 l 1,3,-1
 600 300 l 1,0,-1
700 400 m 1,4,-1
 600 400 l 1,5,-1
 600 600 l 1,6,-1
 700 600 l 1,7,-1
 700 400 l 1,4,-1
200 0 m 1,8,-1
 200 100 l 1,9,-1
 600 100 l 1,10,-1
 600 0 l 1,11,-1
 200 0 l 1,8,-1
600 600 m 1,12,-1
 200 600 l 1,13,-1
 200 700 l 1,14,-1
 600 700 l 1,15,-1
 600 600 l 1,12,-1
100 100 m 1,16,-1
 100 300 l 1,17,-1
 200 300 l 1,18,-1
 200 100 l 1,19,-1
 100 100 l 1,16,-1
600 400 m 1,20,-1
 600 300 l 1,21,-1
 200 300 l 1,22,-1
 200 400 l 1,23,-1
 600 400 l 1,20,-1
100 400 m 1,24,-1
 100 600 l 1,25,-1
 200 600 l 1,26,-1
 200 400 l 1,27,-1
 100 400 l 1,24,-1
EndSplineSet
Validated: 5
EndChar

StartChar: nine
Encoding: 57 57 28
Width: 800
GlyphClass: 1
Flags: W
LayerCount: 2
Fore
SplineSet
500 100 m 1,0,-1
 500 0 l 1,1,-1
 200 0 l 1,2,-1
 200 100 l 1,3,-1
 500 100 l 1,0,-1
600 300 m 1,4,-1
 200 300 l 1,5,-1
 200 400 l 1,6,-1
 600 400 l 1,7,-1
 600 600 l 1,8,-1
 700 600 l 1,9,-1
 700 200 l 1,10,-1
 600 200 l 1,11,-1
 600 300 l 1,4,-1
600 600 m 1,12,-1
 200 600 l 1,13,-1
 200 700 l 1,14,-1
 600 700 l 1,15,-1
 600 600 l 1,12,-1
600 200 m 1,16,-1
 600 100 l 1,17,-1
 500 100 l 1,18,-1
 500 200 l 1,19,-1
 600 200 l 1,16,-1
100 400 m 1,20,-1
 100 600 l 1,21,-1
 200 600 l 1,22,-1
 200 400 l 1,23,-1
 100 400 l 1,20,-1
EndSplineSet
Validated: 5
EndChar

StartChar: colon
Encoding: 58 58 29
Width: 800
GlyphClass: 1
Flags: W
LayerCount: 2
Fore
SplineSet
500 100 m 1,0,-1
 400 100 l 1,1,-1
 400 200 l 1,2,-1
 500 200 l 1,3,-1
 500 100 l 1,0,-1
400 500 m 1,4,-1
 500 500 l 1,5,-1
 500 400 l 1,6,-1
 400 400 l 1,7,-1
 400 500 l 1,4,-1
EndSplineSet
Validated: 1
EndChar

StartChar: semicolon
Encoding: 59 59 30
Width: 800
GlyphClass: 1
Flags: W
LayerCount: 2
Fore
SplineSet
400 500 m 1,0,-1
 500 500 l 1,1,-1
 500 400 l 1,2,-1
 400 400 l 1,3,-1
 400 500 l 1,0,-1
500 0 m 1,4,-1
 400 0 l 1,5,-1
 400 200 l 1,6,-1
 500 200 l 1,7,-1
 500 0 l 1,4,-1
400 0 m 1,8,-1
 400 -100 l 1,9,-1
 300 -100 l 1,10,-1
 300 0 l 1,11,-1
 400 0 l 1,8,-1
EndSplineSet
Validated: 5
EndChar

StartChar: less
Encoding: 60 60 31
Width: 800
GlyphClass: 1
Flags: W
LayerCount: 2
Fore
SplineSet
500 100 m 1,0,-1
 700 100 l 1,1,-1
 700 0 l 1,2,-1
 400 0 l 1,3,-1
 400 100 l 1,4,-1
 300 100 l 1,5,-1
 300 200 l 1,6,-1
 200 200 l 1,7,-1
 200 300 l 1,8,-1
 100 300 l 1,9,-1
 100 400 l 1,10,-1
 200 400 l 1,11,-1
 200 500 l 1,12,-1
 300 500 l 1,13,-1
 300 600 l 1,14,-1
 400 600 l 1,15,-1
 400 700 l 1,16,-1
 700 700 l 1,17,-1
 700 600 l 1,18,-1
 500 600 l 1,19,-1
 500 500 l 1,20,-1
 400 500 l 1,21,-1
 400 400 l 1,22,-1
 300 400 l 1,23,-1
 300 300 l 1,24,-1
 400 300 l 1,25,-1
 400 200 l 1,26,-1
 500 200 l 1,27,-1
 500 100 l 1,0,-1
EndSplineSet
Validated: 1
EndChar

StartChar: equal
Encoding: 61 61 32
Width: 800
GlyphClass: 1
Flags: W
LayerCount: 2
Fore
SplineSet
700 400 m 1,0,-1
 100 400 l 1,1,-1
 100 500 l 1,2,-1
 700 500 l 1,3,-1
 700 400 l 1,0,-1
700 200 m 1,4,-1
 100 200 l 1,5,-1
 100 300 l 1,6,-1
 700 300 l 1,7,-1
 700 200 l 1,4,-1
EndSplineSet
Validated: 1
EndChar

StartChar: greater
Encoding: 62 62 33
Width: 800
GlyphClass: 1
Flags: W
LayerCount: 2
Fore
SplineSet
500 100 m 1,0,-1
 400 100 l 1,1,-1
 400 0 l 1,2,-1
 100 0 l 1,3,-1
 100 100 l 1,4,-1
 300 100 l 1,5,-1
 300 200 l 1,6,-1
 400 200 l 1,7,-1
 400 300 l 1,8,-1
 500 300 l 1,9,-1
 500 400 l 1,10,-1
 400 400 l 1,11,-1
 400 500 l 1,12,-1
 300 500 l 1,13,-1
 300 600 l 1,14,-1
 100 600 l 1,15,-1
 100 700 l 1,16,-1
 400 700 l 1,17,-1
 400 600 l 1,18,-1
 500 600 l 1,19,-1
 500 500 l 1,20,-1
 600 500 l 1,21,-1
 600 400 l 1,22,-1
 700 400 l 1,23,-1
 700 300 l 1,24,-1
 600 300 l 1,25,-1
 600 200 l 1,26,-1
 500 200 l 1,27,-1
 500 100 l 1,0,-1
EndSplineSet
Validated: 1
EndChar

StartChar: question
Encoding: 63 63 34
Width: 800
GlyphClass: 1
Flags: W
LayerCount: 2
Fore
SplineSet
600 300 m 1,0,-1
 400 300 l 1,1,-1
 400 400 l 1,2,-1
 600 400 l 1,3,-1
 600 300 l 1,0,-1
700 400 m 1,4,-1
 600 400 l 1,5,-1
 600 600 l 1,6,-1
 700 600 l 1,7,-1
 700 400 l 1,4,-1
400 100 m 1,8,-1
 400 0 l 1,9,-1
 300 0 l 1,10,-1
 300 100 l 1,11,-1
 400 100 l 1,8,-1
300 300 m 1,12,-1
 400 300 l 1,13,-1
 400 200 l 1,14,-1
 300 200 l 1,15,-1
 300 300 l 1,12,-1
600 600 m 1,16,-1
 200 600 l 1,17,-1
 200 700 l 1,18,-1
 600 700 l 1,19,-1
 600 600 l 1,16,-1
100 600 m 1,20,-1
 200 600 l 1,21,-1
 200 500 l 1,22,-1
 100 500 l 1,23,-1
 100 600 l 1,20,-1
EndSplineSet
Validated: 5
EndChar

StartChar: at
Encoding: 64 64 35
Width: 800
GlyphClass: 1
Flags: W
LayerCount: 2
Fore
SplineSet
600 300 m 1,0,-1
 600 200 l 1,1,-1
 400 200 l 1,2,-1
 400 300 l 1,3,-1
 500 300 l 1,4,-1
 500 400 l 1,5,-1
 600 400 l 1,6,-1
 600 600 l 1,7,-1
 700 600 l 1,8,-1
 700 300 l 1,9,-1
 600 300 l 1,0,-1
300 300 m 1,10,-1
 300 400 l 1,11,-1
 400 400 l 1,12,-1
 400 300 l 1,13,-1
 300 300 l 1,10,-1
300 500 m 1,14,-1
 200 500 l 1,15,-1
 200 600 l 1,16,-1
 300 600 l 1,17,-1
 300 500 l 1,14,-1
600 600 m 1,18,-1
 300 600 l 1,19,-1
 300 700 l 1,20,-1
 600 700 l 1,21,-1
 600 600 l 1,18,-1
700 0 m 1,22,-1
 300 0 l 1,23,-1
 300 100 l 1,24,-1
 700 100 l 1,25,-1
 700 0 l 1,22,-1
500 500 m 1,26,-1
 500 400 l 1,27,-1
 400 400 l 1,28,-1
 400 500 l 1,29,-1
 500 500 l 1,26,-1
300 100 m 1,30,-1
 200 100 l 1,31,-1
 200 200 l 1,32,-1
 300 200 l 1,33,-1
 300 100 l 1,30,-1
200 200 m 1,34,-1
 100 200 l 1,35,-1
 100 500 l 1,36,-1
 200 500 l 1,37,-1
 200 200 l 1,34,-1
EndSplineSet
Validated: 5
EndChar

StartChar: A
Encoding: 65 65 36
Width: 800
GlyphClass: 1
Flags: W
LayerCount: 2
Fore
SplineSet
600 300 m 1,0,-1
 200 300 l 1,1,-1
 200 0 l 1,2,-1
 100 0 l 1,3,-1
 100 500 l 1,4,-1
 200 500 l 1,5,-1
 200 400 l 1,6,-1
 600 400 l 1,7,-1
 600 500 l 1,8,-1
 700 500 l 1,9,-1
 700 0 l 1,10,-1
 600 0 l 1,11,-1
 600 300 l 1,0,-1
500 700 m 1,12,-1
 500 600 l 1,13,-1
 300 600 l 1,14,-1
 300 700 l 1,15,-1
 500 700 l 1,12,-1
600 500 m 1,16,-1
 500 500 l 1,17,-1
 500 600 l 1,18,-1
 600 600 l 1,19,-1
 600 500 l 1,16,-1
300 500 m 1,20,-1
 200 500 l 1,21,-1
 200 600 l 1,22,-1
 300 600 l 1,23,-1
 300 500 l 1,20,-1
EndSplineSet
Validated: 5
EndChar

StartChar: B
Encoding: 66 66 37
Width: 800
GlyphClass: 1
Flags: W
LayerCount: 2
Fore
SplineSet
600 300 m 1,0,-1
 300 300 l 1,1,-1
 300 100 l 1,2,-1
 600 100 l 1,3,-1
 600 0 l 1,4,-1
 100 0 l 1,5,-1
 100 100 l 1,6,-1
 200 100 l 1,7,-1
 200 600 l 1,8,-1
 100 600 l 1,9,-1
 100 700 l 1,10,-1
 600 700 l 1,11,-1
 600 600 l 1,12,-1
 300 600 l 1,13,-1
 300 400 l 1,14,-1
 600 400 l 1,15,-1
 600 300 l 1,0,-1
700 400 m 1,16,-1
 600 400 l 1,17,-1
 600 600 l 1,18,-1
 700 600 l 1,19,-1
 700 400 l 1,16,-1
700 300 m 1,20,-1
 700 100 l 1,21,-1
 600 100 l 1,22,-1
 600 300 l 1,23,-1
 700 300 l 1,20,-1
EndSplineSet
Validated: 5
EndChar

StartChar: C
Encoding: 67 67 38
Width: 800
GlyphClass: 1
Flags: W
LayerCount: 2
Fore
SplineSet
600 500 m 1,0,-1
 600 600 l 1,1,-1
 700 600 l 1,2,-1
 700 500 l 1,3,-1
 600 500 l 1,0,-1
700 200 m 1,4,-1
 700 100 l 1,5,-1
 600 100 l 1,6,-1
 600 200 l 1,7,-1
 700 200 l 1,4,-1
300 500 m 1,8,-1
 200 500 l 1,9,-1
 200 600 l 1,10,-1
 300 600 l 1,11,-1
 300 500 l 1,8,-1
600 600 m 1,12,-1
 300 600 l 1,13,-1
 300 700 l 1,14,-1
 600 700 l 1,15,-1
 600 600 l 1,12,-1
300 200 m 1,16,-1
 300 100 l 1,17,-1
 200 100 l 1,18,-1
 200 200 l 1,19,-1
 300 200 l 1,16,-1
600 100 m 1,20,-1
 600 0 l 1,21,-1
 300 0 l 1,22,-1
 300 100 l 1,23,-1
 600 100 l 1,20,-1
100 200 m 1,24,-1
 100 500 l 1,25,-1
 200 500 l 1,26,-1
 200 200 l 1,27,-1
 100 200 l 1,24,-1
EndSplineSet
Validated: 5
EndChar

StartChar: D
Encoding: 68 68 39
Width: 800
GlyphClass: 1
Flags: W
LayerCount: 2
Fore
SplineSet
500 100 m 1,0,-1
 500 0 l 1,1,-1
 100 0 l 1,2,-1
 100 100 l 1,3,-1
 200 100 l 1,4,-1
 200 600 l 1,5,-1
 100 600 l 1,6,-1
 100 700 l 1,7,-1
 500 700 l 1,8,-1
 500 600 l 1,9,-1
 300 600 l 1,10,-1
 300 100 l 1,11,-1
 500 100 l 1,0,-1
600 500 m 1,12,-1
 500 500 l 1,13,-1
 500 600 l 1,14,-1
 600 600 l 1,15,-1
 600 500 l 1,12,-1
700 200 m 1,16,-1
 600 200 l 1,17,-1
 600 500 l 1,18,-1
 700 500 l 1,19,-1
 700 200 l 1,16,-1
600 200 m 1,20,-1
 600 100 l 1,21,-1
 500 100 l 1,22,-1
 500 200 l 1,23,-1
 600 200 l 1,20,-1
EndSplineSet
Validated: 5
EndChar

StartChar: E
Encoding: 69 69 40
Width: 800
GlyphClass: 1
Flags: W
LayerCount: 2
Fore
SplineSet
500 300 m 1,0,-1
 200 300 l 1,1,-1
 200 100 l 1,2,-1
 700 100 l 1,3,-1
 700 0 l 1,4,-1
 100 0 l 1,5,-1
 100 700 l 1,6,-1
 700 700 l 1,7,-1
 700 600 l 1,8,-1
 200 600 l 1,9,-1
 200 400 l 1,10,-1
 500 400 l 1,11,-1
 500 300 l 1,0,-1
EndSplineSet
Validated: 1
EndChar

StartChar: F
Encoding: 70 70 41
Width: 800
GlyphClass: 1
Flags: W
LayerCount: 2
Fore
SplineSet
500 300 m 1,0,-1
 200 300 l 1,1,-1
 200 0 l 1,2,-1
 100 0 l 1,3,-1
 100 700 l 1,4,-1
 700 700 l 1,5,-1
 700 600 l 1,6,-1
 200 600 l 1,7,-1
 200 400 l 1,8,-1
 500 400 l 1,9,-1
 500 300 l 1,0,-1
EndSplineSet
Validated: 1
EndChar

StartChar: G
Encoding: 71 71 42
Width: 800
GlyphClass: 1
Flags: W
LayerCount: 2
Fore
SplineSet
600 300 m 1,0,-1
 400 300 l 1,1,-1
 400 400 l 1,2,-1
 700 400 l 1,3,-1
 700 100 l 1,4,-1
 600 100 l 1,5,-1
 600 300 l 1,0,-1
600 500 m 1,6,-1
 600 600 l 1,7,-1
 700 600 l 1,8,-1
 700 500 l 1,9,-1
 600 500 l 1,6,-1
300 500 m 1,10,-1
 200 500 l 1,11,-1
 200 600 l 1,12,-1
 300 600 l 1,13,-1
 300 500 l 1,10,-1
600 600 m 1,14,-1
 300 600 l 1,15,-1
 300 700 l 1,16,-1
 600 700 l 1,17,-1
 600 600 l 1,14,-1
200 100 m 1,18,-1
 200 200 l 1,19,-1
 300 200 l 1,20,-1
 300 100 l 1,21,-1
 200 100 l 1,18,-1
600 100 m 1,22,-1
 600 0 l 1,23,-1
 300 0 l 1,24,-1
 300 100 l 1,25,-1
 600 100 l 1,22,-1
100 200 m 1,26,-1
 100 500 l 1,27,-1
 200 500 l 1,28,-1
 200 200 l 1,29,-1
 100 200 l 1,26,-1
EndSplineSet
Validated: 5
EndChar

StartChar: H
Encoding: 72 72 43
Width: 800
GlyphClass: 1
Flags: W
LayerCount: 2
Fore
SplineSet
600 700 m 1,0,-1
 700 700 l 1,1,-1
 700 0 l 1,2,-1
 600 0 l 1,3,-1
 600 300 l 1,4,-1
 200 300 l 1,5,-1
 200 0 l 1,6,-1
 100 0 l 1,7,-1
 100 700 l 1,8,-1
 200 700 l 1,9,-1
 200 400 l 1,10,-1
 600 400 l 1,11,-1
 600 700 l 1,0,-1
EndSplineSet
Validated: 1
EndChar

StartChar: I
Encoding: 73 73 44
Width: 800
GlyphClass: 1
Flags: W
LayerCount: 2
Fore
SplineSet
500 100 m 1,0,-1
 600 100 l 1,1,-1
 600 0 l 1,2,-1
 300 0 l 1,3,-1
 300 100 l 1,4,-1
 400 100 l 1,5,-1
 400 600 l 1,6,-1
 300 600 l 1,7,-1
 300 700 l 1,8,-1
 600 700 l 1,9,-1
 600 600 l 1,10,-1
 500 600 l 1,11,-1
 500 100 l 1,0,-1
EndSplineSet
Validated: 1
EndChar

StartChar: J
Encoding: 74 74 45
Width: 800
GlyphClass: 1
Flags: W
LayerCount: 2
Fore
SplineSet
500 100 m 1,0,-1
 500 0 l 1,1,-1
 200 0 l 1,2,-1
 200 100 l 1,3,-1
 500 100 l 1,0,-1
400 700 m 1,4,-1
 700 700 l 1,5,-1
 700 600 l 1,6,-1
 600 600 l 1,7,-1
 600 100 l 1,8,-1
 500 100 l 1,9,-1
 500 600 l 1,10,-1
 400 600 l 1,11,-1
 400 700 l 1,4,-1
100 100 m 1,12,-1
 100 200 l 1,13,-1
 200 200 l 1,14,-1
 200 100 l 1,15,-1
 100 100 l 1,12,-1
EndSplineSet
Validated: 5
EndChar

StartChar: K
Encoding: 75 75 46
Width: 800
GlyphClass: 1
Flags: W
LayerCount: 2
Fore
SplineSet
500 100 m 1,0,-1
 500 200 l 1,1,-1
 600 200 l 1,2,-1
 600 100 l 1,3,-1
 500 100 l 1,0,-1
600 500 m 1,4,-1
 500 500 l 1,5,-1
 500 600 l 1,6,-1
 600 600 l 1,7,-1
 600 500 l 1,4,-1
200 0 m 1,8,-1
 100 0 l 1,9,-1
 100 700 l 1,10,-1
 200 700 l 1,11,-1
 200 400 l 1,12,-1
 400 400 l 1,13,-1
 400 300 l 1,14,-1
 200 300 l 1,15,-1
 200 0 l 1,8,-1
600 600 m 1,16,-1
 600 700 l 1,17,-1
 700 700 l 1,18,-1
 700 600 l 1,19,-1
 600 600 l 1,16,-1
500 300 m 1,20,-1
 500 200 l 1,21,-1
 400 200 l 1,22,-1
 400 300 l 1,23,-1
 500 300 l 1,20,-1
600 100 m 1,24,-1
 700 100 l 1,25,-1
 700 0 l 1,26,-1
 600 0 l 1,27,-1
 600 100 l 1,24,-1
500 500 m 1,28,-1
 500 400 l 1,29,-1
 400 400 l 1,30,-1
 400 500 l 1,31,-1
 500 500 l 1,28,-1
EndSplineSet
Validated: 5
EndChar

StartChar: L
Encoding: 76 76 47
Width: 800
GlyphClass: 1
Flags: W
LayerCount: 2
Fore
SplineSet
700 0 m 1,0,-1
 100 0 l 1,1,-1
 100 700 l 1,2,-1
 200 700 l 1,3,-1
 200 100 l 1,4,-1
 700 100 l 1,5,-1
 700 0 l 1,0,-1
EndSplineSet
Validated: 1
EndChar

StartChar: M
Encoding: 77 77 48
Width: 800
GlyphClass: 1
Flags: W
LayerCount: 2
Fore
SplineSet
600 500 m 1,0,-1
 500 500 l 1,1,-1
 500 600 l 1,2,-1
 600 600 l 1,3,-1
 600 700 l 1,4,-1
 700 700 l 1,5,-1
 700 0 l 1,6,-1
 600 0 l 1,7,-1
 600 500 l 1,0,-1
100 0 m 1,8,-1
 100 700 l 1,9,-1
 200 700 l 1,10,-1
 200 600 l 1,11,-1
 300 600 l 1,12,-1
 300 500 l 1,13,-1
 200 500 l 1,14,-1
 200 0 l 1,15,-1
 100 0 l 1,8,-1
300 300 m 1,16,-1
 300 500 l 1,17,-1
 500 500 l 1,18,-1
 500 300 l 1,19,-1
 300 300 l 1,16,-1
EndSplineSet
Validated: 5
EndChar

StartChar: N
Encoding: 78 78 49
Width: 800
GlyphClass: 1
Flags: W
LayerCount: 2
Fore
SplineSet
600 300 m 1,0,-1
 600 700 l 1,1,-1
 700 700 l 1,2,-1
 700 0 l 1,3,-1
 600 0 l 1,4,-1
 600 200 l 1,5,-1
 500 200 l 1,6,-1
 500 300 l 1,7,-1
 600 300 l 1,0,-1
100 0 m 1,8,-1
 100 700 l 1,9,-1
 200 700 l 1,10,-1
 200 600 l 1,11,-1
 300 600 l 1,12,-1
 300 500 l 1,13,-1
 200 500 l 1,14,-1
 200 0 l 1,15,-1
 100 0 l 1,8,-1
300 500 m 1,16,-1
 400 500 l 1,17,-1
 400 400 l 1,18,-1
 300 400 l 1,19,-1
 300 500 l 1,16,-1
500 300 m 1,20,-1
 400 300 l 1,21,-1
 400 400 l 1,22,-1
 500 400 l 1,23,-1
 500 300 l 1,20,-1
EndSplineSet
Validated: 5
EndChar

StartChar: O
Encoding: 79 79 50
Width: 800
GlyphClass: 1
Flags: W
LayerCount: 2
Fore
SplineSet
500 100 m 1,0,-1
 500 0 l 1,1,-1
 300 0 l 1,2,-1
 300 100 l 1,3,-1
 500 100 l 1,0,-1
500 700 m 1,4,-1
 500 600 l 1,5,-1
 300 600 l 1,6,-1
 300 700 l 1,7,-1
 500 700 l 1,4,-1
600 500 m 1,8,-1
 500 500 l 1,9,-1
 500 600 l 1,10,-1
 600 600 l 1,11,-1
 600 500 l 1,8,-1
700 200 m 1,12,-1
 600 200 l 1,13,-1
 600 500 l 1,14,-1
 700 500 l 1,15,-1
 700 200 l 1,12,-1
300 500 m 1,16,-1
 200 500 l 1,17,-1
 200 600 l 1,18,-1
 300 600 l 1,19,-1
 300 500 l 1,16,-1
600 200 m 1,20,-1
 600 100 l 1,21,-1
 500 100 l 1,22,-1
 500 200 l 1,23,-1
 600 200 l 1,20,-1
200 100 m 1,24,-1
 200 200 l 1,25,-1
 300 200 l 1,26,-1
 300 100 l 1,27,-1
 200 100 l 1,24,-1
100 200 m 1,28,-1
 100 500 l 1,29,-1
 200 500 l 1,30,-1
 200 200 l 1,31,-1
 100 200 l 1,28,-1
EndSplineSet
Validated: 5
EndChar

StartChar: P
Encoding: 80 80 51
Width: 800
GlyphClass: 1
Flags: W
LayerCount: 2
Fore
SplineSet
600 700 m 1,0,-1
 600 600 l 1,1,-1
 200 600 l 1,2,-1
 200 400 l 1,3,-1
 600 400 l 1,4,-1
 600 300 l 1,5,-1
 200 300 l 1,6,-1
 200 0 l 1,7,-1
 100 0 l 1,8,-1
 100 700 l 1,9,-1
 600 700 l 1,0,-1
700 400 m 1,10,-1
 600 400 l 1,11,-1
 600 600 l 1,12,-1
 700 600 l 1,13,-1
 700 400 l 1,10,-1
EndSplineSet
Validated: 5
EndChar

StartChar: Q
Encoding: 81 81 52
Width: 800
GlyphClass: 1
Flags: W
LayerCount: 2
Fore
SplineSet
500 100 m 1,0,-1
 500 0 l 1,1,-1
 300 0 l 1,2,-1
 300 100 l 1,3,-1
 500 100 l 1,0,-1
600 500 m 1,4,-1
 500 500 l 1,5,-1
 500 600 l 1,6,-1
 600 600 l 1,7,-1
 600 500 l 1,4,-1
700 200 m 1,8,-1
 600 200 l 1,9,-1
 600 500 l 1,10,-1
 700 500 l 1,11,-1
 700 200 l 1,8,-1
300 500 m 1,12,-1
 200 500 l 1,13,-1
 200 600 l 1,14,-1
 300 600 l 1,15,-1
 300 500 l 1,12,-1
300 600 m 1,16,-1
 300 700 l 1,17,-1
 500 700 l 1,18,-1
 500 600 l 1,19,-1
 300 600 l 1,16,-1
500 300 m 1,20,-1
 500 200 l 1,21,-1
 400 200 l 1,22,-1
 400 300 l 1,23,-1
 500 300 l 1,20,-1
600 100 m 1,24,-1
 500 100 l 1,25,-1
 500 200 l 1,26,-1
 600 200 l 1,27,-1
 600 100 l 1,24,-1
700 0 m 1,28,-1
 600 0 l 1,29,-1
 600 100 l 1,30,-1
 700 100 l 1,31,-1
 700 0 l 1,28,-1
300 100 m 1,32,-1
 200 100 l 1,33,-1
 200 200 l 1,34,-1
 300 200 l 1,35,-1
 300 100 l 1,32,-1
200 200 m 1,36,-1
 100 200 l 1,37,-1
 100 500 l 1,38,-1
 200 500 l 1,39,-1
 200 200 l 1,36,-1
EndSplineSet
Validated: 5
EndChar

StartChar: R
Encoding: 82 82 53
Width: 800
GlyphClass: 1
Flags: W
LayerCount: 2
Fore
SplineSet
500 100 m 1,0,-1
 500 200 l 1,1,-1
 600 200 l 1,2,-1
 600 100 l 1,3,-1
 500 100 l 1,0,-1
600 300 m 1,4,-1
 500 300 l 1,5,-1
 500 200 l 1,6,-1
 400 200 l 1,7,-1
 400 300 l 1,8,-1
 200 300 l 1,9,-1
 200 0 l 1,10,-1
 100 0 l 1,11,-1
 100 700 l 1,12,-1
 600 700 l 1,13,-1
 600 600 l 1,14,-1
 200 600 l 1,15,-1
 200 400 l 1,16,-1
 600 400 l 1,17,-1
 600 300 l 1,4,-1
700 400 m 1,18,-1
 600 400 l 1,19,-1
 600 600 l 1,20,-1
 700 600 l 1,21,-1
 700 400 l 1,18,-1
600 100 m 1,22,-1
 700 100 l 1,23,-1
 700 0 l 1,24,-1
 600 0 l 1,25,-1
 600 100 l 1,22,-1
EndSplineSet
Validated: 5
EndChar

StartChar: S
Encoding: 83 83 54
Width: 800
GlyphClass: 1
Flags: W
LayerCount: 2
Fore
SplineSet
600 300 m 1,0,-1
 700 300 l 1,1,-1
 700 100 l 1,2,-1
 600 100 l 1,3,-1
 600 300 l 1,0,-1
600 500 m 1,4,-1
 600 600 l 1,5,-1
 700 600 l 1,6,-1
 700 500 l 1,7,-1
 600 500 l 1,4,-1
200 0 m 1,8,-1
 200 100 l 1,9,-1
 600 100 l 1,10,-1
 600 0 l 1,11,-1
 200 0 l 1,8,-1
600 600 m 1,12,-1
 200 600 l 1,13,-1
 200 700 l 1,14,-1
 600 700 l 1,15,-1
 600 600 l 1,12,-1
600 400 m 1,16,-1
 600 300 l 1,17,-1
 200 300 l 1,18,-1
 200 400 l 1,19,-1
 600 400 l 1,16,-1
100 100 m 1,20,-1
 100 200 l 1,21,-1
 200 200 l 1,22,-1
 200 100 l 1,23,-1
 100 100 l 1,20,-1
100 400 m 1,24,-1
 100 600 l 1,25,-1
 200 600 l 1,26,-1
 200 400 l 1,27,-1
 100 400 l 1,24,-1
EndSplineSet
Validated: 5
EndChar

StartChar: T
Encoding: 84 84 55
Width: 800
GlyphClass: 1
Flags: W
LayerCount: 2
Fore
SplineSet
700 600 m 1,0,-1
 500 600 l 1,1,-1
 500 0 l 1,2,-1
 400 0 l 1,3,-1
 400 600 l 1,4,-1
 200 600 l 1,5,-1
 200 700 l 1,6,-1
 700 700 l 1,7,-1
 700 600 l 1,0,-1
EndSplineSet
Validated: 1
EndChar

StartChar: U
Encoding: 85 85 56
Width: 800
GlyphClass: 1
Flags: W
LayerCount: 2
Fore
SplineSet
600 700 m 1,0,-1
 700 700 l 1,1,-1
 700 100 l 1,2,-1
 600 100 l 1,3,-1
 600 700 l 1,0,-1
600 100 m 1,4,-1
 600 0 l 1,5,-1
 200 0 l 1,6,-1
 200 100 l 1,7,-1
 600 100 l 1,4,-1
100 100 m 1,8,-1
 100 700 l 1,9,-1
 200 700 l 1,10,-1
 200 100 l 1,11,-1
 100 100 l 1,8,-1
EndSplineSet
Validated: 5
EndChar

StartChar: V
Encoding: 86 86 57
Width: 800
GlyphClass: 1
Flags: W
LayerCount: 2
Fore
SplineSet
700 400 m 1,0,-1
 600 400 l 1,1,-1
 600 700 l 1,2,-1
 700 700 l 1,3,-1
 700 400 l 1,0,-1
500 0 m 1,4,-1
 300 0 l 1,5,-1
 300 200 l 1,6,-1
 500 200 l 1,7,-1
 500 0 l 1,4,-1
600 200 m 1,8,-1
 500 200 l 1,9,-1
 500 400 l 1,10,-1
 600 400 l 1,11,-1
 600 200 l 1,8,-1
100 700 m 1,12,-1
 200 700 l 1,13,-1
 200 400 l 1,14,-1
 100 400 l 1,15,-1
 100 700 l 1,12,-1
300 200 m 1,16,-1
 200 200 l 1,17,-1
 200 400 l 1,18,-1
 300 400 l 1,19,-1
 300 200 l 1,16,-1
EndSplineSet
Validated: 5
EndChar

StartChar: W
Encoding: 87 87 58
Width: 800
GlyphClass: 1
Flags: W
LayerCount: 2
Fore
SplineSet
500 100 m 1,0,-1
 500 200 l 1,1,-1
 600 200 l 1,2,-1
 600 700 l 1,3,-1
 700 700 l 1,4,-1
 700 0 l 1,5,-1
 600 0 l 1,6,-1
 600 100 l 1,7,-1
 500 100 l 1,0,-1
100 0 m 1,8,-1
 100 700 l 1,9,-1
 200 700 l 1,10,-1
 200 200 l 1,11,-1
 300 200 l 1,12,-1
 300 100 l 1,13,-1
 200 100 l 1,14,-1
 200 0 l 1,15,-1
 100 0 l 1,8,-1
300 200 m 1,16,-1
 300 400 l 1,17,-1
 500 400 l 1,18,-1
 500 200 l 1,19,-1
 300 200 l 1,16,-1
EndSplineSet
Validated: 5
EndChar

StartChar: X
Encoding: 88 88 59
Width: 800
GlyphClass: 1
Flags: W
LayerCount: 2
Fore
SplineSet
600 300 m 1,0,-1
 600 200 l 1,1,-1
 500 200 l 1,2,-1
 500 300 l 1,3,-1
 600 300 l 1,0,-1
600 500 m 1,4,-1
 600 700 l 1,5,-1
 700 700 l 1,6,-1
 700 500 l 1,7,-1
 600 500 l 1,4,-1
700 200 m 1,8,-1
 700 0 l 1,9,-1
 600 0 l 1,10,-1
 600 200 l 1,11,-1
 700 200 l 1,8,-1
300 300 m 1,12,-1
 300 200 l 1,13,-1
 200 200 l 1,14,-1
 200 300 l 1,15,-1
 300 300 l 1,12,-1
200 0 m 1,16,-1
 100 0 l 1,17,-1
 100 200 l 1,18,-1
 200 200 l 1,19,-1
 200 0 l 1,16,-1
300 500 m 1,20,-1
 300 400 l 1,21,-1
 200 400 l 1,22,-1
 200 500 l 1,23,-1
 300 500 l 1,20,-1
200 700 m 1,24,-1
 200 500 l 1,25,-1
 100 500 l 1,26,-1
 100 700 l 1,27,-1
 200 700 l 1,24,-1
500 300 m 1,28,-1
 300 300 l 1,29,-1
 300 400 l 1,30,-1
 500 400 l 1,31,-1
 500 300 l 1,28,-1
500 500 m 1,32,-1
 600 500 l 1,33,-1
 600 400 l 1,34,-1
 500 400 l 1,35,-1
 500 500 l 1,32,-1
EndSplineSet
Validated: 5
EndChar

StartChar: Y
Encoding: 89 89 60
Width: 800
GlyphClass: 1
Flags: W
LayerCount: 2
Fore
SplineSet
700 400 m 1,0,-1
 600 400 l 1,1,-1
 600 700 l 1,2,-1
 700 700 l 1,3,-1
 700 400 l 1,0,-1
600 300 m 1,4,-1
 500 300 l 1,5,-1
 500 0 l 1,6,-1
 400 0 l 1,7,-1
 400 300 l 1,8,-1
 300 300 l 1,9,-1
 300 400 l 1,10,-1
 600 400 l 1,11,-1
 600 300 l 1,4,-1
200 700 m 1,12,-1
 300 700 l 1,13,-1
 300 400 l 1,14,-1
 200 400 l 1,15,-1
 200 700 l 1,12,-1
EndSplineSet
Validated: 5
EndChar

StartChar: Z
Encoding: 90 90 61
Width: 800
GlyphClass: 1
Flags: W
LayerCount: 2
Fore
SplineSet
600 500 m 1,0,-1
 600 600 l 1,1,-1
 100 600 l 1,2,-1
 100 700 l 1,3,-1
 700 700 l 1,4,-1
 700 500 l 1,5,-1
 600 500 l 1,0,-1
100 0 m 1,6,-1
 100 200 l 1,7,-1
 200 200 l 1,8,-1
 200 100 l 1,9,-1
 700 100 l 1,10,-1
 700 0 l 1,11,-1
 100 0 l 1,6,-1
300 300 m 1,12,-1
 300 200 l 1,13,-1
 200 200 l 1,14,-1
 200 300 l 1,15,-1
 300 300 l 1,12,-1
600 400 m 1,16,-1
 500 400 l 1,17,-1
 500 500 l 1,18,-1
 600 500 l 1,19,-1
 600 400 l 1,16,-1
300 400 m 1,20,-1
 500 400 l 1,21,-1
 500 300 l 1,22,-1
 300 300 l 1,23,-1
 300 400 l 1,20,-1
EndSplineSet
Validated: 5
EndChar

StartChar: bracketleft
Encoding: 91 91 62
Width: 800
GlyphClass: 1
Flags: W
LayerCount: 2
Fore
SplineSet
600 700 m 1,0,-1
 600 600 l 1,1,-1
 300 600 l 1,2,-1
 300 100 l 1,3,-1
 600 100 l 1,4,-1
 600 0 l 1,5,-1
 200 0 l 1,6,-1
 200 700 l 1,7,-1
 600 700 l 1,0,-1
EndSplineSet
Validated: 1
EndChar

StartChar: backslash
Encoding: 92 92 63
Width: 800
GlyphClass: 1
Flags: W
LayerCount: 2
Fore
SplineSet
500 100 m 1,0,-1
 500 200 l 1,1,-1
 600 200 l 1,2,-1
 600 100 l 1,3,-1
 500 100 l 1,0,-1
300 300 m 1,4,-1
 300 400 l 1,5,-1
 400 400 l 1,6,-1
 400 300 l 1,7,-1
 300 300 l 1,4,-1
300 500 m 1,8,-1
 300 400 l 1,9,-1
 200 400 l 1,10,-1
 200 500 l 1,11,-1
 300 500 l 1,8,-1
500 300 m 1,12,-1
 500 200 l 1,13,-1
 400 200 l 1,14,-1
 400 300 l 1,15,-1
 500 300 l 1,12,-1
600 100 m 1,16,-1
 700 100 l 1,17,-1
 700 0 l 1,18,-1
 600 0 l 1,19,-1
 600 100 l 1,16,-1
100 600 m 1,20,-1
 200 600 l 1,21,-1
 200 500 l 1,22,-1
 100 500 l 1,23,-1
 100 600 l 1,20,-1
EndSplineSet
Validated: 5
EndChar

StartChar: bracketright
Encoding: 93 93 64
Width: 800
GlyphClass: 1
Flags: W
LayerCount: 2
Fore
SplineSet
500 100 m 1,0,-1
 500 600 l 1,1,-1
 200 600 l 1,2,-1
 200 700 l 1,3,-1
 600 700 l 1,4,-1
 600 0 l 1,5,-1
 200 0 l 1,6,-1
 200 100 l 1,7,-1
 500 100 l 1,0,-1
EndSplineSet
Validated: 1
EndChar

StartChar: asciicircum
Encoding: 94 94 65
Width: 800
GlyphClass: 1
Flags: W
LayerCount: 2
Fore
SplineSet
700 400 m 1,0,-1
 700 300 l 1,1,-1
 600 300 l 1,2,-1
 600 400 l 1,3,-1
 700 400 l 1,0,-1
600 500 m 1,4,-1
 600 400 l 1,5,-1
 500 400 l 1,6,-1
 500 500 l 1,7,-1
 600 500 l 1,4,-1
300 300 m 1,8,-1
 200 300 l 1,9,-1
 200 400 l 1,10,-1
 300 400 l 1,11,-1
 300 300 l 1,8,-1
300 500 m 1,12,-1
 400 500 l 1,13,-1
 400 400 l 1,14,-1
 300 400 l 1,15,-1
 300 500 l 1,12,-1
400 500 m 1,16,-1
 400 600 l 1,17,-1
 500 600 l 1,18,-1
 500 500 l 1,19,-1
 400 500 l 1,16,-1
EndSplineSet
Validated: 5
EndChar

StartChar: underscore
Encoding: 95 95 66
Width: 800
GlyphClass: 1
Flags: W
LayerCount: 2
Fore
SplineSet
0 0 m 1,0,-1
 800 0 l 1,1,-1
 800 -100 l 1,2,-1
 0 -100 l 1,3,-1
 0 0 l 1,0,-1
EndSplineSet
Validated: 1
EndChar

StartChar: grave
Encoding: 96 96 67
Width: 800
GlyphClass: 1
Flags: W
LayerCount: 2
Fore
SplineSet
400 500 m 1,0,-1
 400 600 l 1,1,-1
 500 600 l 1,2,-1
 500 500 l 1,3,-1
 400 500 l 1,0,-1
600 500 m 1,4,-1
 600 400 l 1,5,-1
 500 400 l 1,6,-1
 500 500 l 1,7,-1
 600 500 l 1,4,-1
400 700 m 1,8,-1
 400 600 l 1,9,-1
 300 600 l 1,10,-1
 300 700 l 1,11,-1
 400 700 l 1,8,-1
EndSplineSet
Validated: 5
EndChar

StartChar: a
Encoding: 97 97 68
Width: 800
GlyphClass: 1
Flags: W
LayerCount: 2
Fore
SplineSet
500 100 m 1,0,-1
 500 0 l 1,1,-1
 200 0 l 1,2,-1
 200 100 l 1,3,-1
 500 100 l 1,0,-1
100 100 m 1,4,-1
 100 200 l 1,5,-1
 200 200 l 1,6,-1
 200 100 l 1,7,-1
 100 100 l 1,4,-1
600 400 m 1,8,-1
 600 100 l 1,9,-1
 500 100 l 1,10,-1
 500 200 l 1,11,-1
 200 200 l 1,12,-1
 200 300 l 1,13,-1
 500 300 l 1,14,-1
 500 400 l 1,15,-1
 600 400 l 1,8,-1
600 100 m 1,16,-1
 700 100 l 1,17,-1
 700 0 l 1,18,-1
 600 0 l 1,19,-1
 600 100 l 1,16,-1
500 500 m 1,20,-1
 500 400 l 1,21,-1
 200 400 l 1,22,-1
 200 500 l 1,23,-1
 500 500 l 1,20,-1
EndSplineSet
Validated: 5
EndChar

StartChar: b
Encoding: 98 98 69
Width: 800
GlyphClass: 1
Flags: W
LayerCount: 2
Fore
SplineSet
700 400 m 1,0,-1
 700 100 l 1,1,-1
 600 100 l 1,2,-1
 600 400 l 1,3,-1
 700 400 l 1,0,-1
600 500 m 1,4,-1
 600 400 l 1,5,-1
 300 400 l 1,6,-1
 300 500 l 1,7,-1
 600 500 l 1,4,-1
100 0 m 1,8,-1
 100 700 l 1,9,-1
 200 700 l 1,10,-1
 200 400 l 1,11,-1
 300 400 l 1,12,-1
 300 300 l 1,13,-1
 200 300 l 1,14,-1
 200 200 l 1,15,-1
 300 200 l 1,16,-1
 300 100 l 1,17,-1
 200 100 l 1,18,-1
 200 0 l 1,19,-1
 100 0 l 1,8,-1
600 100 m 1,20,-1
 600 0 l 1,21,-1
 300 0 l 1,22,-1
 300 100 l 1,23,-1
 600 100 l 1,20,-1
EndSplineSet
Validated: 5
EndChar

StartChar: c
Encoding: 99 99 70
Width: 800
GlyphClass: 1
Flags: W
LayerCount: 2
Fore
SplineSet
600 300 m 1,0,-1
 600 400 l 1,1,-1
 700 400 l 1,2,-1
 700 300 l 1,3,-1
 600 300 l 1,0,-1
600 500 m 1,4,-1
 600 400 l 1,5,-1
 200 400 l 1,6,-1
 200 500 l 1,7,-1
 600 500 l 1,4,-1
700 200 m 1,8,-1
 700 100 l 1,9,-1
 600 100 l 1,10,-1
 600 200 l 1,11,-1
 700 200 l 1,8,-1
200 0 m 1,12,-1
 200 100 l 1,13,-1
 600 100 l 1,14,-1
 600 0 l 1,15,-1
 200 0 l 1,12,-1
100 100 m 1,16,-1
 100 400 l 1,17,-1
 200 400 l 1,18,-1
 200 100 l 1,19,-1
 100 100 l 1,16,-1
EndSplineSet
Validated: 5
EndChar

StartChar: d
Encoding: 100 100 71
Width: 800
GlyphClass: 1
Flags: W
LayerCount: 2
Fore
SplineSet
500 100 m 1,0,-1
 500 0 l 1,1,-1
 200 0 l 1,2,-1
 200 100 l 1,3,-1
 500 100 l 1,0,-1
600 300 m 1,4,-1
 500 300 l 1,5,-1
 500 400 l 1,6,-1
 600 400 l 1,7,-1
 600 700 l 1,8,-1
 700 700 l 1,9,-1
 700 0 l 1,10,-1
 600 0 l 1,11,-1
 600 100 l 1,12,-1
 500 100 l 1,13,-1
 500 200 l 1,14,-1
 600 200 l 1,15,-1
 600 300 l 1,4,-1
100 100 m 1,16,-1
 100 400 l 1,17,-1
 200 400 l 1,18,-1
 200 100 l 1,19,-1
 100 100 l 1,16,-1
500 500 m 1,20,-1
 500 400 l 1,21,-1
 200 400 l 1,22,-1
 200 500 l 1,23,-1
 500 500 l 1,20,-1
EndSplineSet
Validated: 5
EndChar

StartChar: e
Encoding: 101 101 72
Width: 800
GlyphClass: 1
Flags: W
LayerCount: 2
Fore
SplineSet
700 400 m 1,0,-1
 700 200 l 1,1,-1
 200 200 l 1,2,-1
 200 100 l 1,3,-1
 100 100 l 1,4,-1
 100 400 l 1,5,-1
 200 400 l 1,6,-1
 200 300 l 1,7,-1
 600 300 l 1,8,-1
 600 400 l 1,9,-1
 700 400 l 1,0,-1
600 500 m 1,10,-1
 600 400 l 1,11,-1
 200 400 l 1,12,-1
 200 500 l 1,13,-1
 600 500 l 1,10,-1
200 0 m 1,14,-1
 200 100 l 1,15,-1
 600 100 l 1,16,-1
 600 0 l 1,17,-1
 200 0 l 1,14,-1
EndSplineSet
Validated: 5
EndChar

StartChar: f
Encoding: 102 102 73
Width: 800
GlyphClass: 1
Flags: W
LayerCount: 2
Fore
SplineSet
600 300 m 1,0,-1
 400 300 l 1,1,-1
 400 0 l 1,2,-1
 300 0 l 1,3,-1
 300 300 l 1,4,-1
 100 300 l 1,5,-1
 100 400 l 1,6,-1
 300 400 l 1,7,-1
 300 600 l 1,8,-1
 400 600 l 1,9,-1
 400 400 l 1,10,-1
 600 400 l 1,11,-1
 600 300 l 1,0,-1
600 500 m 1,12,-1
 600 600 l 1,13,-1
 700 600 l 1,14,-1
 700 500 l 1,15,-1
 600 500 l 1,12,-1
400 700 m 1,16,-1
 600 700 l 1,17,-1
 600 600 l 1,18,-1
 400 600 l 1,19,-1
 400 700 l 1,16,-1
EndSplineSet
Validated: 5
EndChar

StartChar: g
Encoding: 103 103 74
Width: 800
GlyphClass: 1
Flags: W
LayerCount: 2
Fore
SplineSet
500 100 m 1,0,-1
 200 100 l 1,1,-1
 200 200 l 1,2,-1
 500 200 l 1,3,-1
 500 100 l 1,0,-1
600 500 m 1,4,-1
 700 500 l 1,5,-1
 700 0 l 1,6,-1
 600 0 l 1,7,-1
 600 200 l 1,8,-1
 500 200 l 1,9,-1
 500 400 l 1,10,-1
 600 400 l 1,11,-1
 600 500 l 1,4,-1
200 0 m 1,12,-1
 600 0 l 1,13,-1
 600 -100 l 1,14,-1
 200 -100 l 1,15,-1
 200 0 l 1,12,-1
100 400 m 1,16,-1
 200 400 l 1,17,-1
 200 200 l 1,18,-1
 100 200 l 1,19,-1
 100 400 l 1,16,-1
500 500 m 1,20,-1
 500 400 l 1,21,-1
 200 400 l 1,22,-1
 200 500 l 1,23,-1
 500 500 l 1,20,-1
EndSplineSet
Validated: 5
EndChar

StartChar: h
Encoding: 104 104 75
Width: 800
GlyphClass: 1
Flags: W
LayerCount: 2
Fore
SplineSet
700 400 m 1,0,-1
 700 0 l 1,1,-1
 600 0 l 1,2,-1
 600 400 l 1,3,-1
 700 400 l 1,0,-1
600 500 m 1,4,-1
 600 400 l 1,5,-1
 300 400 l 1,6,-1
 300 500 l 1,7,-1
 600 500 l 1,4,-1
100 0 m 1,8,-1
 100 700 l 1,9,-1
 200 700 l 1,10,-1
 200 400 l 1,11,-1
 300 400 l 1,12,-1
 300 300 l 1,13,-1
 200 300 l 1,14,-1
 200 0 l 1,15,-1
 100 0 l 1,8,-1
EndSplineSet
Validated: 5
EndChar

StartChar: i
Encoding: 105 105 76
Width: 800
GlyphClass: 1
Flags: W
LayerCount: 2
Fore
SplineSet
500 100 m 1,0,-1
 600 100 l 1,1,-1
 600 0 l 1,2,-1
 300 0 l 1,3,-1
 300 100 l 1,4,-1
 400 100 l 1,5,-1
 400 400 l 1,6,-1
 300 400 l 1,7,-1
 300 500 l 1,8,-1
 500 500 l 1,9,-1
 500 100 l 1,0,-1
500 700 m 1,10,-1
 500 600 l 1,11,-1
 400 600 l 1,12,-1
 400 700 l 1,13,-1
 500 700 l 1,10,-1
EndSplineSet
Validated: 1
EndChar

StartChar: j
Encoding: 106 106 77
Width: 800
GlyphClass: 1
Flags: W
LayerCount: 2
Fore
SplineSet
500 700 m 1,0,-1
 600 700 l 1,1,-1
 600 600 l 1,2,-1
 500 600 l 1,3,-1
 500 700 l 1,0,-1
600 500 m 1,4,-1
 600 0 l 1,5,-1
 500 0 l 1,6,-1
 500 400 l 1,7,-1
 400 400 l 1,8,-1
 400 500 l 1,9,-1
 600 500 l 1,4,-1
100 0 m 1,10,-1
 100 100 l 1,11,-1
 200 100 l 1,12,-1
 200 0 l 1,13,-1
 100 0 l 1,10,-1
200 0 m 1,14,-1
 500 0 l 1,15,-1
 500 -100 l 1,16,-1
 200 -100 l 1,17,-1
 200 0 l 1,14,-1
EndSplineSet
Validated: 5
EndChar

StartChar: k
Encoding: 107 107 78
Width: 800
GlyphClass: 1
Flags: W
LayerCount: 2
Fore
SplineSet
500 100 m 1,0,-1
 600 100 l 1,1,-1
 600 0 l 1,2,-1
 500 0 l 1,3,-1
 500 100 l 1,0,-1
400 100 m 1,4,-1
 400 200 l 1,5,-1
 500 200 l 1,6,-1
 500 100 l 1,7,-1
 400 100 l 1,4,-1
600 500 m 1,8,-1
 600 400 l 1,9,-1
 500 400 l 1,10,-1
 500 500 l 1,11,-1
 600 500 l 1,8,-1
100 0 m 1,12,-1
 100 700 l 1,13,-1
 200 700 l 1,14,-1
 200 200 l 1,15,-1
 300 200 l 1,16,-1
 300 100 l 1,17,-1
 200 100 l 1,18,-1
 200 0 l 1,19,-1
 100 0 l 1,12,-1
300 300 m 1,20,-1
 400 300 l 1,21,-1
 400 200 l 1,22,-1
 300 200 l 1,23,-1
 300 300 l 1,20,-1
500 300 m 1,24,-1
 400 300 l 1,25,-1
 400 400 l 1,26,-1
 500 400 l 1,27,-1
 500 300 l 1,24,-1
EndSplineSet
Validated: 5
EndChar

StartChar: l
Encoding: 108 108 79
Width: 800
GlyphClass: 1
Flags: W
LayerCount: 2
Fore
SplineSet
500 100 m 1,0,-1
 600 100 l 1,1,-1
 600 0 l 1,2,-1
 300 0 l 1,3,-1
 300 100 l 1,4,-1
 400 100 l 1,5,-1
 400 600 l 1,6,-1
 300 600 l 1,7,-1
 300 700 l 1,8,-1
 500 700 l 1,9,-1
 500 100 l 1,0,-1
EndSplineSet
Validated: 1
EndChar

StartChar: m
Encoding: 109 109 80
Width: 800
GlyphClass: 1
Flags: W
LayerCount: 2
Fore
SplineSet
700 400 m 1,0,-1
 800 400 l 1,1,-1
 800 0 l 1,2,-1
 700 0 l 1,3,-1
 700 400 l 1,0,-1
100 0 m 1,4,-1
 100 500 l 1,5,-1
 400 500 l 1,6,-1
 400 400 l 1,7,-1
 200 400 l 1,8,-1
 200 0 l 1,9,-1
 100 0 l 1,4,-1
500 0 m 1,10,-1
 400 0 l 1,11,-1
 400 400 l 1,12,-1
 500 400 l 1,13,-1
 500 0 l 1,10,-1
700 500 m 1,14,-1
 700 400 l 1,15,-1
 500 400 l 1,16,-1
 500 500 l 1,17,-1
 700 500 l 1,14,-1
EndSplineSet
Validated: 5
EndChar

StartChar: n
Encoding: 110 110 81
Width: 800
GlyphClass: 1
Flags: W
LayerCount: 2
Fore
SplineSet
700 400 m 1,0,-1
 700 0 l 1,1,-1
 600 0 l 1,2,-1
 600 400 l 1,3,-1
 700 400 l 1,0,-1
600 500 m 1,4,-1
 600 400 l 1,5,-1
 300 400 l 1,6,-1
 300 500 l 1,7,-1
 600 500 l 1,4,-1
100 0 m 1,8,-1
 100 500 l 1,9,-1
 200 500 l 1,10,-1
 200 400 l 1,11,-1
 300 400 l 1,12,-1
 300 300 l 1,13,-1
 200 300 l 1,14,-1
 200 0 l 1,15,-1
 100 0 l 1,8,-1
EndSplineSet
Validated: 5
EndChar

StartChar: o
Encoding: 111 111 82
Width: 800
GlyphClass: 1
Flags: W
LayerCount: 2
Fore
SplineSet
700 400 m 1,0,-1
 700 100 l 1,1,-1
 600 100 l 1,2,-1
 600 400 l 1,3,-1
 700 400 l 1,0,-1
600 100 m 1,4,-1
 600 0 l 1,5,-1
 200 0 l 1,6,-1
 200 100 l 1,7,-1
 600 100 l 1,4,-1
100 400 m 1,8,-1
 200 400 l 1,9,-1
 200 100 l 1,10,-1
 100 100 l 1,11,-1
 100 400 l 1,8,-1
600 500 m 1,12,-1
 600 400 l 1,13,-1
 200 400 l 1,14,-1
 200 500 l 1,15,-1
 600 500 l 1,12,-1
EndSplineSet
Validated: 5
EndChar

StartChar: p
Encoding: 112 112 83
Width: 800
GlyphClass: 1
Flags: W
LayerCount: 2
Fore
SplineSet
700 400 m 1,0,-1
 700 200 l 1,1,-1
 600 200 l 1,2,-1
 600 400 l 1,3,-1
 700 400 l 1,0,-1
100 -100 m 1,4,-1
 100 500 l 1,5,-1
 200 500 l 1,6,-1
 200 400 l 1,7,-1
 300 400 l 1,8,-1
 300 200 l 1,9,-1
 200 200 l 1,10,-1
 200 -100 l 1,11,-1
 100 -100 l 1,4,-1
600 500 m 1,12,-1
 600 400 l 1,13,-1
 300 400 l 1,14,-1
 300 500 l 1,15,-1
 600 500 l 1,12,-1
600 200 m 1,16,-1
 600 100 l 1,17,-1
 300 100 l 1,18,-1
 300 200 l 1,19,-1
 600 200 l 1,16,-1
EndSplineSet
Validated: 5
EndChar

StartChar: q
Encoding: 113 113 84
Width: 800
GlyphClass: 1
Flags: W
LayerCount: 2
Fore
SplineSet
500 100 m 1,0,-1
 200 100 l 1,1,-1
 200 200 l 1,2,-1
 500 200 l 1,3,-1
 500 100 l 1,0,-1
600 500 m 1,4,-1
 700 500 l 1,5,-1
 700 -100 l 1,6,-1
 600 -100 l 1,7,-1
 600 200 l 1,8,-1
 500 200 l 1,9,-1
 500 400 l 1,10,-1
 600 400 l 1,11,-1
 600 500 l 1,4,-1
100 400 m 1,12,-1
 200 400 l 1,13,-1
 200 200 l 1,14,-1
 100 200 l 1,15,-1
 100 400 l 1,12,-1
500 500 m 1,16,-1
 500 400 l 1,17,-1
 200 400 l 1,18,-1
 200 500 l 1,19,-1
 500 500 l 1,16,-1
EndSplineSet
Validated: 5
EndChar

StartChar: r
Encoding: 114 114 85
Width: 800
GlyphClass: 1
Flags: W
LayerCount: 2
Fore
SplineSet
700 400 m 1,0,-1
 700 300 l 1,1,-1
 600 300 l 1,2,-1
 600 400 l 1,3,-1
 700 400 l 1,0,-1
100 0 m 1,4,-1
 100 500 l 1,5,-1
 200 500 l 1,6,-1
 200 400 l 1,7,-1
 300 400 l 1,8,-1
 300 300 l 1,9,-1
 200 300 l 1,10,-1
 200 0 l 1,11,-1
 100 0 l 1,4,-1
600 500 m 1,12,-1
 600 400 l 1,13,-1
 300 400 l 1,14,-1
 300 500 l 1,15,-1
 600 500 l 1,12,-1
EndSplineSet
Validated: 5
EndChar

StartChar: s
Encoding: 115 115 86
Width: 800
GlyphClass: 1
Flags: W
LayerCount: 2
Fore
SplineSet
700 400 m 1,0,-1
 200 400 l 1,1,-1
 200 500 l 1,2,-1
 700 500 l 1,3,-1
 700 400 l 1,0,-1
600 300 m 1,4,-1
 600 200 l 1,5,-1
 200 200 l 1,6,-1
 200 300 l 1,7,-1
 600 300 l 1,4,-1
100 0 m 1,8,-1
 100 100 l 1,9,-1
 600 100 l 1,10,-1
 600 0 l 1,11,-1
 100 0 l 1,8,-1
700 200 m 1,12,-1
 700 100 l 1,13,-1
 600 100 l 1,14,-1
 600 200 l 1,15,-1
 700 200 l 1,12,-1
100 400 m 1,16,-1
 200 400 l 1,17,-1
 200 300 l 1,18,-1
 100 300 l 1,19,-1
 100 400 l 1,16,-1
EndSplineSet
Validated: 5
EndChar

StartChar: t
Encoding: 116 116 87
Width: 800
GlyphClass: 1
Flags: W
LayerCount: 2
Fore
SplineSet
600 500 m 1,0,-1
 600 400 l 1,1,-1
 400 400 l 1,2,-1
 400 100 l 1,3,-1
 300 100 l 1,4,-1
 300 400 l 1,5,-1
 100 400 l 1,6,-1
 100 500 l 1,7,-1
 300 500 l 1,8,-1
 300 700 l 1,9,-1
 400 700 l 1,10,-1
 400 500 l 1,11,-1
 600 500 l 1,0,-1
400 100 m 1,12,-1
 600 100 l 1,13,-1
 600 0 l 1,14,-1
 400 0 l 1,15,-1
 400 100 l 1,12,-1
700 200 m 1,16,-1
 700 100 l 1,17,-1
 600 100 l 1,18,-1
 600 200 l 1,19,-1
 700 200 l 1,16,-1
EndSplineSet
Validated: 5
EndChar

StartChar: u
Encoding: 117 117 88
Width: 800
GlyphClass: 1
Flags: W
LayerCount: 2
Fore
SplineSet
500 100 m 1,0,-1
 500 0 l 1,1,-1
 200 0 l 1,2,-1
 200 100 l 1,3,-1
 500 100 l 1,0,-1
600 500 m 1,4,-1
 700 500 l 1,5,-1
 700 0 l 1,6,-1
 600 0 l 1,7,-1
 600 100 l 1,8,-1
 500 100 l 1,9,-1
 500 200 l 1,10,-1
 600 200 l 1,11,-1
 600 500 l 1,4,-1
100 100 m 1,12,-1
 100 500 l 1,13,-1
 200 500 l 1,14,-1
 200 100 l 1,15,-1
 100 100 l 1,12,-1
EndSplineSet
Validated: 5
EndChar

StartChar: v
Encoding: 118 118 89
Width: 800
GlyphClass: 1
Flags: W
LayerCount: 2
Fore
SplineSet
500 100 m 1,0,-1
 500 0 l 1,1,-1
 300 0 l 1,2,-1
 300 100 l 1,3,-1
 500 100 l 1,0,-1
600 500 m 1,4,-1
 700 500 l 1,5,-1
 700 200 l 1,6,-1
 600 200 l 1,7,-1
 600 500 l 1,4,-1
600 200 m 1,8,-1
 600 100 l 1,9,-1
 500 100 l 1,10,-1
 500 200 l 1,11,-1
 600 200 l 1,8,-1
200 100 m 1,12,-1
 200 200 l 1,13,-1
 300 200 l 1,14,-1
 300 100 l 1,15,-1
 200 100 l 1,12,-1
100 200 m 1,16,-1
 100 500 l 1,17,-1
 200 500 l 1,18,-1
 200 200 l 1,19,-1
 100 200 l 1,16,-1
EndSplineSet
Validated: 5
EndChar

StartChar: w
Encoding: 119 119 90
Width: 800
GlyphClass: 1
Flags: W
LayerCount: 2
Fore
SplineSet
500 100 m 1,0,-1
 400 100 l 1,1,-1
 400 400 l 1,2,-1
 500 400 l 1,3,-1
 500 100 l 1,0,-1
400 100 m 1,4,-1
 400 0 l 1,5,-1
 200 0 l 1,6,-1
 200 100 l 1,7,-1
 400 100 l 1,4,-1
500 0 m 1,8,-1
 500 100 l 1,9,-1
 700 100 l 1,10,-1
 700 0 l 1,11,-1
 500 0 l 1,8,-1
700 500 m 1,12,-1
 800 500 l 1,13,-1
 800 100 l 1,14,-1
 700 100 l 1,15,-1
 700 500 l 1,12,-1
100 100 m 1,16,-1
 100 500 l 1,17,-1
 200 500 l 1,18,-1
 200 100 l 1,19,-1
 100 100 l 1,16,-1
EndSplineSet
Validated: 5
EndChar

StartChar: x
Encoding: 120 120 91
Width: 800
GlyphClass: 1
Flags: W
LayerCount: 2
Fore
SplineSet
500 100 m 1,0,-1
 500 200 l 1,1,-1
 600 200 l 1,2,-1
 600 100 l 1,3,-1
 500 100 l 1,0,-1
700 400 m 1,4,-1
 600 400 l 1,5,-1
 600 500 l 1,6,-1
 700 500 l 1,7,-1
 700 400 l 1,4,-1
600 300 m 1,8,-1
 500 300 l 1,9,-1
 500 400 l 1,10,-1
 600 400 l 1,11,-1
 600 300 l 1,8,-1
300 300 m 1,12,-1
 500 300 l 1,13,-1
 500 200 l 1,14,-1
 300 200 l 1,15,-1
 300 300 l 1,12,-1
200 0 m 1,16,-1
 100 0 l 1,17,-1
 100 100 l 1,18,-1
 200 100 l 1,19,-1
 200 0 l 1,16,-1
600 100 m 1,20,-1
 700 100 l 1,21,-1
 700 0 l 1,22,-1
 600 0 l 1,23,-1
 600 100 l 1,20,-1
200 200 m 1,24,-1
 300 200 l 1,25,-1
 300 100 l 1,26,-1
 200 100 l 1,27,-1
 200 200 l 1,24,-1
200 400 m 1,28,-1
 100 400 l 1,29,-1
 100 500 l 1,30,-1
 200 500 l 1,31,-1
 200 400 l 1,28,-1
300 400 m 1,32,-1
 300 300 l 1,33,-1
 200 300 l 1,34,-1
 200 400 l 1,35,-1
 300 400 l 1,32,-1
EndSplineSet
Validated: 5
EndChar

StartChar: y
Encoding: 121 121 92
Width: 800
GlyphClass: 1
Flags: W
LayerCount: 2
Fore
SplineSet
500 100 m 1,0,-1
 200 100 l 1,1,-1
 200 200 l 1,2,-1
 500 200 l 1,3,-1
 500 100 l 1,0,-1
600 300 m 1,4,-1
 600 500 l 1,5,-1
 700 500 l 1,6,-1
 700 0 l 1,7,-1
 600 0 l 1,8,-1
 600 200 l 1,9,-1
 500 200 l 1,10,-1
 500 300 l 1,11,-1
 600 300 l 1,4,-1
200 0 m 1,12,-1
 600 0 l 1,13,-1
 600 -100 l 1,14,-1
 200 -100 l 1,15,-1
 200 0 l 1,12,-1
100 200 m 1,16,-1
 100 500 l 1,17,-1
 200 500 l 1,18,-1
 200 200 l 1,19,-1
 100 200 l 1,16,-1
EndSplineSet
Validated: 5
EndChar

StartChar: z
Encoding: 122 122 93
Width: 800
GlyphClass: 1
Flags: W
LayerCount: 2
Fore
SplineSet
700 400 m 1,0,-1
 600 400 l 1,1,-1
 600 300 l 1,2,-1
 500 300 l 1,3,-1
 500 400 l 1,4,-1
 100 400 l 1,5,-1
 100 500 l 1,6,-1
 700 500 l 1,7,-1
 700 400 l 1,0,-1
100 0 m 1,8,-1
 100 100 l 1,9,-1
 200 100 l 1,10,-1
 200 200 l 1,11,-1
 300 200 l 1,12,-1
 300 100 l 1,13,-1
 700 100 l 1,14,-1
 700 0 l 1,15,-1
 100 0 l 1,8,-1
300 300 m 1,16,-1
 500 300 l 1,17,-1
 500 200 l 1,18,-1
 300 200 l 1,19,-1
 300 300 l 1,16,-1
EndSplineSet
Validated: 5
EndChar

StartChar: braceleft
Encoding: 123 123 94
Width: 800
GlyphClass: 1
Flags: W
LayerCount: 2
Fore
SplineSet
500 100 m 1,0,-1
 400 100 l 1,1,-1
 400 300 l 1,2,-1
 500 300 l 1,3,-1
 500 100 l 1,0,-1
500 700 m 1,4,-1
 700 700 l 1,5,-1
 700 600 l 1,6,-1
 500 600 l 1,7,-1
 500 700 l 1,4,-1
500 0 m 1,8,-1
 500 100 l 1,9,-1
 700 100 l 1,10,-1
 700 0 l 1,11,-1
 500 0 l 1,8,-1
400 300 m 1,12,-1
 200 300 l 1,13,-1
 200 400 l 1,14,-1
 400 400 l 1,15,-1
 400 300 l 1,12,-1
400 400 m 1,16,-1
 400 600 l 1,17,-1
 500 600 l 1,18,-1
 500 400 l 1,19,-1
 400 400 l 1,16,-1
EndSplineSet
Validated: 5
EndChar

StartChar: bar
Encoding: 124 124 95
Width: 800
GlyphClass: 1
Flags: W
LayerCount: 2
Fore
SplineSet
500 700 m 1,0,-1
 500 -100 l 1,1,-1
 400 -100 l 1,2,-1
 400 700 l 1,3,-1
 500 700 l 1,0,-1
EndSplineSet
Validated: 1
EndChar

StartChar: braceright
Encoding: 125 125 96
Width: 800
GlyphClass: 1
Flags: W
LayerCount: 2
Fore
SplineSet
500 100 m 1,0,-1
 400 100 l 1,1,-1
 400 300 l 1,2,-1
 500 300 l 1,3,-1
 500 100 l 1,0,-1
700 400 m 1,4,-1
 700 300 l 1,5,-1
 500 300 l 1,6,-1
 500 400 l 1,7,-1
 700 400 l 1,4,-1
400 100 m 1,8,-1
 400 0 l 1,9,-1
 200 0 l 1,10,-1
 200 100 l 1,11,-1
 400 100 l 1,8,-1
400 700 m 1,12,-1
 400 600 l 1,13,-1
 200 600 l 1,14,-1
 200 700 l 1,15,-1
 400 700 l 1,12,-1
400 400 m 1,16,-1
 400 600 l 1,17,-1
 500 600 l 1,18,-1
 500 400 l 1,19,-1
 400 400 l 1,16,-1
EndSplineSet
Validated: 5
EndChar

StartChar: asciitilde
Encoding: 126 126 97
Width: 800
GlyphClass: 1
Flags: W
LayerCount: 2
Fore
SplineSet
700 400 m 1,0,-1
 500 400 l 1,1,-1
 500 500 l 1,2,-1
 700 500 l 1,3,-1
 700 400 l 1,0,-1
400 700 m 1,4,-1
 400 600 l 1,5,-1
 200 600 l 1,6,-1
 200 700 l 1,7,-1
 400 700 l 1,4,-1
700 500 m 1,8,-1
 700 700 l 1,9,-1
 800 700 l 1,10,-1
 800 500 l 1,11,-1
 700 500 l 1,8,-1
100 400 m 1,12,-1
 100 600 l 1,13,-1
 200 600 l 1,14,-1
 200 400 l 1,15,-1
 100 400 l 1,12,-1
400 500 m 1,16,-1
 400 600 l 1,17,-1
 500 600 l 1,18,-1
 500 500 l 1,19,-1
 400 500 l 1,16,-1
EndSplineSet
Validated: 5
EndChar

StartChar: exclamdown
Encoding: 161 161 99
Width: 800
GlyphClass: 1
Flags: W
LayerCount: 2
Fore
SplineSet
500 300 m 1,0,-1
 500 -100 l 1,1,-1
 400 -100 l 1,2,-1
 400 300 l 1,3,-1
 500 300 l 1,0,-1
400 500 m 1,4,-1
 400 600 l 1,5,-1
 500 600 l 1,6,-1
 500 500 l 1,7,-1
 400 500 l 1,4,-1
EndSplineSet
Validated: 1
EndChar

StartChar: cent
Encoding: 162 162 100
Width: 800
GlyphClass: 1
Flags: W
LayerCount: 2
Fore
SplineSet
500 100 m 1,0,-1
 600 100 l 1,1,-1
 600 0 l 1,2,-1
 500 0 l 1,3,-1
 500 -100 l 1,4,-1
 400 -100 l 1,5,-1
 400 0 l 1,6,-1
 300 0 l 1,7,-1
 300 100 l 1,8,-1
 400 100 l 1,9,-1
 400 400 l 1,10,-1
 300 400 l 1,11,-1
 300 500 l 1,12,-1
 400 500 l 1,13,-1
 400 600 l 1,14,-1
 500 600 l 1,15,-1
 500 500 l 1,16,-1
 600 500 l 1,17,-1
 600 400 l 1,18,-1
 500 400 l 1,19,-1
 500 100 l 1,0,-1
600 300 m 1,20,-1
 600 400 l 1,21,-1
 700 400 l 1,22,-1
 700 300 l 1,23,-1
 600 300 l 1,20,-1
700 200 m 1,24,-1
 700 100 l 1,25,-1
 600 100 l 1,26,-1
 600 200 l 1,27,-1
 700 200 l 1,24,-1
300 100 m 1,28,-1
 200 100 l 1,29,-1
 200 400 l 1,30,-1
 300 400 l 1,31,-1
 300 100 l 1,28,-1
EndSplineSet
Validated: 5
EndChar

StartChar: sterling
Encoding: 163 163 101
Width: 800
GlyphClass: 1
Flags: W
LayerCount: 2
Fore
SplineSet
600 300 m 1,0,-1
 400 300 l 1,1,-1
 400 100 l 1,2,-1
 300 100 l 1,3,-1
 300 0 l 1,4,-1
 100 0 l 1,5,-1
 100 200 l 1,6,-1
 300 200 l 1,7,-1
 300 300 l 1,8,-1
 200 300 l 1,9,-1
 200 400 l 1,10,-1
 300 400 l 1,11,-1
 300 600 l 1,12,-1
 400 600 l 1,13,-1
 400 400 l 1,14,-1
 600 400 l 1,15,-1
 600 300 l 1,0,-1
400 100 m 1,16,-1
 700 100 l 1,17,-1
 700 0 l 1,18,-1
 400 0 l 1,19,-1
 400 100 l 1,16,-1
400 700 m 1,20,-1
 600 700 l 1,21,-1
 600 600 l 1,22,-1
 400 600 l 1,23,-1
 400 700 l 1,20,-1
EndSplineSet
Validated: 5
EndChar

StartChar: currency
Encoding: 164 164 102
Width: 800
GlyphClass: 1
Flags: W
LayerCount: 2
Fore
SplineSet
600 500 m 1,0,-1
 600 600 l 1,1,-1
 700 600 l 1,2,-1
 700 500 l 1,3,-1
 600 500 l 1,0,-1
700 200 m 1,4,-1
 700 100 l 1,5,-1
 600 100 l 1,6,-1
 600 200 l 1,7,-1
 700 200 l 1,4,-1
300 500 m 1,8,-1
 600 500 l 1,9,-1
 600 200 l 1,10,-1
 300 200 l 1,11,-1
 300 500 l 1,8,-1
200 100 m 1,12,-1
 200 200 l 1,13,-1
 300 200 l 1,14,-1
 300 100 l 1,15,-1
 200 100 l 1,12,-1
300 600 m 1,16,-1
 300 500 l 1,17,-1
 200 500 l 1,18,-1
 200 600 l 1,19,-1
 300 600 l 1,16,-1
500 300 m 1,20,-1
 500 400 l 1,21,-1
 400 400 l 1,22,-1
 400 300 l 1,23,-1
 500 300 l 1,20,-1
EndSplineSet
Validated: 5
EndChar

StartChar: yen
Encoding: 165 165 103
Width: 800
GlyphClass: 1
Flags: W
LayerCount: 2
Fore
SplineSet
500 100 m 1,0,-1
 500 0 l 1,1,-1
 400 0 l 1,2,-1
 400 100 l 1,3,-1
 200 100 l 1,4,-1
 200 200 l 1,5,-1
 400 200 l 1,6,-1
 400 300 l 1,7,-1
 300 300 l 1,8,-1
 300 400 l 1,9,-1
 600 400 l 1,10,-1
 600 300 l 1,11,-1
 500 300 l 1,12,-1
 500 200 l 1,13,-1
 700 200 l 1,14,-1
 700 100 l 1,15,-1
 500 100 l 1,0,-1
700 400 m 1,16,-1
 600 400 l 1,17,-1
 600 700 l 1,18,-1
 700 700 l 1,19,-1
 700 400 l 1,16,-1
200 700 m 1,20,-1
 300 700 l 1,21,-1
 300 400 l 1,22,-1
 200 400 l 1,23,-1
 200 700 l 1,20,-1
EndSplineSet
Validated: 5
EndChar

StartChar: brokenbar
Encoding: 166 166 104
Width: 800
GlyphClass: 1
Flags: W
LayerCount: 2
Fore
SplineSet
500 700 m 1,0,-1
 500 400 l 1,1,-1
 400 400 l 1,2,-1
 400 700 l 1,3,-1
 500 700 l 1,0,-1
500 -100 m 1,4,-1
 400 -100 l 1,5,-1
 400 200 l 1,6,-1
 500 200 l 1,7,-1
 500 -100 l 1,4,-1
EndSplineSet
Validated: 1
EndChar

StartChar: section
Encoding: 167 167 105
Width: 800
GlyphClass: 1
Flags: W
LayerCount: 2
Fore
SplineSet
600 500 m 1,0,-1
 600 600 l 1,1,-1
 700 600 l 1,2,-1
 700 500 l 1,3,-1
 600 500 l 1,0,-1
700 200 m 1,4,-1
 700 100 l 1,5,-1
 600 100 l 1,6,-1
 600 200 l 1,7,-1
 700 200 l 1,4,-1
300 300 m 1,8,-1
 500 300 l 1,9,-1
 500 400 l 1,10,-1
 600 400 l 1,11,-1
 600 200 l 1,12,-1
 300 200 l 1,13,-1
 300 300 l 1,8,-1
200 0 m 1,14,-1
 200 100 l 1,15,-1
 600 100 l 1,16,-1
 600 0 l 1,17,-1
 200 0 l 1,14,-1
600 600 m 1,18,-1
 200 600 l 1,19,-1
 200 700 l 1,20,-1
 600 700 l 1,21,-1
 600 600 l 1,18,-1
100 100 m 1,22,-1
 100 200 l 1,23,-1
 200 200 l 1,24,-1
 200 100 l 1,25,-1
 100 100 l 1,22,-1
100 600 m 1,26,-1
 200 600 l 1,27,-1
 200 500 l 1,28,-1
 100 500 l 1,29,-1
 100 600 l 1,26,-1
500 500 m 1,30,-1
 500 400 l 1,31,-1
 300 400 l 1,32,-1
 300 300 l 1,33,-1
 200 300 l 1,34,-1
 200 500 l 1,35,-1
 500 500 l 1,30,-1
EndSplineSet
Validated: 5
EndChar

StartChar: dieresis
Encoding: 168 168 106
Width: 800
GlyphClass: 1
Flags: W
LayerCount: 2
Fore
SplineSet
600 700 m 1,0,-1
 600 600 l 1,1,-1
 500 600 l 1,2,-1
 500 700 l 1,3,-1
 600 700 l 1,0,-1
200 600 m 1,4,-1
 200 700 l 1,5,-1
 300 700 l 1,6,-1
 300 600 l 1,7,-1
 200 600 l 1,4,-1
EndSplineSet
Validated: 1
EndChar

StartChar: copyright
Encoding: 169 169 107
Width: 800
GlyphClass: 1
Flags: W
LayerCount: 2
Fore
SplineSet
600 300 m 1,0,-1
 600 200 l 1,1,-1
 400 200 l 1,2,-1
 400 300 l 1,3,-1
 600 300 l 1,0,-1
600 500 m 1,4,-1
 600 600 l 1,5,-1
 700 600 l 1,6,-1
 700 500 l 1,7,-1
 600 500 l 1,4,-1
700 200 m 1,8,-1
 700 500 l 1,9,-1
 800 500 l 1,10,-1
 800 200 l 1,11,-1
 700 200 l 1,8,-1
300 300 m 1,12,-1
 300 400 l 1,13,-1
 400 400 l 1,14,-1
 400 300 l 1,15,-1
 300 300 l 1,12,-1
300 500 m 1,16,-1
 200 500 l 1,17,-1
 200 600 l 1,18,-1
 300 600 l 1,19,-1
 300 500 l 1,16,-1
600 600 m 1,20,-1
 300 600 l 1,21,-1
 300 700 l 1,22,-1
 600 700 l 1,23,-1
 600 600 l 1,20,-1
600 100 m 1,24,-1
 600 200 l 1,25,-1
 700 200 l 1,26,-1
 700 100 l 1,27,-1
 600 100 l 1,24,-1
200 200 m 1,28,-1
 100 200 l 1,29,-1
 100 500 l 1,30,-1
 200 500 l 1,31,-1
 200 200 l 1,28,-1
300 100 m 1,32,-1
 600 100 l 1,33,-1
 600 0 l 1,34,-1
 300 0 l 1,35,-1
 300 100 l 1,32,-1
400 400 m 1,36,-1
 400 500 l 1,37,-1
 600 500 l 1,38,-1
 600 400 l 1,39,-1
 400 400 l 1,36,-1
300 200 m 1,40,-1
 300 100 l 1,41,-1
 200 100 l 1,42,-1
 200 200 l 1,43,-1
 300 200 l 1,40,-1
EndSplineSet
Validated: 5
EndChar

StartChar: ordfeminine
Encoding: 170 170 108
Width: 800
GlyphClass: 1
Flags: W
LayerCount: 2
Fore
SplineSet
600 300 m 1,0,-1
 500 300 l 1,1,-1
 500 400 l 1,2,-1
 200 400 l 1,3,-1
 200 500 l 1,4,-1
 500 500 l 1,5,-1
 500 600 l 1,6,-1
 600 600 l 1,7,-1
 600 300 l 1,0,-1
500 700 m 1,8,-1
 500 600 l 1,9,-1
 200 600 l 1,10,-1
 200 700 l 1,11,-1
 500 700 l 1,8,-1
700 200 m 1,12,-1
 600 200 l 1,13,-1
 600 300 l 1,14,-1
 700 300 l 1,15,-1
 700 200 l 1,12,-1
500 300 m 1,16,-1
 500 200 l 1,17,-1
 200 200 l 1,18,-1
 200 300 l 1,19,-1
 500 300 l 1,16,-1
100 400 m 1,20,-1
 200 400 l 1,21,-1
 200 300 l 1,22,-1
 100 300 l 1,23,-1
 100 400 l 1,20,-1
EndSplineSet
Validated: 5
EndChar

StartChar: guillemotleft
Encoding: 171 171 109
Width: 800
GlyphClass: 1
Flags: W
LayerCount: 2
Fore
SplineSet
500 100 m 1,0,-1
 300 100 l 1,1,-1
 300 200 l 1,2,-1
 200 200 l 1,3,-1
 200 300 l 1,4,-1
 100 300 l 1,5,-1
 100 400 l 1,6,-1
 200 400 l 1,7,-1
 200 500 l 1,8,-1
 300 500 l 1,9,-1
 300 600 l 1,10,-1
 500 600 l 1,11,-1
 500 500 l 1,12,-1
 400 500 l 1,13,-1
 400 400 l 1,14,-1
 300 400 l 1,15,-1
 300 300 l 1,16,-1
 400 300 l 1,17,-1
 400 200 l 1,18,-1
 500 200 l 1,19,-1
 500 100 l 1,0,-1
600 300 m 1,20,-1
 700 300 l 1,21,-1
 700 200 l 1,22,-1
 800 200 l 1,23,-1
 800 100 l 1,24,-1
 600 100 l 1,25,-1
 600 200 l 1,26,-1
 500 200 l 1,27,-1
 500 300 l 1,28,-1
 400 300 l 1,29,-1
 400 400 l 1,30,-1
 500 400 l 1,31,-1
 500 500 l 1,32,-1
 600 500 l 1,33,-1
 600 600 l 1,34,-1
 800 600 l 1,35,-1
 800 500 l 1,36,-1
 700 500 l 1,37,-1
 700 400 l 1,38,-1
 600 400 l 1,39,-1
 600 300 l 1,20,-1
EndSplineSet
Validated: 5
EndChar

StartChar: logicalnot
Encoding: 172 172 110
Width: 800
GlyphClass: 1
Flags: W
LayerCount: 2
Fore
SplineSet
100 400 m 1,0,-1
 100 500 l 1,1,-1
 700 500 l 1,2,-1
 700 200 l 1,3,-1
 600 200 l 1,4,-1
 600 400 l 1,5,-1
 100 400 l 1,0,-1
EndSplineSet
Validated: 1
EndChar

StartChar: hyphen
Encoding: 173 173 111
Width: 800
GlyphClass: 1
Flags: W
LayerCount: 2
Fore
SplineSet
700 400 m 1,0,-1
 700 300 l 1,1,-1
 100 300 l 1,2,-1
 100 400 l 1,3,-1
 700 400 l 1,0,-1
EndSplineSet
Validated: 2097153
EndChar

StartChar: registered
Encoding: 174 174 112
Width: 800
GlyphClass: 1
Flags: W
LayerCount: 2
Fore
SplineSet
600 300 m 1,0,-1
 600 200 l 1,1,-1
 500 200 l 1,2,-1
 500 300 l 1,3,-1
 600 300 l 1,0,-1
600 500 m 1,4,-1
 600 600 l 1,5,-1
 700 600 l 1,6,-1
 700 500 l 1,7,-1
 600 500 l 1,4,-1
700 200 m 1,8,-1
 700 500 l 1,9,-1
 800 500 l 1,10,-1
 800 200 l 1,11,-1
 700 200 l 1,8,-1
300 500 m 1,12,-1
 600 500 l 1,13,-1
 600 400 l 1,14,-1
 500 400 l 1,15,-1
 500 300 l 1,16,-1
 400 300 l 1,17,-1
 400 200 l 1,18,-1
 300 200 l 1,19,-1
 300 500 l 1,12,-1
600 600 m 1,20,-1
 300 600 l 1,21,-1
 300 700 l 1,22,-1
 600 700 l 1,23,-1
 600 600 l 1,20,-1
300 600 m 1,24,-1
 300 500 l 1,25,-1
 200 500 l 1,26,-1
 200 600 l 1,27,-1
 300 600 l 1,24,-1
600 100 m 1,28,-1
 600 200 l 1,29,-1
 700 200 l 1,30,-1
 700 100 l 1,31,-1
 600 100 l 1,28,-1
200 200 m 1,32,-1
 100 200 l 1,33,-1
 100 500 l 1,34,-1
 200 500 l 1,35,-1
 200 200 l 1,32,-1
300 100 m 1,36,-1
 600 100 l 1,37,-1
 600 0 l 1,38,-1
 300 0 l 1,39,-1
 300 100 l 1,36,-1
200 100 m 1,40,-1
 200 200 l 1,41,-1
 300 200 l 1,42,-1
 300 100 l 1,43,-1
 200 100 l 1,40,-1
EndSplineSet
Validated: 5
EndChar

StartChar: macron
Encoding: 175 175 113
Width: 800
GlyphClass: 1
Flags: W
LayerCount: 2
Fore
SplineSet
0 600 m 1,0,-1
 0 700 l 1,1,-1
 800 700 l 1,2,-1
 800 600 l 1,3,-1
 0 600 l 1,0,-1
EndSplineSet
Validated: 1
EndChar

StartChar: degree
Encoding: 176 176 114
Width: 800
GlyphClass: 1
Flags: W
LayerCount: 2
Fore
SplineSet
500 700 m 1,0,-1
 500 600 l 1,1,-1
 300 600 l 1,2,-1
 300 700 l 1,3,-1
 500 700 l 1,0,-1
600 500 m 1,4,-1
 500 500 l 1,5,-1
 500 600 l 1,6,-1
 600 600 l 1,7,-1
 600 500 l 1,4,-1
500 500 m 1,8,-1
 500 400 l 1,9,-1
 300 400 l 1,10,-1
 300 500 l 1,11,-1
 500 500 l 1,8,-1
200 600 m 1,12,-1
 300 600 l 1,13,-1
 300 500 l 1,14,-1
 200 500 l 1,15,-1
 200 600 l 1,12,-1
EndSplineSet
Validated: 5
EndChar

StartChar: plusminus
Encoding: 177 177 115
Width: 800
GlyphClass: 1
Flags: W
LayerCount: 2
Fore
SplineSet
500 100 m 1,0,-1
 700 100 l 1,1,-1
 700 0 l 1,2,-1
 200 0 l 1,3,-1
 200 100 l 1,4,-1
 400 100 l 1,5,-1
 400 300 l 1,6,-1
 200 300 l 1,7,-1
 200 400 l 1,8,-1
 400 400 l 1,9,-1
 400 600 l 1,10,-1
 500 600 l 1,11,-1
 500 400 l 1,12,-1
 700 400 l 1,13,-1
 700 300 l 1,14,-1
 500 300 l 1,15,-1
 500 100 l 1,0,-1
EndSplineSet
Validated: 1
EndChar

StartChar: twosuperior
Encoding: 178 178 116
Width: 800
GlyphClass: 1
Flags: W
LayerCount: 2
Fore
SplineSet
600 500 m 1,0,-1
 600 600 l 1,1,-1
 700 600 l 1,2,-1
 700 500 l 1,3,-1
 600 500 l 1,0,-1
700 200 m 1,4,-1
 100 200 l 1,5,-1
 100 300 l 1,6,-1
 200 300 l 1,7,-1
 200 400 l 1,8,-1
 400 400 l 1,9,-1
 400 300 l 1,10,-1
 700 300 l 1,11,-1
 700 200 l 1,4,-1
600 600 m 1,12,-1
 200 600 l 1,13,-1
 200 700 l 1,14,-1
 600 700 l 1,15,-1
 600 600 l 1,12,-1
600 400 m 1,16,-1
 400 400 l 1,17,-1
 400 500 l 1,18,-1
 600 500 l 1,19,-1
 600 400 l 1,16,-1
100 600 m 1,20,-1
 200 600 l 1,21,-1
 200 500 l 1,22,-1
 100 500 l 1,23,-1
 100 600 l 1,20,-1
EndSplineSet
Validated: 5
EndChar

StartChar: threesuperior
Encoding: 179 179 117
Width: 800
GlyphClass: 1
Flags: W
LayerCount: 2
Fore
SplineSet
700 400 m 1,0,-1
 700 300 l 1,1,-1
 600 300 l 1,2,-1
 600 400 l 1,3,-1
 700 400 l 1,0,-1
600 300 m 1,4,-1
 600 200 l 1,5,-1
 200 200 l 1,6,-1
 200 300 l 1,7,-1
 600 300 l 1,4,-1
600 500 m 1,8,-1
 600 600 l 1,9,-1
 700 600 l 1,10,-1
 700 500 l 1,11,-1
 600 500 l 1,8,-1
300 500 m 1,12,-1
 600 500 l 1,13,-1
 600 400 l 1,14,-1
 300 400 l 1,15,-1
 300 500 l 1,12,-1
600 600 m 1,16,-1
 200 600 l 1,17,-1
 200 700 l 1,18,-1
 600 700 l 1,19,-1
 600 600 l 1,16,-1
100 400 m 1,20,-1
 200 400 l 1,21,-1
 200 300 l 1,22,-1
 100 300 l 1,23,-1
 100 400 l 1,20,-1
100 600 m 1,24,-1
 200 600 l 1,25,-1
 200 500 l 1,26,-1
 100 500 l 1,27,-1
 100 600 l 1,24,-1
EndSplineSet
Validated: 5
EndChar

StartChar: acute
Encoding: 180 180 118
Width: 800
GlyphClass: 1
Flags: W
LayerCount: 2
Fore
SplineSet
400 500 m 1,0,-1
 300 500 l 1,1,-1
 300 600 l 1,2,-1
 400 600 l 1,3,-1
 400 500 l 1,0,-1
500 700 m 1,4,-1
 500 600 l 1,5,-1
 400 600 l 1,6,-1
 400 700 l 1,7,-1
 500 700 l 1,4,-1
200 400 m 1,8,-1
 200 500 l 1,9,-1
 300 500 l 1,10,-1
 300 400 l 1,11,-1
 200 400 l 1,8,-1
EndSplineSet
Validated: 5
EndChar

StartChar: mu
Encoding: 181 181 119
Width: 800
GlyphClass: 1
Flags: W
LayerCount: 2
Fore
SplineSet
500 100 m 1,0,-1
 500 0 l 1,1,-1
 200 0 l 1,2,-1
 200 100 l 1,3,-1
 500 100 l 1,0,-1
0 -100 m 1,4,-1
 0 100 l 1,5,-1
 100 100 l 1,6,-1
 100 -100 l 1,7,-1
 0 -100 l 1,4,-1
600 500 m 1,8,-1
 700 500 l 1,9,-1
 700 0 l 1,10,-1
 600 0 l 1,11,-1
 600 100 l 1,12,-1
 500 100 l 1,13,-1
 500 200 l 1,14,-1
 600 200 l 1,15,-1
 600 500 l 1,8,-1
100 100 m 1,16,-1
 100 500 l 1,17,-1
 200 500 l 1,18,-1
 200 100 l 1,19,-1
 100 100 l 1,16,-1
EndSplineSet
Validated: 2097157
EndChar

StartChar: paragraph
Encoding: 182 182 120
Width: 800
GlyphClass: 1
Flags: W
LayerCount: 2
Fore
SplineSet
600 300 m 1,0,-1
 500 300 l 1,1,-1
 500 0 l 1,2,-1
 400 0 l 1,3,-1
 400 300 l 1,4,-1
 200 300 l 1,5,-1
 200 400 l 1,6,-1
 400 400 l 1,7,-1
 400 600 l 1,8,-1
 200 600 l 1,9,-1
 200 700 l 1,10,-1
 700 700 l 1,11,-1
 700 0 l 1,12,-1
 600 0 l 1,13,-1
 600 300 l 1,0,-1
600 600 m 1,14,-1
 500 600 l 1,15,-1
 500 400 l 1,16,-1
 600 400 l 1,17,-1
 600 600 l 1,14,-1
100 400 m 1,18,-1
 100 600 l 1,19,-1
 200 600 l 1,20,-1
 200 400 l 1,21,-1
 100 400 l 1,18,-1
EndSplineSet
Validated: 5
EndChar

StartChar: periodcentered
Encoding: 183 183 121
Width: 800
GlyphClass: 1
Flags: W
LayerCount: 2
Fore
SplineSet
500 200 m 1,0,-1
 300 200 l 1,1,-1
 300 400 l 1,2,-1
 500 400 l 1,3,-1
 500 200 l 1,0,-1
EndSplineSet
Validated: 1
EndChar

StartChar: cedilla
Encoding: 184 184 122
Width: 800
GlyphClass: 1
Flags: W
LayerCount: 2
Fore
SplineSet
500 100 m 1,0,-1
 500 0 l 1,1,-1
 400 0 l 1,2,-1
 400 100 l 1,3,-1
 500 100 l 1,0,-1
200 0 m 1,4,-1
 400 0 l 1,5,-1
 400 -100 l 1,6,-1
 200 -100 l 1,7,-1
 200 0 l 1,4,-1
EndSplineSet
Validated: 5
EndChar

StartChar: onesuperior
Encoding: 185 185 123
Width: 800
GlyphClass: 1
Flags: W
LayerCount: 2
Fore
SplineSet
500 700 m 1,0,-1
 500 300 l 1,1,-1
 700 300 l 1,2,-1
 700 200 l 1,3,-1
 200 200 l 1,4,-1
 200 300 l 1,5,-1
 400 300 l 1,6,-1
 400 500 l 1,7,-1
 300 500 l 1,8,-1
 300 600 l 1,9,-1
 400 600 l 1,10,-1
 400 700 l 1,11,-1
 500 700 l 1,0,-1
300 500 m 1,12,-1
 300 400 l 1,13,-1
 200 400 l 1,14,-1
 200 500 l 1,15,-1
 300 500 l 1,12,-1
EndSplineSet
Validated: 5
EndChar

StartChar: ordmasculine
Encoding: 186 186 124
Width: 800
GlyphClass: 1
Flags: W
LayerCount: 2
Fore
SplineSet
600 700 m 1,0,-1
 600 600 l 1,1,-1
 200 600 l 1,2,-1
 200 700 l 1,3,-1
 600 700 l 1,0,-1
600 300 m 1,4,-1
 600 200 l 1,5,-1
 200 200 l 1,6,-1
 200 300 l 1,7,-1
 600 300 l 1,4,-1
100 600 m 1,8,-1
 200 600 l 1,9,-1
 200 300 l 1,10,-1
 100 300 l 1,11,-1
 100 600 l 1,8,-1
700 600 m 1,12,-1
 700 300 l 1,13,-1
 600 300 l 1,14,-1
 600 600 l 1,15,-1
 700 600 l 1,12,-1
EndSplineSet
Validated: 5
EndChar

StartChar: guillemotright
Encoding: 187 187 125
Width: 800
GlyphClass: 1
Flags: W
LayerCount: 2
Fore
SplineSet
700 400 m 1,0,-1
 800 400 l 1,1,-1
 800 300 l 1,2,-1
 700 300 l 1,3,-1
 700 200 l 1,4,-1
 600 200 l 1,5,-1
 600 100 l 1,6,-1
 400 100 l 1,7,-1
 400 200 l 1,8,-1
 500 200 l 1,9,-1
 500 300 l 1,10,-1
 600 300 l 1,11,-1
 600 400 l 1,12,-1
 500 400 l 1,13,-1
 500 500 l 1,14,-1
 400 500 l 1,15,-1
 400 600 l 1,16,-1
 600 600 l 1,17,-1
 600 500 l 1,18,-1
 700 500 l 1,19,-1
 700 400 l 1,0,-1
300 300 m 1,20,-1
 300 400 l 1,21,-1
 200 400 l 1,22,-1
 200 500 l 1,23,-1
 100 500 l 1,24,-1
 100 600 l 1,25,-1
 300 600 l 1,26,-1
 300 500 l 1,27,-1
 400 500 l 1,28,-1
 400 400 l 1,29,-1
 500 400 l 1,30,-1
 500 300 l 1,31,-1
 400 300 l 1,32,-1
 400 200 l 1,33,-1
 300 200 l 1,34,-1
 300 100 l 1,35,-1
 100 100 l 1,36,-1
 100 200 l 1,37,-1
 200 200 l 1,38,-1
 200 300 l 1,39,-1
 300 300 l 1,20,-1
EndSplineSet
Validated: 5
EndChar

StartChar: onequarter
Encoding: 188 188 126
Width: 800
GlyphClass: 1
Flags: W
LayerCount: 2
Fore
SplineSet
500 100 m 1,0,-1
 500 300 l 1,1,-1
 600 300 l 1,2,-1
 600 200 l 1,3,-1
 700 200 l 1,4,-1
 700 0 l 1,5,-1
 600 0 l 1,6,-1
 600 100 l 1,7,-1
 500 100 l 1,0,-1
600 500 m 1,8,-1
 600 600 l 1,9,-1
 700 600 l 1,10,-1
 700 500 l 1,11,-1
 600 500 l 1,8,-1
300 300 m 1,12,-1
 400 300 l 1,13,-1
 400 200 l 1,14,-1
 300 200 l 1,15,-1
 300 300 l 1,12,-1
200 0 m 1,16,-1
 100 0 l 1,17,-1
 100 100 l 1,18,-1
 200 100 l 1,19,-1
 200 0 l 1,16,-1
500 300 m 1,20,-1
 400 300 l 1,21,-1
 400 400 l 1,22,-1
 500 400 l 1,23,-1
 500 300 l 1,20,-1
100 600 m 1,24,-1
 100 700 l 1,25,-1
 300 700 l 1,26,-1
 300 400 l 1,27,-1
 200 400 l 1,28,-1
 200 600 l 1,29,-1
 100 600 l 1,24,-1
500 500 m 1,30,-1
 600 500 l 1,31,-1
 600 400 l 1,32,-1
 500 400 l 1,33,-1
 500 500 l 1,30,-1
300 100 m 1,34,-1
 200 100 l 1,35,-1
 200 200 l 1,36,-1
 300 200 l 1,37,-1
 300 100 l 1,34,-1
EndSplineSet
Validated: 5
EndChar

StartChar: onehalf
Encoding: 189 189 127
Width: 800
GlyphClass: 1
Flags: W
LayerCount: 2
Fore
SplineSet
600 500 m 1,0,-1
 600 600 l 1,1,-1
 700 600 l 1,2,-1
 700 500 l 1,3,-1
 600 500 l 1,0,-1
700 200 m 1,4,-1
 600 200 l 1,5,-1
 600 100 l 1,6,-1
 700 100 l 1,7,-1
 700 0 l 1,8,-1
 500 0 l 1,9,-1
 500 300 l 1,10,-1
 700 300 l 1,11,-1
 700 200 l 1,4,-1
300 300 m 1,12,-1
 400 300 l 1,13,-1
 400 200 l 1,14,-1
 300 200 l 1,15,-1
 300 300 l 1,12,-1
200 0 m 1,16,-1
 100 0 l 1,17,-1
 100 100 l 1,18,-1
 200 100 l 1,19,-1
 200 0 l 1,16,-1
500 300 m 1,20,-1
 400 300 l 1,21,-1
 400 400 l 1,22,-1
 500 400 l 1,23,-1
 500 300 l 1,20,-1
100 600 m 1,24,-1
 100 700 l 1,25,-1
 300 700 l 1,26,-1
 300 400 l 1,27,-1
 200 400 l 1,28,-1
 200 600 l 1,29,-1
 100 600 l 1,24,-1
500 500 m 1,30,-1
 600 500 l 1,31,-1
 600 400 l 1,32,-1
 500 400 l 1,33,-1
 500 500 l 1,30,-1
300 100 m 1,34,-1
 200 100 l 1,35,-1
 200 200 l 1,36,-1
 300 200 l 1,37,-1
 300 100 l 1,34,-1
EndSplineSet
Validated: 5
EndChar

StartChar: threequarters
Encoding: 190 190 128
Width: 800
GlyphClass: 1
Flags: W
LayerCount: 2
Fore
SplineSet
500 100 m 1,0,-1
 500 300 l 1,1,-1
 600 300 l 1,2,-1
 600 200 l 1,3,-1
 700 200 l 1,4,-1
 700 0 l 1,5,-1
 600 0 l 1,6,-1
 600 100 l 1,7,-1
 500 100 l 1,0,-1
600 500 m 1,8,-1
 600 600 l 1,9,-1
 700 600 l 1,10,-1
 700 500 l 1,11,-1
 600 500 l 1,8,-1
300 300 m 1,12,-1
 400 300 l 1,13,-1
 400 200 l 1,14,-1
 300 200 l 1,15,-1
 300 300 l 1,12,-1
200 0 m 1,16,-1
 100 0 l 1,17,-1
 100 100 l 1,18,-1
 200 100 l 1,19,-1
 200 0 l 1,16,-1
300 500 m 1,20,-1
 200 500 l 1,21,-1
 200 600 l 1,22,-1
 300 600 l 1,23,-1
 300 500 l 1,20,-1
200 700 m 1,24,-1
 200 600 l 1,25,-1
 100 600 l 1,26,-1
 100 700 l 1,27,-1
 200 700 l 1,24,-1
500 300 m 1,28,-1
 400 300 l 1,29,-1
 400 400 l 1,30,-1
 500 400 l 1,31,-1
 500 300 l 1,28,-1
500 500 m 1,32,-1
 600 500 l 1,33,-1
 600 400 l 1,34,-1
 500 400 l 1,35,-1
 500 500 l 1,32,-1
300 100 m 1,36,-1
 200 100 l 1,37,-1
 200 200 l 1,38,-1
 300 200 l 1,39,-1
 300 100 l 1,36,-1
200 400 m 1,40,-1
 100 400 l 1,41,-1
 100 500 l 1,42,-1
 200 500 l 1,43,-1
 200 400 l 1,40,-1
EndSplineSet
Validated: 5
EndChar

StartChar: questiondown
Encoding: 191 191 129
Width: 800
GlyphClass: 1
Flags: W
LayerCount: 2
Fore
SplineSet
100 0 m 1,0,-1
 100 200 l 1,1,-1
 200 200 l 1,2,-1
 200 0 l 1,3,-1
 100 0 l 1,0,-1
200 0 m 1,4,-1
 600 0 l 1,5,-1
 600 -100 l 1,6,-1
 200 -100 l 1,7,-1
 200 0 l 1,4,-1
500 300 m 1,8,-1
 400 300 l 1,9,-1
 400 400 l 1,10,-1
 500 400 l 1,11,-1
 500 300 l 1,8,-1
600 100 m 1,12,-1
 700 100 l 1,13,-1
 700 0 l 1,14,-1
 600 0 l 1,15,-1
 600 100 l 1,12,-1
400 500 m 1,16,-1
 400 600 l 1,17,-1
 500 600 l 1,18,-1
 500 500 l 1,19,-1
 400 500 l 1,16,-1
400 300 m 1,20,-1
 400 200 l 1,21,-1
 200 200 l 1,22,-1
 200 300 l 1,23,-1
 400 300 l 1,20,-1
EndSplineSet
Validated: 5
EndChar

StartChar: Agrave
Encoding: 192 192 130
Width: 800
GlyphClass: 1
Flags: W
LayerCount: 2
Fore
SplineSet
600 300 m 1,0,-1
 500 300 l 1,1,-1
 500 400 l 1,2,-1
 600 400 l 1,3,-1
 600 300 l 1,0,-1
400 700 m 1,4,-1
 400 600 l 1,5,-1
 300 600 l 1,6,-1
 300 700 l 1,7,-1
 400 700 l 1,4,-1
300 300 m 1,8,-1
 200 300 l 1,9,-1
 200 400 l 1,10,-1
 300 400 l 1,11,-1
 300 300 l 1,8,-1
200 0 m 1,12,-1
 100 0 l 1,13,-1
 100 300 l 1,14,-1
 200 300 l 1,15,-1
 200 200 l 1,16,-1
 600 200 l 1,17,-1
 600 300 l 1,18,-1
 700 300 l 1,19,-1
 700 0 l 1,20,-1
 600 0 l 1,21,-1
 600 100 l 1,22,-1
 200 100 l 1,23,-1
 200 0 l 1,12,-1
300 500 m 1,24,-1
 400 500 l 1,25,-1
 400 600 l 1,26,-1
 500 600 l 1,27,-1
 500 400 l 1,28,-1
 300 400 l 1,29,-1
 300 500 l 1,24,-1
EndSplineSet
Validated: 5
EndChar

StartChar: Aacute
Encoding: 193 193 131
Width: 800
GlyphClass: 1
Flags: W
LayerCount: 2
Fore
SplineSet
600 300 m 1,0,-1
 500 300 l 1,1,-1
 500 400 l 1,2,-1
 600 400 l 1,3,-1
 600 300 l 1,0,-1
400 700 m 1,4,-1
 500 700 l 1,5,-1
 500 600 l 1,6,-1
 400 600 l 1,7,-1
 400 700 l 1,4,-1
300 300 m 1,8,-1
 200 300 l 1,9,-1
 200 400 l 1,10,-1
 300 400 l 1,11,-1
 300 300 l 1,8,-1
200 0 m 1,12,-1
 100 0 l 1,13,-1
 100 300 l 1,14,-1
 200 300 l 1,15,-1
 200 200 l 1,16,-1
 600 200 l 1,17,-1
 600 300 l 1,18,-1
 700 300 l 1,19,-1
 700 0 l 1,20,-1
 600 0 l 1,21,-1
 600 100 l 1,22,-1
 200 100 l 1,23,-1
 200 0 l 1,12,-1
300 600 m 1,24,-1
 400 600 l 1,25,-1
 400 500 l 1,26,-1
 500 500 l 1,27,-1
 500 400 l 1,28,-1
 300 400 l 1,29,-1
 300 600 l 1,24,-1
EndSplineSet
Validated: 5
EndChar

StartChar: Acircumflex
Encoding: 194 194 132
Width: 800
GlyphClass: 1
Flags: W
LayerCount: 2
Fore
SplineSet
600 300 m 1,0,-1
 500 300 l 1,1,-1
 500 400 l 1,2,-1
 600 400 l 1,3,-1
 600 300 l 1,0,-1
600 500 m 1,4,-1
 500 500 l 1,5,-1
 500 600 l 1,6,-1
 600 600 l 1,7,-1
 600 500 l 1,4,-1
400 700 m 1,8,-1
 500 700 l 1,9,-1
 500 600 l 1,10,-1
 400 600 l 1,11,-1
 400 700 l 1,8,-1
300 300 m 1,12,-1
 200 300 l 1,13,-1
 200 400 l 1,14,-1
 300 400 l 1,15,-1
 300 300 l 1,12,-1
200 0 m 1,16,-1
 100 0 l 1,17,-1
 100 300 l 1,18,-1
 200 300 l 1,19,-1
 200 200 l 1,20,-1
 600 200 l 1,21,-1
 600 300 l 1,22,-1
 700 300 l 1,23,-1
 700 0 l 1,24,-1
 600 0 l 1,25,-1
 600 100 l 1,26,-1
 200 100 l 1,27,-1
 200 0 l 1,16,-1
300 600 m 1,28,-1
 400 600 l 1,29,-1
 400 500 l 1,30,-1
 500 500 l 1,31,-1
 500 400 l 1,32,-1
 300 400 l 1,33,-1
 300 600 l 1,28,-1
EndSplineSet
Validated: 5
EndChar

StartChar: Atilde
Encoding: 195 195 133
Width: 800
GlyphClass: 1
Flags: W
LayerCount: 2
Fore
SplineSet
600 300 m 1,0,-1
 500 300 l 1,1,-1
 500 400 l 1,2,-1
 600 400 l 1,3,-1
 600 300 l 1,0,-1
600 500 m 1,4,-1
 500 500 l 1,5,-1
 500 400 l 1,6,-1
 300 400 l 1,7,-1
 300 500 l 1,8,-1
 400 500 l 1,9,-1
 400 600 l 1,10,-1
 600 600 l 1,11,-1
 600 500 l 1,4,-1
400 700 m 1,12,-1
 400 600 l 1,13,-1
 200 600 l 1,14,-1
 200 700 l 1,15,-1
 400 700 l 1,12,-1
300 300 m 1,16,-1
 200 300 l 1,17,-1
 200 400 l 1,18,-1
 300 400 l 1,19,-1
 300 300 l 1,16,-1
200 0 m 1,20,-1
 100 0 l 1,21,-1
 100 300 l 1,22,-1
 200 300 l 1,23,-1
 200 200 l 1,24,-1
 600 200 l 1,25,-1
 600 300 l 1,26,-1
 700 300 l 1,27,-1
 700 0 l 1,28,-1
 600 0 l 1,29,-1
 600 100 l 1,30,-1
 200 100 l 1,31,-1
 200 0 l 1,20,-1
600 600 m 1,32,-1
 600 700 l 1,33,-1
 700 700 l 1,34,-1
 700 600 l 1,35,-1
 600 600 l 1,32,-1
100 600 m 1,36,-1
 200 600 l 1,37,-1
 200 500 l 1,38,-1
 100 500 l 1,39,-1
 100 600 l 1,36,-1
EndSplineSet
Validated: 5
EndChar

StartChar: Adieresis
Encoding: 196 196 134
Width: 800
GlyphClass: 1
Flags: W
LayerCount: 2
Fore
SplineSet
600 300 m 1,0,-1
 200 300 l 1,1,-1
 200 0 l 1,2,-1
 100 0 l 1,3,-1
 100 500 l 1,4,-1
 200 500 l 1,5,-1
 200 400 l 1,6,-1
 600 400 l 1,7,-1
 600 500 l 1,8,-1
 700 500 l 1,9,-1
 700 0 l 1,10,-1
 600 0 l 1,11,-1
 600 300 l 1,0,-1
600 500 m 1,12,-1
 500 500 l 1,13,-1
 500 600 l 1,14,-1
 600 600 l 1,15,-1
 600 500 l 1,12,-1
300 500 m 1,16,-1
 200 500 l 1,17,-1
 200 600 l 1,18,-1
 300 600 l 1,19,-1
 300 500 l 1,16,-1
600 600 m 1,20,-1
 600 700 l 1,21,-1
 700 700 l 1,22,-1
 700 600 l 1,23,-1
 600 600 l 1,20,-1
200 700 m 1,24,-1
 200 600 l 1,25,-1
 100 600 l 1,26,-1
 100 700 l 1,27,-1
 200 700 l 1,24,-1
300 600 m 1,28,-1
 300 700 l 1,29,-1
 500 700 l 1,30,-1
 500 600 l 1,31,-1
 300 600 l 1,28,-1
EndSplineSet
Validated: 5
EndChar

StartChar: Aring
Encoding: 197 197 135
Width: 800
GlyphClass: 1
Flags: W
LayerCount: 2
Fore
SplineSet
600 300 m 1,0,-1
 500 300 l 1,1,-1
 500 400 l 1,2,-1
 600 400 l 1,3,-1
 600 300 l 1,0,-1
600 500 m 1,4,-1
 500 500 l 1,5,-1
 500 600 l 1,6,-1
 600 600 l 1,7,-1
 600 500 l 1,4,-1
300 300 m 1,8,-1
 200 300 l 1,9,-1
 200 400 l 1,10,-1
 300 400 l 1,11,-1
 300 300 l 1,8,-1
200 0 m 1,12,-1
 100 0 l 1,13,-1
 100 300 l 1,14,-1
 200 300 l 1,15,-1
 200 200 l 1,16,-1
 600 200 l 1,17,-1
 600 300 l 1,18,-1
 700 300 l 1,19,-1
 700 0 l 1,20,-1
 600 0 l 1,21,-1
 600 100 l 1,22,-1
 200 100 l 1,23,-1
 200 0 l 1,12,-1
300 500 m 1,24,-1
 500 500 l 1,25,-1
 500 400 l 1,26,-1
 300 400 l 1,27,-1
 300 500 l 1,24,-1
300 600 m 1,28,-1
 300 700 l 1,29,-1
 500 700 l 1,30,-1
 500 600 l 1,31,-1
 300 600 l 1,28,-1
200 600 m 1,32,-1
 300 600 l 1,33,-1
 300 500 l 1,34,-1
 200 500 l 1,35,-1
 200 600 l 1,32,-1
EndSplineSet
Validated: 5
EndChar

StartChar: AE
Encoding: 198 198 136
Width: 800
GlyphClass: 1
Flags: W
LayerCount: 2
Fore
SplineSet
500 100 m 1,0,-1
 700 100 l 1,1,-1
 700 0 l 1,2,-1
 400 0 l 1,3,-1
 400 300 l 1,4,-1
 200 300 l 1,5,-1
 200 0 l 1,6,-1
 100 0 l 1,7,-1
 100 500 l 1,8,-1
 200 500 l 1,9,-1
 200 400 l 1,10,-1
 400 400 l 1,11,-1
 400 600 l 1,12,-1
 300 600 l 1,13,-1
 300 700 l 1,14,-1
 700 700 l 1,15,-1
 700 600 l 1,16,-1
 500 600 l 1,17,-1
 500 400 l 1,18,-1
 600 400 l 1,19,-1
 600 300 l 1,20,-1
 500 300 l 1,21,-1
 500 100 l 1,0,-1
300 500 m 1,22,-1
 200 500 l 1,23,-1
 200 600 l 1,24,-1
 300 600 l 1,25,-1
 300 500 l 1,22,-1
EndSplineSet
Validated: 5
EndChar

StartChar: Ccedilla
Encoding: 199 199 137
Width: 800
GlyphClass: 1
Flags: W
LayerCount: 2
Fore
SplineSet
500 100 m 1,0,-1
 500 0 l 1,1,-1
 400 0 l 1,2,-1
 400 100 l 1,3,-1
 300 100 l 1,4,-1
 300 200 l 1,5,-1
 600 200 l 1,6,-1
 600 100 l 1,7,-1
 500 100 l 1,0,-1
600 300 m 1,8,-1
 700 300 l 1,9,-1
 700 200 l 1,10,-1
 600 200 l 1,11,-1
 600 300 l 1,8,-1
600 500 m 1,12,-1
 600 600 l 1,13,-1
 700 600 l 1,14,-1
 700 500 l 1,15,-1
 600 500 l 1,12,-1
300 300 m 1,16,-1
 300 200 l 1,17,-1
 200 200 l 1,18,-1
 200 300 l 1,19,-1
 300 300 l 1,16,-1
200 0 m 1,20,-1
 400 0 l 1,21,-1
 400 -100 l 1,22,-1
 200 -100 l 1,23,-1
 200 0 l 1,20,-1
300 500 m 1,24,-1
 200 500 l 1,25,-1
 200 600 l 1,26,-1
 300 600 l 1,27,-1
 300 500 l 1,24,-1
600 600 m 1,28,-1
 300 600 l 1,29,-1
 300 700 l 1,30,-1
 600 700 l 1,31,-1
 600 600 l 1,28,-1
100 500 m 1,32,-1
 200 500 l 1,33,-1
 200 300 l 1,34,-1
 100 300 l 1,35,-1
 100 500 l 1,32,-1
EndSplineSet
Validated: 5
EndChar

StartChar: Egrave
Encoding: 200 200 138
Width: 800
GlyphClass: 1
Flags: W
LayerCount: 2
Fore
SplineSet
700 400 m 1,0,-1
 200 400 l 1,1,-1
 200 300 l 1,2,-1
 500 300 l 1,3,-1
 500 200 l 1,4,-1
 200 200 l 1,5,-1
 200 100 l 1,6,-1
 700 100 l 1,7,-1
 700 0 l 1,8,-1
 100 0 l 1,9,-1
 100 500 l 1,10,-1
 400 500 l 1,11,-1
 400 600 l 1,12,-1
 500 600 l 1,13,-1
 500 500 l 1,14,-1
 700 500 l 1,15,-1
 700 400 l 1,0,-1
400 700 m 1,16,-1
 400 600 l 1,17,-1
 300 600 l 1,18,-1
 300 700 l 1,19,-1
 400 700 l 1,16,-1
EndSplineSet
Validated: 5
EndChar

StartChar: Eacute
Encoding: 201 201 139
Width: 800
GlyphClass: 1
Flags: W
LayerCount: 2
Fore
SplineSet
700 400 m 1,0,-1
 200 400 l 1,1,-1
 200 300 l 1,2,-1
 500 300 l 1,3,-1
 500 200 l 1,4,-1
 200 200 l 1,5,-1
 200 100 l 1,6,-1
 700 100 l 1,7,-1
 700 0 l 1,8,-1
 100 0 l 1,9,-1
 100 500 l 1,10,-1
 300 500 l 1,11,-1
 300 600 l 1,12,-1
 400 600 l 1,13,-1
 400 500 l 1,14,-1
 700 500 l 1,15,-1
 700 400 l 1,0,-1
500 700 m 1,16,-1
 500 600 l 1,17,-1
 400 600 l 1,18,-1
 400 700 l 1,19,-1
 500 700 l 1,16,-1
EndSplineSet
Validated: 5
EndChar

StartChar: Ecircumflex
Encoding: 202 202 140
Width: 800
GlyphClass: 1
Flags: W
LayerCount: 2
Fore
SplineSet
500 700 m 1,0,-1
 500 600 l 1,1,-1
 400 600 l 1,2,-1
 400 700 l 1,3,-1
 500 700 l 1,0,-1
700 400 m 1,4,-1
 200 400 l 1,5,-1
 200 300 l 1,6,-1
 500 300 l 1,7,-1
 500 200 l 1,8,-1
 200 200 l 1,9,-1
 200 100 l 1,10,-1
 700 100 l 1,11,-1
 700 0 l 1,12,-1
 100 0 l 1,13,-1
 100 500 l 1,14,-1
 300 500 l 1,15,-1
 300 600 l 1,16,-1
 400 600 l 1,17,-1
 400 500 l 1,18,-1
 500 500 l 1,19,-1
 500 600 l 1,20,-1
 600 600 l 1,21,-1
 600 500 l 1,22,-1
 700 500 l 1,23,-1
 700 400 l 1,4,-1
EndSplineSet
Validated: 5
EndChar

StartChar: Edieresis
Encoding: 203 203 141
Width: 800
GlyphClass: 1
Flags: W
LayerCount: 2
Fore
SplineSet
700 400 m 1,0,-1
 200 400 l 1,1,-1
 200 300 l 1,2,-1
 500 300 l 1,3,-1
 500 200 l 1,4,-1
 200 200 l 1,5,-1
 200 100 l 1,6,-1
 700 100 l 1,7,-1
 700 0 l 1,8,-1
 100 0 l 1,9,-1
 100 500 l 1,10,-1
 700 500 l 1,11,-1
 700 400 l 1,0,-1
500 700 m 1,12,-1
 600 700 l 1,13,-1
 600 600 l 1,14,-1
 500 600 l 1,15,-1
 500 700 l 1,12,-1
200 700 m 1,16,-1
 300 700 l 1,17,-1
 300 600 l 1,18,-1
 200 600 l 1,19,-1
 200 700 l 1,16,-1
EndSplineSet
Validated: 1
EndChar

StartChar: Igrave
Encoding: 204 204 142
Width: 800
GlyphClass: 1
Flags: W
LayerCount: 2
Fore
SplineSet
500 100 m 1,0,-1
 600 100 l 1,1,-1
 600 0 l 1,2,-1
 300 0 l 1,3,-1
 300 100 l 1,4,-1
 400 100 l 1,5,-1
 400 400 l 1,6,-1
 300 400 l 1,7,-1
 300 500 l 1,8,-1
 500 500 l 1,9,-1
 500 600 l 1,10,-1
 600 600 l 1,11,-1
 600 400 l 1,12,-1
 500 400 l 1,13,-1
 500 100 l 1,0,-1
500 700 m 1,14,-1
 500 600 l 1,15,-1
 400 600 l 1,16,-1
 400 700 l 1,17,-1
 500 700 l 1,14,-1
EndSplineSet
Validated: 5
EndChar

StartChar: Iacute
Encoding: 205 205 143
Width: 800
GlyphClass: 1
Flags: W
LayerCount: 2
Fore
SplineSet
500 100 m 1,0,-1
 600 100 l 1,1,-1
 600 0 l 1,2,-1
 300 0 l 1,3,-1
 300 100 l 1,4,-1
 400 100 l 1,5,-1
 400 400 l 1,6,-1
 300 400 l 1,7,-1
 300 600 l 1,8,-1
 400 600 l 1,9,-1
 400 500 l 1,10,-1
 600 500 l 1,11,-1
 600 400 l 1,12,-1
 500 400 l 1,13,-1
 500 100 l 1,0,-1
500 700 m 1,14,-1
 500 600 l 1,15,-1
 400 600 l 1,16,-1
 400 700 l 1,17,-1
 500 700 l 1,14,-1
EndSplineSet
Validated: 5
EndChar

StartChar: Icircumflex
Encoding: 206 206 144
Width: 800
GlyphClass: 1
Flags: W
LayerCount: 2
Fore
SplineSet
500 100 m 1,0,-1
 600 100 l 1,1,-1
 600 0 l 1,2,-1
 300 0 l 1,3,-1
 300 100 l 1,4,-1
 400 100 l 1,5,-1
 400 400 l 1,6,-1
 300 400 l 1,7,-1
 300 600 l 1,8,-1
 400 600 l 1,9,-1
 400 500 l 1,10,-1
 500 500 l 1,11,-1
 500 600 l 1,12,-1
 600 600 l 1,13,-1
 600 400 l 1,14,-1
 500 400 l 1,15,-1
 500 100 l 1,0,-1
500 700 m 1,16,-1
 500 600 l 1,17,-1
 400 600 l 1,18,-1
 400 700 l 1,19,-1
 500 700 l 1,16,-1
EndSplineSet
Validated: 5
EndChar

StartChar: Idieresis
Encoding: 207 207 145
Width: 800
GlyphClass: 1
Flags: W
LayerCount: 2
Fore
SplineSet
500 100 m 1,0,-1
 600 100 l 1,1,-1
 600 0 l 1,2,-1
 300 0 l 1,3,-1
 300 100 l 1,4,-1
 400 100 l 1,5,-1
 400 400 l 1,6,-1
 300 400 l 1,7,-1
 300 500 l 1,8,-1
 600 500 l 1,9,-1
 600 400 l 1,10,-1
 500 400 l 1,11,-1
 500 100 l 1,0,-1
500 700 m 1,12,-1
 600 700 l 1,13,-1
 600 600 l 1,14,-1
 500 600 l 1,15,-1
 500 700 l 1,12,-1
400 700 m 1,16,-1
 400 600 l 1,17,-1
 300 600 l 1,18,-1
 300 700 l 1,19,-1
 400 700 l 1,16,-1
EndSplineSet
Validated: 1
EndChar

StartChar: Eth
Encoding: 208 208 146
Width: 800
GlyphClass: 1
Flags: W
LayerCount: 2
Fore
SplineSet
500 100 m 1,0,-1
 500 0 l 1,1,-1
 100 0 l 1,2,-1
 100 100 l 1,3,-1
 200 100 l 1,4,-1
 200 300 l 1,5,-1
 100 300 l 1,6,-1
 100 400 l 1,7,-1
 200 400 l 1,8,-1
 200 600 l 1,9,-1
 100 600 l 1,10,-1
 100 700 l 1,11,-1
 500 700 l 1,12,-1
 500 600 l 1,13,-1
 300 600 l 1,14,-1
 300 400 l 1,15,-1
 400 400 l 1,16,-1
 400 300 l 1,17,-1
 300 300 l 1,18,-1
 300 100 l 1,19,-1
 500 100 l 1,0,-1
600 500 m 1,20,-1
 500 500 l 1,21,-1
 500 600 l 1,22,-1
 600 600 l 1,23,-1
 600 500 l 1,20,-1
700 200 m 1,24,-1
 600 200 l 1,25,-1
 600 500 l 1,26,-1
 700 500 l 1,27,-1
 700 200 l 1,24,-1
600 100 m 1,28,-1
 500 100 l 1,29,-1
 500 200 l 1,30,-1
 600 200 l 1,31,-1
 600 100 l 1,28,-1
EndSplineSet
Validated: 5
EndChar

StartChar: Ntilde
Encoding: 209 209 147
Width: 800
GlyphClass: 1
Flags: W
LayerCount: 2
Fore
SplineSet
500 100 m 1,0,-1
 500 200 l 1,1,-1
 600 200 l 1,2,-1
 600 500 l 1,3,-1
 700 500 l 1,4,-1
 700 0 l 1,5,-1
 600 0 l 1,6,-1
 600 100 l 1,7,-1
 500 100 l 1,0,-1
600 500 m 1,8,-1
 400 500 l 1,9,-1
 400 600 l 1,10,-1
 600 600 l 1,11,-1
 600 500 l 1,8,-1
400 700 m 1,12,-1
 400 600 l 1,13,-1
 200 600 l 1,14,-1
 200 700 l 1,15,-1
 400 700 l 1,12,-1
300 300 m 1,16,-1
 300 400 l 1,17,-1
 400 400 l 1,18,-1
 400 300 l 1,19,-1
 300 300 l 1,16,-1
200 0 m 1,20,-1
 100 0 l 1,21,-1
 100 600 l 1,22,-1
 200 600 l 1,23,-1
 200 500 l 1,24,-1
 300 500 l 1,25,-1
 300 400 l 1,26,-1
 200 400 l 1,27,-1
 200 0 l 1,20,-1
600 600 m 1,28,-1
 600 700 l 1,29,-1
 700 700 l 1,30,-1
 700 600 l 1,31,-1
 600 600 l 1,28,-1
500 300 m 1,32,-1
 500 200 l 1,33,-1
 400 200 l 1,34,-1
 400 300 l 1,35,-1
 500 300 l 1,32,-1
EndSplineSet
Validated: 5
EndChar

StartChar: Ograve
Encoding: 210 210 148
Width: 800
GlyphClass: 1
Flags: W
LayerCount: 2
Fore
SplineSet
700 400 m 1,0,-1
 700 100 l 1,1,-1
 600 100 l 1,2,-1
 600 400 l 1,3,-1
 700 400 l 1,0,-1
600 500 m 1,4,-1
 600 400 l 1,5,-1
 200 400 l 1,6,-1
 200 500 l 1,7,-1
 400 500 l 1,8,-1
 400 600 l 1,9,-1
 500 600 l 1,10,-1
 500 500 l 1,11,-1
 600 500 l 1,4,-1
400 700 m 1,12,-1
 400 600 l 1,13,-1
 300 600 l 1,14,-1
 300 700 l 1,15,-1
 400 700 l 1,12,-1
200 0 m 1,16,-1
 200 100 l 1,17,-1
 600 100 l 1,18,-1
 600 0 l 1,19,-1
 200 0 l 1,16,-1
100 100 m 1,20,-1
 100 400 l 1,21,-1
 200 400 l 1,22,-1
 200 100 l 1,23,-1
 100 100 l 1,20,-1
EndSplineSet
Validated: 5
EndChar

StartChar: Oacute
Encoding: 211 211 149
Width: 800
GlyphClass: 1
Flags: W
LayerCount: 2
Fore
SplineSet
700 400 m 1,0,-1
 700 100 l 1,1,-1
 600 100 l 1,2,-1
 600 400 l 1,3,-1
 700 400 l 1,0,-1
500 700 m 1,4,-1
 500 600 l 1,5,-1
 400 600 l 1,6,-1
 400 700 l 1,7,-1
 500 700 l 1,4,-1
600 500 m 1,8,-1
 600 400 l 1,9,-1
 200 400 l 1,10,-1
 200 500 l 1,11,-1
 300 500 l 1,12,-1
 300 600 l 1,13,-1
 400 600 l 1,14,-1
 400 500 l 1,15,-1
 600 500 l 1,8,-1
200 0 m 1,16,-1
 200 100 l 1,17,-1
 600 100 l 1,18,-1
 600 0 l 1,19,-1
 200 0 l 1,16,-1
100 100 m 1,20,-1
 100 400 l 1,21,-1
 200 400 l 1,22,-1
 200 100 l 1,23,-1
 100 100 l 1,20,-1
EndSplineSet
Validated: 5
EndChar

StartChar: Ocircumflex
Encoding: 212 212 150
Width: 800
GlyphClass: 1
Flags: W
LayerCount: 2
Fore
SplineSet
700 400 m 1,0,-1
 700 100 l 1,1,-1
 600 100 l 1,2,-1
 600 400 l 1,3,-1
 700 400 l 1,0,-1
500 700 m 1,4,-1
 500 600 l 1,5,-1
 400 600 l 1,6,-1
 400 700 l 1,7,-1
 500 700 l 1,4,-1
200 0 m 1,8,-1
 200 100 l 1,9,-1
 600 100 l 1,10,-1
 600 0 l 1,11,-1
 200 0 l 1,8,-1
300 500 m 1,12,-1
 300 600 l 1,13,-1
 400 600 l 1,14,-1
 400 500 l 1,15,-1
 500 500 l 1,16,-1
 500 600 l 1,17,-1
 600 600 l 1,18,-1
 600 400 l 1,19,-1
 200 400 l 1,20,-1
 200 500 l 1,21,-1
 300 500 l 1,12,-1
100 100 m 1,22,-1
 100 400 l 1,23,-1
 200 400 l 1,24,-1
 200 100 l 1,25,-1
 100 100 l 1,22,-1
EndSplineSet
Validated: 5
EndChar

StartChar: Otilde
Encoding: 213 213 151
Width: 800
GlyphClass: 1
Flags: W
LayerCount: 2
Fore
SplineSet
700 400 m 1,0,-1
 700 100 l 1,1,-1
 600 100 l 1,2,-1
 600 400 l 1,3,-1
 700 400 l 1,0,-1
400 700 m 1,4,-1
 400 600 l 1,5,-1
 200 600 l 1,6,-1
 200 700 l 1,7,-1
 400 700 l 1,4,-1
700 600 m 1,8,-1
 600 600 l 1,9,-1
 600 700 l 1,10,-1
 700 700 l 1,11,-1
 700 600 l 1,8,-1
200 0 m 1,12,-1
 200 100 l 1,13,-1
 600 100 l 1,14,-1
 600 0 l 1,15,-1
 200 0 l 1,12,-1
600 600 m 1,16,-1
 600 400 l 1,17,-1
 200 400 l 1,18,-1
 200 500 l 1,19,-1
 400 500 l 1,20,-1
 400 600 l 1,21,-1
 600 600 l 1,16,-1
100 100 m 1,22,-1
 100 400 l 1,23,-1
 200 400 l 1,24,-1
 200 100 l 1,25,-1
 100 100 l 1,22,-1
100 600 m 1,26,-1
 200 600 l 1,27,-1
 200 500 l 1,28,-1
 100 500 l 1,29,-1
 100 600 l 1,26,-1
EndSplineSet
Validated: 5
EndChar

StartChar: Odieresis
Encoding: 214 214 152
Width: 800
GlyphClass: 1
Flags: W
LayerCount: 2
Fore
SplineSet
500 100 m 1,0,-1
 500 0 l 1,1,-1
 300 0 l 1,2,-1
 300 100 l 1,3,-1
 500 100 l 1,0,-1
600 500 m 1,4,-1
 500 500 l 1,5,-1
 500 600 l 1,6,-1
 600 600 l 1,7,-1
 600 500 l 1,4,-1
700 200 m 1,8,-1
 600 200 l 1,9,-1
 600 500 l 1,10,-1
 700 500 l 1,11,-1
 700 200 l 1,8,-1
300 500 m 1,12,-1
 200 500 l 1,13,-1
 200 600 l 1,14,-1
 300 600 l 1,15,-1
 300 500 l 1,12,-1
600 600 m 1,16,-1
 600 700 l 1,17,-1
 700 700 l 1,18,-1
 700 600 l 1,19,-1
 600 600 l 1,16,-1
200 700 m 1,20,-1
 200 600 l 1,21,-1
 100 600 l 1,22,-1
 100 700 l 1,23,-1
 200 700 l 1,20,-1
300 600 m 1,24,-1
 300 700 l 1,25,-1
 500 700 l 1,26,-1
 500 600 l 1,27,-1
 300 600 l 1,24,-1
600 100 m 1,28,-1
 500 100 l 1,29,-1
 500 200 l 1,30,-1
 600 200 l 1,31,-1
 600 100 l 1,28,-1
300 100 m 1,32,-1
 200 100 l 1,33,-1
 200 200 l 1,34,-1
 300 200 l 1,35,-1
 300 100 l 1,32,-1
200 200 m 1,36,-1
 100 200 l 1,37,-1
 100 500 l 1,38,-1
 200 500 l 1,39,-1
 200 200 l 1,36,-1
EndSplineSet
Validated: 5
EndChar

StartChar: multiply
Encoding: 215 215 153
Width: 800
GlyphClass: 1
Flags: W
LayerCount: 2
Fore
SplineSet
600 300 m 1,0,-1
 600 200 l 1,1,-1
 500 200 l 1,2,-1
 500 300 l 1,3,-1
 600 300 l 1,0,-1
600 500 m 1,4,-1
 600 600 l 1,5,-1
 700 600 l 1,6,-1
 700 500 l 1,7,-1
 600 500 l 1,4,-1
700 200 m 1,8,-1
 700 100 l 1,9,-1
 600 100 l 1,10,-1
 600 200 l 1,11,-1
 700 200 l 1,8,-1
300 300 m 1,12,-1
 400 300 l 1,13,-1
 400 200 l 1,14,-1
 300 200 l 1,15,-1
 300 300 l 1,12,-1
300 500 m 1,16,-1
 400 500 l 1,17,-1
 400 400 l 1,18,-1
 300 400 l 1,19,-1
 300 500 l 1,16,-1
300 600 m 1,20,-1
 300 500 l 1,21,-1
 200 500 l 1,22,-1
 200 600 l 1,23,-1
 300 600 l 1,20,-1
500 300 m 1,24,-1
 400 300 l 1,25,-1
 400 400 l 1,26,-1
 500 400 l 1,27,-1
 500 300 l 1,24,-1
500 500 m 1,28,-1
 600 500 l 1,29,-1
 600 400 l 1,30,-1
 500 400 l 1,31,-1
 500 500 l 1,28,-1
200 200 m 1,32,-1
 300 200 l 1,33,-1
 300 100 l 1,34,-1
 200 100 l 1,35,-1
 200 200 l 1,32,-1
EndSplineSet
Validated: 5
EndChar

StartChar: Oslash
Encoding: 216 216 154
Width: 800
GlyphClass: 1
Flags: W
LayerCount: 2
Fore
SplineSet
500 100 m 1,0,-1
 500 0 l 1,1,-1
 300 0 l 1,2,-1
 300 100 l 1,3,-1
 500 100 l 1,0,-1
600 500 m 1,4,-1
 500 500 l 1,5,-1
 500 600 l 1,6,-1
 600 600 l 1,7,-1
 600 500 l 1,4,-1
700 200 m 1,8,-1
 600 200 l 1,9,-1
 600 500 l 1,10,-1
 700 500 l 1,11,-1
 700 200 l 1,8,-1
200 0 m 1,12,-1
 100 0 l 1,13,-1
 100 100 l 1,14,-1
 200 100 l 1,15,-1
 200 0 l 1,12,-1
300 500 m 1,16,-1
 200 500 l 1,17,-1
 200 600 l 1,18,-1
 300 600 l 1,19,-1
 300 500 l 1,16,-1
600 600 m 1,20,-1
 600 700 l 1,21,-1
 700 700 l 1,22,-1
 700 600 l 1,23,-1
 600 600 l 1,20,-1
300 600 m 1,24,-1
 300 700 l 1,25,-1
 500 700 l 1,26,-1
 500 600 l 1,27,-1
 300 600 l 1,24,-1
500 300 m 1,28,-1
 400 300 l 1,29,-1
 400 200 l 1,30,-1
 300 200 l 1,31,-1
 300 400 l 1,32,-1
 400 400 l 1,33,-1
 400 500 l 1,34,-1
 500 500 l 1,35,-1
 500 300 l 1,28,-1
600 100 m 1,36,-1
 500 100 l 1,37,-1
 500 200 l 1,38,-1
 600 200 l 1,39,-1
 600 100 l 1,36,-1
200 200 m 1,40,-1
 100 200 l 1,41,-1
 100 500 l 1,42,-1
 200 500 l 1,43,-1
 200 200 l 1,40,-1
300 100 m 1,44,-1
 200 100 l 1,45,-1
 200 200 l 1,46,-1
 300 200 l 1,47,-1
 300 100 l 1,44,-1
EndSplineSet
Validated: 5
EndChar

StartChar: Ugrave
Encoding: 217 217 155
Width: 800
GlyphClass: 1
Flags: W
LayerCount: 2
Fore
SplineSet
600 500 m 1,0,-1
 700 500 l 1,1,-1
 700 100 l 1,2,-1
 600 100 l 1,3,-1
 600 500 l 1,0,-1
400 700 m 1,4,-1
 400 600 l 1,5,-1
 300 600 l 1,6,-1
 300 700 l 1,7,-1
 400 700 l 1,4,-1
200 0 m 1,8,-1
 200 100 l 1,9,-1
 600 100 l 1,10,-1
 600 0 l 1,11,-1
 200 0 l 1,8,-1
100 100 m 1,12,-1
 100 500 l 1,13,-1
 200 500 l 1,14,-1
 200 100 l 1,15,-1
 100 100 l 1,12,-1
400 500 m 1,16,-1
 400 600 l 1,17,-1
 500 600 l 1,18,-1
 500 500 l 1,19,-1
 400 500 l 1,16,-1
EndSplineSet
Validated: 5
EndChar

StartChar: Uacute
Encoding: 218 218 156
Width: 800
GlyphClass: 1
Flags: W
LayerCount: 2
Fore
SplineSet
500 700 m 1,0,-1
 500 600 l 1,1,-1
 400 600 l 1,2,-1
 400 700 l 1,3,-1
 500 700 l 1,0,-1
600 500 m 1,4,-1
 700 500 l 1,5,-1
 700 100 l 1,6,-1
 600 100 l 1,7,-1
 600 500 l 1,4,-1
200 0 m 1,8,-1
 200 100 l 1,9,-1
 600 100 l 1,10,-1
 600 0 l 1,11,-1
 200 0 l 1,8,-1
300 500 m 1,12,-1
 300 600 l 1,13,-1
 400 600 l 1,14,-1
 400 500 l 1,15,-1
 300 500 l 1,12,-1
100 100 m 1,16,-1
 100 500 l 1,17,-1
 200 500 l 1,18,-1
 200 100 l 1,19,-1
 100 100 l 1,16,-1
EndSplineSet
Validated: 5
EndChar

StartChar: Ucircumflex
Encoding: 219 219 157
Width: 800
GlyphClass: 1
Flags: W
LayerCount: 2
Fore
SplineSet
500 700 m 1,0,-1
 500 600 l 1,1,-1
 400 600 l 1,2,-1
 400 700 l 1,3,-1
 500 700 l 1,0,-1
600 500 m 1,4,-1
 500 500 l 1,5,-1
 500 600 l 1,6,-1
 600 600 l 1,7,-1
 600 500 l 1,4,-1
200 0 m 1,8,-1
 200 100 l 1,9,-1
 600 100 l 1,10,-1
 600 0 l 1,11,-1
 200 0 l 1,8,-1
300 500 m 1,12,-1
 300 600 l 1,13,-1
 400 600 l 1,14,-1
 400 500 l 1,15,-1
 300 500 l 1,12,-1
700 500 m 1,16,-1
 700 100 l 1,17,-1
 600 100 l 1,18,-1
 600 500 l 1,19,-1
 700 500 l 1,16,-1
100 100 m 1,20,-1
 100 500 l 1,21,-1
 200 500 l 1,22,-1
 200 100 l 1,23,-1
 100 100 l 1,20,-1
EndSplineSet
Validated: 5
EndChar

StartChar: Udieresis
Encoding: 220 220 158
Width: 800
GlyphClass: 1
Flags: W
LayerCount: 2
Fore
SplineSet
500 700 m 1,0,-1
 500 600 l 1,1,-1
 300 600 l 1,2,-1
 300 700 l 1,3,-1
 500 700 l 1,0,-1
200 0 m 1,4,-1
 200 100 l 1,5,-1
 600 100 l 1,6,-1
 600 0 l 1,7,-1
 200 0 l 1,4,-1
100 100 m 1,8,-1
 100 700 l 1,9,-1
 200 700 l 1,10,-1
 200 100 l 1,11,-1
 100 100 l 1,8,-1
600 700 m 1,12,-1
 700 700 l 1,13,-1
 700 100 l 1,14,-1
 600 100 l 1,15,-1
 600 700 l 1,12,-1
EndSplineSet
Validated: 5
EndChar

StartChar: Yacute
Encoding: 221 221 159
Width: 800
GlyphClass: 1
Flags: W
LayerCount: 2
Fore
SplineSet
600 300 m 1,0,-1
 600 500 l 1,1,-1
 700 500 l 1,2,-1
 700 300 l 1,3,-1
 600 300 l 1,0,-1
500 700 m 1,4,-1
 600 700 l 1,5,-1
 600 600 l 1,6,-1
 500 600 l 1,7,-1
 500 700 l 1,4,-1
300 300 m 1,8,-1
 600 300 l 1,9,-1
 600 200 l 1,10,-1
 500 200 l 1,11,-1
 500 0 l 1,12,-1
 400 0 l 1,13,-1
 400 200 l 1,14,-1
 300 200 l 1,15,-1
 300 300 l 1,8,-1
300 500 m 1,16,-1
 300 300 l 1,17,-1
 200 300 l 1,18,-1
 200 500 l 1,19,-1
 300 500 l 1,16,-1
400 500 m 1,20,-1
 400 600 l 1,21,-1
 500 600 l 1,22,-1
 500 500 l 1,23,-1
 400 500 l 1,20,-1
EndSplineSet
Validated: 5
EndChar

StartChar: Thorn
Encoding: 222 222 160
Width: 800
GlyphClass: 1
Flags: W
LayerCount: 2
Fore
SplineSet
600 500 m 1,0,-1
 700 500 l 1,1,-1
 700 200 l 1,2,-1
 600 200 l 1,3,-1
 600 500 l 1,0,-1
100 0 m 1,4,-1
 100 700 l 1,5,-1
 200 700 l 1,6,-1
 200 600 l 1,7,-1
 600 600 l 1,8,-1
 600 500 l 1,9,-1
 200 500 l 1,10,-1
 200 200 l 1,11,-1
 600 200 l 1,12,-1
 600 100 l 1,13,-1
 200 100 l 1,14,-1
 200 0 l 1,15,-1
 100 0 l 1,4,-1
EndSplineSet
Validated: 5
EndChar

StartChar: germandbls
Encoding: 223 223 161
Width: 800
GlyphClass: 1
Flags: W
LayerCount: 2
Fore
SplineSet
500 100 m 1,0,-1
 500 300 l 1,1,-1
 600 300 l 1,2,-1
 600 100 l 1,3,-1
 500 100 l 1,0,-1
600 500 m 1,4,-1
 600 400 l 1,5,-1
 500 400 l 1,6,-1
 500 500 l 1,7,-1
 600 500 l 1,4,-1
100 0 m 1,8,-1
 100 500 l 1,9,-1
 200 500 l 1,10,-1
 200 0 l 1,11,-1
 100 0 l 1,8,-1
300 300 m 1,12,-1
 300 400 l 1,13,-1
 500 400 l 1,14,-1
 500 300 l 1,15,-1
 300 300 l 1,12,-1
500 0 m 1,16,-1
 300 0 l 1,17,-1
 300 100 l 1,18,-1
 500 100 l 1,19,-1
 500 0 l 1,16,-1
500 500 m 1,20,-1
 200 500 l 1,21,-1
 200 600 l 1,22,-1
 500 600 l 1,23,-1
 500 500 l 1,20,-1
EndSplineSet
Validated: 5
EndChar

StartChar: agrave
Encoding: 224 224 162
Width: 800
GlyphClass: 1
Flags: W
LayerCount: 2
Fore
SplineSet
500 100 m 1,0,-1
 500 0 l 1,1,-1
 200 0 l 1,2,-1
 200 100 l 1,3,-1
 500 100 l 1,0,-1
300 500 m 1,4,-1
 300 600 l 1,5,-1
 400 600 l 1,6,-1
 400 500 l 1,7,-1
 500 500 l 1,8,-1
 500 400 l 1,9,-1
 200 400 l 1,10,-1
 200 500 l 1,11,-1
 300 500 l 1,4,-1
100 100 m 1,12,-1
 100 200 l 1,13,-1
 200 200 l 1,14,-1
 200 100 l 1,15,-1
 100 100 l 1,12,-1
200 700 m 1,16,-1
 300 700 l 1,17,-1
 300 600 l 1,18,-1
 200 600 l 1,19,-1
 200 700 l 1,16,-1
500 300 m 1,20,-1
 500 400 l 1,21,-1
 600 400 l 1,22,-1
 600 100 l 1,23,-1
 500 100 l 1,24,-1
 500 200 l 1,25,-1
 200 200 l 1,26,-1
 200 300 l 1,27,-1
 500 300 l 1,20,-1
600 100 m 1,28,-1
 700 100 l 1,29,-1
 700 0 l 1,30,-1
 600 0 l 1,31,-1
 600 100 l 1,28,-1
EndSplineSet
Validated: 5
EndChar

StartChar: aacute
Encoding: 225 225 163
Width: 800
GlyphClass: 1
Flags: W
LayerCount: 2
Fore
SplineSet
500 100 m 1,0,-1
 500 0 l 1,1,-1
 200 0 l 1,2,-1
 200 100 l 1,3,-1
 500 100 l 1,0,-1
400 700 m 1,4,-1
 500 700 l 1,5,-1
 500 600 l 1,6,-1
 400 600 l 1,7,-1
 400 700 l 1,4,-1
300 500 m 1,8,-1
 300 600 l 1,9,-1
 400 600 l 1,10,-1
 400 500 l 1,11,-1
 500 500 l 1,12,-1
 500 400 l 1,13,-1
 200 400 l 1,14,-1
 200 500 l 1,15,-1
 300 500 l 1,8,-1
100 100 m 1,16,-1
 100 200 l 1,17,-1
 200 200 l 1,18,-1
 200 100 l 1,19,-1
 100 100 l 1,16,-1
500 300 m 1,20,-1
 500 400 l 1,21,-1
 600 400 l 1,22,-1
 600 100 l 1,23,-1
 500 100 l 1,24,-1
 500 200 l 1,25,-1
 200 200 l 1,26,-1
 200 300 l 1,27,-1
 500 300 l 1,20,-1
600 100 m 1,28,-1
 700 100 l 1,29,-1
 700 0 l 1,30,-1
 600 0 l 1,31,-1
 600 100 l 1,28,-1
EndSplineSet
Validated: 5
EndChar

StartChar: acircumflex
Encoding: 226 226 164
Width: 800
GlyphClass: 1
Flags: W
LayerCount: 2
Fore
SplineSet
500 100 m 1,0,-1
 500 0 l 1,1,-1
 200 0 l 1,2,-1
 200 100 l 1,3,-1
 500 100 l 1,0,-1
400 700 m 1,4,-1
 400 600 l 1,5,-1
 300 600 l 1,6,-1
 300 700 l 1,7,-1
 400 700 l 1,4,-1
300 500 m 1,8,-1
 400 500 l 1,9,-1
 400 600 l 1,10,-1
 500 600 l 1,11,-1
 500 400 l 1,12,-1
 200 400 l 1,13,-1
 200 600 l 1,14,-1
 300 600 l 1,15,-1
 300 500 l 1,8,-1
100 100 m 1,16,-1
 100 200 l 1,17,-1
 200 200 l 1,18,-1
 200 100 l 1,19,-1
 100 100 l 1,16,-1
500 300 m 1,20,-1
 500 400 l 1,21,-1
 600 400 l 1,22,-1
 600 100 l 1,23,-1
 500 100 l 1,24,-1
 500 200 l 1,25,-1
 200 200 l 1,26,-1
 200 300 l 1,27,-1
 500 300 l 1,20,-1
600 100 m 1,28,-1
 700 100 l 1,29,-1
 700 0 l 1,30,-1
 600 0 l 1,31,-1
 600 100 l 1,28,-1
EndSplineSet
Validated: 5
EndChar

StartChar: atilde
Encoding: 227 227 165
Width: 800
GlyphClass: 1
Flags: W
LayerCount: 2
Fore
SplineSet
500 100 m 1,0,-1
 500 0 l 1,1,-1
 200 0 l 1,2,-1
 200 100 l 1,3,-1
 500 100 l 1,0,-1
600 500 m 1,4,-1
 500 500 l 1,5,-1
 500 400 l 1,6,-1
 200 400 l 1,7,-1
 200 500 l 1,8,-1
 400 500 l 1,9,-1
 400 600 l 1,10,-1
 600 600 l 1,11,-1
 600 500 l 1,4,-1
400 700 m 1,12,-1
 400 600 l 1,13,-1
 200 600 l 1,14,-1
 200 700 l 1,15,-1
 400 700 l 1,12,-1
600 600 m 1,16,-1
 600 700 l 1,17,-1
 700 700 l 1,18,-1
 700 600 l 1,19,-1
 600 600 l 1,16,-1
100 100 m 1,20,-1
 100 200 l 1,21,-1
 200 200 l 1,22,-1
 200 100 l 1,23,-1
 100 100 l 1,20,-1
500 300 m 1,24,-1
 500 400 l 1,25,-1
 600 400 l 1,26,-1
 600 100 l 1,27,-1
 500 100 l 1,28,-1
 500 200 l 1,29,-1
 200 200 l 1,30,-1
 200 300 l 1,31,-1
 500 300 l 1,24,-1
600 100 m 1,32,-1
 700 100 l 1,33,-1
 700 0 l 1,34,-1
 600 0 l 1,35,-1
 600 100 l 1,32,-1
100 600 m 1,36,-1
 200 600 l 1,37,-1
 200 500 l 1,38,-1
 100 500 l 1,39,-1
 100 600 l 1,36,-1
EndSplineSet
Validated: 5
EndChar

StartChar: adieresis
Encoding: 228 228 166
Width: 800
GlyphClass: 1
Flags: W
LayerCount: 2
Fore
SplineSet
500 100 m 1,0,-1
 500 0 l 1,1,-1
 200 0 l 1,2,-1
 200 100 l 1,3,-1
 500 100 l 1,0,-1
600 600 m 1,4,-1
 500 600 l 1,5,-1
 500 700 l 1,6,-1
 600 700 l 1,7,-1
 600 600 l 1,4,-1
100 100 m 1,8,-1
 100 200 l 1,9,-1
 200 200 l 1,10,-1
 200 100 l 1,11,-1
 100 100 l 1,8,-1
200 700 m 1,12,-1
 300 700 l 1,13,-1
 300 600 l 1,14,-1
 200 600 l 1,15,-1
 200 700 l 1,12,-1
500 300 m 1,16,-1
 500 400 l 1,17,-1
 600 400 l 1,18,-1
 600 100 l 1,19,-1
 500 100 l 1,20,-1
 500 200 l 1,21,-1
 200 200 l 1,22,-1
 200 300 l 1,23,-1
 500 300 l 1,16,-1
600 100 m 1,24,-1
 700 100 l 1,25,-1
 700 0 l 1,26,-1
 600 0 l 1,27,-1
 600 100 l 1,24,-1
500 500 m 1,28,-1
 500 400 l 1,29,-1
 200 400 l 1,30,-1
 200 500 l 1,31,-1
 500 500 l 1,28,-1
EndSplineSet
Validated: 5
EndChar

StartChar: aring
Encoding: 229 229 167
Width: 800
GlyphClass: 1
Flags: W
LayerCount: 2
Fore
SplineSet
500 100 m 1,0,-1
 500 0 l 1,1,-1
 200 0 l 1,2,-1
 200 100 l 1,3,-1
 500 100 l 1,0,-1
600 500 m 1,4,-1
 500 500 l 1,5,-1
 500 600 l 1,6,-1
 600 600 l 1,7,-1
 600 500 l 1,4,-1
300 500 m 1,8,-1
 500 500 l 1,9,-1
 500 400 l 1,10,-1
 200 400 l 1,11,-1
 200 600 l 1,12,-1
 300 600 l 1,13,-1
 300 500 l 1,8,-1
100 100 m 1,14,-1
 100 200 l 1,15,-1
 200 200 l 1,16,-1
 200 100 l 1,17,-1
 100 100 l 1,14,-1
300 600 m 1,18,-1
 300 700 l 1,19,-1
 500 700 l 1,20,-1
 500 600 l 1,21,-1
 300 600 l 1,18,-1
500 300 m 1,22,-1
 500 400 l 1,23,-1
 600 400 l 1,24,-1
 600 100 l 1,25,-1
 500 100 l 1,26,-1
 500 200 l 1,27,-1
 200 200 l 1,28,-1
 200 300 l 1,29,-1
 500 300 l 1,22,-1
600 100 m 1,30,-1
 700 100 l 1,31,-1
 700 0 l 1,32,-1
 600 0 l 1,33,-1
 600 100 l 1,30,-1
EndSplineSet
Validated: 5
EndChar

StartChar: ae
Encoding: 230 230 168
Width: 800
GlyphClass: 1
Flags: W
LayerCount: 2
Fore
SplineSet
500 100 m 1,0,-1
 400 100 l 1,1,-1
 400 200 l 1,2,-1
 200 200 l 1,3,-1
 200 300 l 1,4,-1
 400 300 l 1,5,-1
 400 400 l 1,6,-1
 500 400 l 1,7,-1
 500 300 l 1,8,-1
 600 300 l 1,9,-1
 600 400 l 1,10,-1
 700 400 l 1,11,-1
 700 200 l 1,12,-1
 500 200 l 1,13,-1
 500 100 l 1,0,-1
600 500 m 1,14,-1
 600 400 l 1,15,-1
 500 400 l 1,16,-1
 500 500 l 1,17,-1
 600 500 l 1,14,-1
200 0 m 1,18,-1
 200 100 l 1,19,-1
 400 100 l 1,20,-1
 400 0 l 1,21,-1
 200 0 l 1,18,-1
100 100 m 1,22,-1
 100 200 l 1,23,-1
 200 200 l 1,24,-1
 200 100 l 1,25,-1
 100 100 l 1,22,-1
700 0 m 1,26,-1
 500 0 l 1,27,-1
 500 100 l 1,28,-1
 700 100 l 1,29,-1
 700 0 l 1,26,-1
200 400 m 1,30,-1
 200 500 l 1,31,-1
 400 500 l 1,32,-1
 400 400 l 1,33,-1
 200 400 l 1,30,-1
EndSplineSet
Validated: 5
EndChar

StartChar: ccedilla
Encoding: 231 231 169
Width: 800
GlyphClass: 1
Flags: W
LayerCount: 2
Fore
SplineSet
500 100 m 1,0,-1
 500 0 l 1,1,-1
 400 0 l 1,2,-1
 400 100 l 1,3,-1
 200 100 l 1,4,-1
 200 200 l 1,5,-1
 600 200 l 1,6,-1
 600 100 l 1,7,-1
 500 100 l 1,0,-1
600 300 m 1,8,-1
 600 400 l 1,9,-1
 700 400 l 1,10,-1
 700 300 l 1,11,-1
 600 300 l 1,8,-1
600 500 m 1,12,-1
 600 400 l 1,13,-1
 200 400 l 1,14,-1
 200 500 l 1,15,-1
 600 500 l 1,12,-1
200 0 m 1,16,-1
 400 0 l 1,17,-1
 400 -100 l 1,18,-1
 200 -100 l 1,19,-1
 200 0 l 1,16,-1
100 400 m 1,20,-1
 200 400 l 1,21,-1
 200 200 l 1,22,-1
 100 200 l 1,23,-1
 100 400 l 1,20,-1
EndSplineSet
Validated: 5
EndChar

StartChar: egrave
Encoding: 232 232 170
Width: 800
GlyphClass: 1
Flags: W
LayerCount: 2
Fore
SplineSet
700 400 m 1,0,-1
 700 200 l 1,1,-1
 200 200 l 1,2,-1
 200 100 l 1,3,-1
 100 100 l 1,4,-1
 100 400 l 1,5,-1
 200 400 l 1,6,-1
 200 300 l 1,7,-1
 600 300 l 1,8,-1
 600 400 l 1,9,-1
 700 400 l 1,0,-1
600 500 m 1,10,-1
 600 400 l 1,11,-1
 200 400 l 1,12,-1
 200 500 l 1,13,-1
 400 500 l 1,14,-1
 400 600 l 1,15,-1
 500 600 l 1,16,-1
 500 500 l 1,17,-1
 600 500 l 1,10,-1
400 700 m 1,18,-1
 400 600 l 1,19,-1
 300 600 l 1,20,-1
 300 700 l 1,21,-1
 400 700 l 1,18,-1
200 0 m 1,22,-1
 200 100 l 1,23,-1
 600 100 l 1,24,-1
 600 0 l 1,25,-1
 200 0 l 1,22,-1
EndSplineSet
Validated: 5
EndChar

StartChar: eacute
Encoding: 233 233 171
Width: 800
GlyphClass: 1
Flags: W
LayerCount: 2
Fore
SplineSet
500 700 m 1,0,-1
 500 600 l 1,1,-1
 400 600 l 1,2,-1
 400 700 l 1,3,-1
 500 700 l 1,0,-1
700 400 m 1,4,-1
 700 200 l 1,5,-1
 200 200 l 1,6,-1
 200 100 l 1,7,-1
 100 100 l 1,8,-1
 100 400 l 1,9,-1
 200 400 l 1,10,-1
 200 300 l 1,11,-1
 600 300 l 1,12,-1
 600 400 l 1,13,-1
 700 400 l 1,4,-1
600 500 m 1,14,-1
 600 400 l 1,15,-1
 200 400 l 1,16,-1
 200 500 l 1,17,-1
 300 500 l 1,18,-1
 300 600 l 1,19,-1
 400 600 l 1,20,-1
 400 500 l 1,21,-1
 600 500 l 1,14,-1
200 0 m 1,22,-1
 200 100 l 1,23,-1
 600 100 l 1,24,-1
 600 0 l 1,25,-1
 200 0 l 1,22,-1
EndSplineSet
Validated: 5
EndChar

StartChar: ecircumflex
Encoding: 234 234 172
Width: 800
GlyphClass: 1
Flags: W
LayerCount: 2
Fore
SplineSet
500 700 m 1,0,-1
 500 600 l 1,1,-1
 400 600 l 1,2,-1
 400 700 l 1,3,-1
 500 700 l 1,0,-1
700 400 m 1,4,-1
 700 200 l 1,5,-1
 200 200 l 1,6,-1
 200 100 l 1,7,-1
 100 100 l 1,8,-1
 100 400 l 1,9,-1
 200 400 l 1,10,-1
 200 300 l 1,11,-1
 600 300 l 1,12,-1
 600 400 l 1,13,-1
 700 400 l 1,4,-1
200 0 m 1,14,-1
 200 100 l 1,15,-1
 600 100 l 1,16,-1
 600 0 l 1,17,-1
 200 0 l 1,14,-1
300 500 m 1,18,-1
 300 600 l 1,19,-1
 400 600 l 1,20,-1
 400 500 l 1,21,-1
 500 500 l 1,22,-1
 500 600 l 1,23,-1
 600 600 l 1,24,-1
 600 400 l 1,25,-1
 200 400 l 1,26,-1
 200 500 l 1,27,-1
 300 500 l 1,18,-1
EndSplineSet
Validated: 5
EndChar

StartChar: edieresis
Encoding: 235 235 173
Width: 800
GlyphClass: 1
Flags: W
LayerCount: 2
Fore
SplineSet
500 700 m 1,0,-1
 600 700 l 1,1,-1
 600 600 l 1,2,-1
 500 600 l 1,3,-1
 500 700 l 1,0,-1
700 400 m 1,4,-1
 700 200 l 1,5,-1
 200 200 l 1,6,-1
 200 100 l 1,7,-1
 100 100 l 1,8,-1
 100 400 l 1,9,-1
 200 400 l 1,10,-1
 200 300 l 1,11,-1
 600 300 l 1,12,-1
 600 400 l 1,13,-1
 700 400 l 1,4,-1
600 500 m 1,14,-1
 600 400 l 1,15,-1
 200 400 l 1,16,-1
 200 500 l 1,17,-1
 600 500 l 1,14,-1
200 0 m 1,18,-1
 200 100 l 1,19,-1
 600 100 l 1,20,-1
 600 0 l 1,21,-1
 200 0 l 1,18,-1
200 700 m 1,22,-1
 300 700 l 1,23,-1
 300 600 l 1,24,-1
 200 600 l 1,25,-1
 200 700 l 1,22,-1
EndSplineSet
Validated: 5
EndChar

StartChar: igrave
Encoding: 236 236 174
Width: 800
GlyphClass: 1
Flags: W
LayerCount: 2
Fore
SplineSet
500 100 m 1,0,-1
 600 100 l 1,1,-1
 600 0 l 1,2,-1
 300 0 l 1,3,-1
 300 100 l 1,4,-1
 400 100 l 1,5,-1
 400 400 l 1,6,-1
 300 400 l 1,7,-1
 300 500 l 1,8,-1
 500 500 l 1,9,-1
 500 100 l 1,0,-1
500 700 m 1,10,-1
 500 600 l 1,11,-1
 400 600 l 1,12,-1
 400 700 l 1,13,-1
 500 700 l 1,10,-1
600 500 m 1,14,-1
 500 500 l 1,15,-1
 500 600 l 1,16,-1
 600 600 l 1,17,-1
 600 500 l 1,14,-1
EndSplineSet
Validated: 5
EndChar

StartChar: iacute
Encoding: 237 237 175
Width: 800
GlyphClass: 1
Flags: W
LayerCount: 2
Fore
SplineSet
500 100 m 1,0,-1
 600 100 l 1,1,-1
 600 0 l 1,2,-1
 300 0 l 1,3,-1
 300 100 l 1,4,-1
 400 100 l 1,5,-1
 400 400 l 1,6,-1
 300 400 l 1,7,-1
 300 600 l 1,8,-1
 400 600 l 1,9,-1
 400 500 l 1,10,-1
 500 500 l 1,11,-1
 500 100 l 1,0,-1
500 700 m 1,12,-1
 500 600 l 1,13,-1
 400 600 l 1,14,-1
 400 700 l 1,15,-1
 500 700 l 1,12,-1
EndSplineSet
Validated: 5
EndChar

StartChar: icircumflex
Encoding: 238 238 176
Width: 800
GlyphClass: 1
Flags: W
LayerCount: 2
Fore
SplineSet
500 100 m 1,0,-1
 600 100 l 1,1,-1
 600 0 l 1,2,-1
 300 0 l 1,3,-1
 300 100 l 1,4,-1
 400 100 l 1,5,-1
 400 500 l 1,6,-1
 500 500 l 1,7,-1
 500 100 l 1,0,-1
500 700 m 1,8,-1
 500 600 l 1,9,-1
 400 600 l 1,10,-1
 400 700 l 1,11,-1
 500 700 l 1,8,-1
600 500 m 1,12,-1
 500 500 l 1,13,-1
 500 600 l 1,14,-1
 600 600 l 1,15,-1
 600 500 l 1,12,-1
300 500 m 1,16,-1
 300 600 l 1,17,-1
 400 600 l 1,18,-1
 400 500 l 1,19,-1
 300 500 l 1,16,-1
EndSplineSet
Validated: 5
EndChar

StartChar: idieresis
Encoding: 239 239 177
Width: 800
GlyphClass: 1
Flags: W
LayerCount: 2
Fore
SplineSet
500 100 m 1,0,-1
 600 100 l 1,1,-1
 600 0 l 1,2,-1
 300 0 l 1,3,-1
 300 100 l 1,4,-1
 400 100 l 1,5,-1
 400 500 l 1,6,-1
 500 500 l 1,7,-1
 500 100 l 1,0,-1
500 700 m 1,8,-1
 600 700 l 1,9,-1
 600 600 l 1,10,-1
 500 600 l 1,11,-1
 500 700 l 1,8,-1
400 700 m 1,12,-1
 400 600 l 1,13,-1
 300 600 l 1,14,-1
 300 700 l 1,15,-1
 400 700 l 1,12,-1
EndSplineSet
Validated: 1
EndChar

StartChar: eth
Encoding: 240 240 178
Width: 800
GlyphClass: 1
Flags: W
LayerCount: 2
Fore
SplineSet
600 300 m 1,0,-1
 500 300 l 1,1,-1
 500 400 l 1,2,-1
 600 400 l 1,3,-1
 600 500 l 1,4,-1
 700 500 l 1,5,-1
 700 100 l 1,6,-1
 600 100 l 1,7,-1
 600 300 l 1,0,-1
500 700 m 1,8,-1
 500 600 l 1,9,-1
 200 600 l 1,10,-1
 200 700 l 1,11,-1
 500 700 l 1,8,-1
600 500 m 1,12,-1
 500 500 l 1,13,-1
 500 600 l 1,14,-1
 600 600 l 1,15,-1
 600 500 l 1,12,-1
700 600 m 1,16,-1
 600 600 l 1,17,-1
 600 700 l 1,18,-1
 700 700 l 1,19,-1
 700 600 l 1,16,-1
200 0 m 1,20,-1
 200 100 l 1,21,-1
 600 100 l 1,22,-1
 600 0 l 1,23,-1
 200 0 l 1,20,-1
100 100 m 1,24,-1
 100 400 l 1,25,-1
 200 400 l 1,26,-1
 200 100 l 1,27,-1
 100 100 l 1,24,-1
500 500 m 1,28,-1
 500 400 l 1,29,-1
 200 400 l 1,30,-1
 200 500 l 1,31,-1
 500 500 l 1,28,-1
EndSplineSet
Validated: 5
EndChar

StartChar: ntilde
Encoding: 241 241 179
Width: 800
GlyphClass: 1
Flags: W
LayerCount: 2
Fore
SplineSet
700 400 m 1,0,-1
 700 0 l 1,1,-1
 600 0 l 1,2,-1
 600 400 l 1,3,-1
 700 400 l 1,0,-1
100 0 m 1,4,-1
 100 600 l 1,5,-1
 200 600 l 1,6,-1
 200 400 l 1,7,-1
 300 400 l 1,8,-1
 300 300 l 1,9,-1
 200 300 l 1,10,-1
 200 0 l 1,11,-1
 100 0 l 1,4,-1
400 700 m 1,12,-1
 400 600 l 1,13,-1
 200 600 l 1,14,-1
 200 700 l 1,15,-1
 400 700 l 1,12,-1
700 600 m 1,16,-1
 600 600 l 1,17,-1
 600 700 l 1,18,-1
 700 700 l 1,19,-1
 700 600 l 1,16,-1
300 500 m 1,20,-1
 400 500 l 1,21,-1
 400 600 l 1,22,-1
 600 600 l 1,23,-1
 600 400 l 1,24,-1
 300 400 l 1,25,-1
 300 500 l 1,20,-1
EndSplineSet
Validated: 5
EndChar

StartChar: ograve
Encoding: 242 242 180
Width: 800
GlyphClass: 1
Flags: W
LayerCount: 2
Fore
SplineSet
700 400 m 1,0,-1
 700 100 l 1,1,-1
 600 100 l 1,2,-1
 600 400 l 1,3,-1
 700 400 l 1,0,-1
600 500 m 1,4,-1
 600 400 l 1,5,-1
 200 400 l 1,6,-1
 200 500 l 1,7,-1
 400 500 l 1,8,-1
 400 600 l 1,9,-1
 500 600 l 1,10,-1
 500 500 l 1,11,-1
 600 500 l 1,4,-1
400 700 m 1,12,-1
 400 600 l 1,13,-1
 300 600 l 1,14,-1
 300 700 l 1,15,-1
 400 700 l 1,12,-1
200 0 m 1,16,-1
 200 100 l 1,17,-1
 600 100 l 1,18,-1
 600 0 l 1,19,-1
 200 0 l 1,16,-1
100 100 m 1,20,-1
 100 400 l 1,21,-1
 200 400 l 1,22,-1
 200 100 l 1,23,-1
 100 100 l 1,20,-1
EndSplineSet
Validated: 5
EndChar

StartChar: oacute
Encoding: 243 243 181
Width: 800
GlyphClass: 1
Flags: W
LayerCount: 2
Fore
SplineSet
700 400 m 1,0,-1
 700 100 l 1,1,-1
 600 100 l 1,2,-1
 600 400 l 1,3,-1
 700 400 l 1,0,-1
500 700 m 1,4,-1
 500 600 l 1,5,-1
 400 600 l 1,6,-1
 400 700 l 1,7,-1
 500 700 l 1,4,-1
600 500 m 1,8,-1
 600 400 l 1,9,-1
 200 400 l 1,10,-1
 200 500 l 1,11,-1
 300 500 l 1,12,-1
 300 600 l 1,13,-1
 400 600 l 1,14,-1
 400 500 l 1,15,-1
 600 500 l 1,8,-1
200 0 m 1,16,-1
 200 100 l 1,17,-1
 600 100 l 1,18,-1
 600 0 l 1,19,-1
 200 0 l 1,16,-1
100 100 m 1,20,-1
 100 400 l 1,21,-1
 200 400 l 1,22,-1
 200 100 l 1,23,-1
 100 100 l 1,20,-1
EndSplineSet
Validated: 5
EndChar

StartChar: ocircumflex
Encoding: 244 244 182
Width: 800
GlyphClass: 1
Flags: W
LayerCount: 2
Fore
SplineSet
700 400 m 1,0,-1
 700 100 l 1,1,-1
 600 100 l 1,2,-1
 600 400 l 1,3,-1
 700 400 l 1,0,-1
500 700 m 1,4,-1
 500 600 l 1,5,-1
 400 600 l 1,6,-1
 400 700 l 1,7,-1
 500 700 l 1,4,-1
200 0 m 1,8,-1
 200 100 l 1,9,-1
 600 100 l 1,10,-1
 600 0 l 1,11,-1
 200 0 l 1,8,-1
300 500 m 1,12,-1
 300 600 l 1,13,-1
 400 600 l 1,14,-1
 400 500 l 1,15,-1
 500 500 l 1,16,-1
 500 600 l 1,17,-1
 600 600 l 1,18,-1
 600 400 l 1,19,-1
 200 400 l 1,20,-1
 200 500 l 1,21,-1
 300 500 l 1,12,-1
100 100 m 1,22,-1
 100 400 l 1,23,-1
 200 400 l 1,24,-1
 200 100 l 1,25,-1
 100 100 l 1,22,-1
EndSplineSet
Validated: 5
EndChar

StartChar: otilde
Encoding: 245 245 183
Width: 800
GlyphClass: 1
Flags: W
LayerCount: 2
Fore
SplineSet
700 400 m 1,0,-1
 700 100 l 1,1,-1
 600 100 l 1,2,-1
 600 400 l 1,3,-1
 700 400 l 1,0,-1
400 700 m 1,4,-1
 400 600 l 1,5,-1
 200 600 l 1,6,-1
 200 700 l 1,7,-1
 400 700 l 1,4,-1
700 600 m 1,8,-1
 600 600 l 1,9,-1
 600 700 l 1,10,-1
 700 700 l 1,11,-1
 700 600 l 1,8,-1
200 0 m 1,12,-1
 200 100 l 1,13,-1
 600 100 l 1,14,-1
 600 0 l 1,15,-1
 200 0 l 1,12,-1
600 600 m 1,16,-1
 600 400 l 1,17,-1
 200 400 l 1,18,-1
 200 500 l 1,19,-1
 400 500 l 1,20,-1
 400 600 l 1,21,-1
 600 600 l 1,16,-1
100 100 m 1,22,-1
 100 400 l 1,23,-1
 200 400 l 1,24,-1
 200 100 l 1,25,-1
 100 100 l 1,22,-1
100 600 m 1,26,-1
 200 600 l 1,27,-1
 200 500 l 1,28,-1
 100 500 l 1,29,-1
 100 600 l 1,26,-1
EndSplineSet
Validated: 5
EndChar

StartChar: odieresis
Encoding: 246 246 184
Width: 800
GlyphClass: 1
Flags: W
LayerCount: 2
Fore
SplineSet
700 400 m 1,0,-1
 700 100 l 1,1,-1
 600 100 l 1,2,-1
 600 400 l 1,3,-1
 700 400 l 1,0,-1
500 700 m 1,4,-1
 600 700 l 1,5,-1
 600 600 l 1,6,-1
 500 600 l 1,7,-1
 500 700 l 1,4,-1
600 500 m 1,8,-1
 600 400 l 1,9,-1
 200 400 l 1,10,-1
 200 500 l 1,11,-1
 600 500 l 1,8,-1
200 0 m 1,12,-1
 200 100 l 1,13,-1
 600 100 l 1,14,-1
 600 0 l 1,15,-1
 200 0 l 1,12,-1
100 100 m 1,16,-1
 100 400 l 1,17,-1
 200 400 l 1,18,-1
 200 100 l 1,19,-1
 100 100 l 1,16,-1
200 700 m 1,20,-1
 300 700 l 1,21,-1
 300 600 l 1,22,-1
 200 600 l 1,23,-1
 200 700 l 1,20,-1
EndSplineSet
Validated: 5
EndChar

StartChar: divide
Encoding: 247 247 185
Width: 800
GlyphClass: 1
Flags: W
LayerCount: 2
Fore
SplineSet
500 100 m 1,0,-1
 400 100 l 1,1,-1
 400 200 l 1,2,-1
 500 200 l 1,3,-1
 500 100 l 1,0,-1
700 400 m 1,4,-1
 700 300 l 1,5,-1
 200 300 l 1,6,-1
 200 400 l 1,7,-1
 700 400 l 1,4,-1
400 500 m 1,8,-1
 400 600 l 1,9,-1
 500 600 l 1,10,-1
 500 500 l 1,11,-1
 400 500 l 1,8,-1
EndSplineSet
Validated: 1
EndChar

StartChar: oslash
Encoding: 248 248 186
Width: 800
GlyphClass: 1
Flags: W
LayerCount: 2
Fore
SplineSet
0 0 m 1,0,-1
 0 100 l 1,1,-1
 100 100 l 1,2,-1
 100 0 l 1,3,-1
 0 0 l 1,0,-1
700 400 m 1,4,-1
 700 500 l 1,5,-1
 800 500 l 1,6,-1
 800 400 l 1,7,-1
 700 400 l 1,4,-1
600 300 m 1,8,-1
 500 300 l 1,9,-1
 500 400 l 1,10,-1
 200 400 l 1,11,-1
 200 500 l 1,12,-1
 600 500 l 1,13,-1
 600 400 l 1,14,-1
 700 400 l 1,15,-1
 700 100 l 1,16,-1
 600 100 l 1,17,-1
 600 300 l 1,8,-1
300 300 m 1,18,-1
 500 300 l 1,19,-1
 500 200 l 1,20,-1
 300 200 l 1,21,-1
 300 300 l 1,18,-1
200 0 m 1,22,-1
 200 100 l 1,23,-1
 100 100 l 1,24,-1
 100 400 l 1,25,-1
 200 400 l 1,26,-1
 200 200 l 1,27,-1
 300 200 l 1,28,-1
 300 100 l 1,29,-1
 600 100 l 1,30,-1
 600 0 l 1,31,-1
 200 0 l 1,22,-1
EndSplineSet
Validated: 5
EndChar

StartChar: ugrave
Encoding: 249 249 187
Width: 800
GlyphClass: 1
Flags: W
LayerCount: 2
Fore
SplineSet
500 100 m 1,0,-1
 500 0 l 1,1,-1
 200 0 l 1,2,-1
 200 100 l 1,3,-1
 500 100 l 1,0,-1
600 500 m 1,4,-1
 700 500 l 1,5,-1
 700 0 l 1,6,-1
 600 0 l 1,7,-1
 600 100 l 1,8,-1
 500 100 l 1,9,-1
 500 200 l 1,10,-1
 600 200 l 1,11,-1
 600 500 l 1,4,-1
400 700 m 1,12,-1
 400 600 l 1,13,-1
 300 600 l 1,14,-1
 300 700 l 1,15,-1
 400 700 l 1,12,-1
100 100 m 1,16,-1
 100 500 l 1,17,-1
 200 500 l 1,18,-1
 200 100 l 1,19,-1
 100 100 l 1,16,-1
400 500 m 1,20,-1
 400 600 l 1,21,-1
 500 600 l 1,22,-1
 500 500 l 1,23,-1
 400 500 l 1,20,-1
EndSplineSet
Validated: 5
EndChar

StartChar: uacute
Encoding: 250 250 188
Width: 800
GlyphClass: 1
Flags: W
LayerCount: 2
Fore
SplineSet
500 100 m 1,0,-1
 500 0 l 1,1,-1
 200 0 l 1,2,-1
 200 100 l 1,3,-1
 500 100 l 1,0,-1
500 700 m 1,4,-1
 500 600 l 1,5,-1
 400 600 l 1,6,-1
 400 700 l 1,7,-1
 500 700 l 1,4,-1
600 500 m 1,8,-1
 700 500 l 1,9,-1
 700 0 l 1,10,-1
 600 0 l 1,11,-1
 600 100 l 1,12,-1
 500 100 l 1,13,-1
 500 200 l 1,14,-1
 600 200 l 1,15,-1
 600 500 l 1,8,-1
300 500 m 1,16,-1
 300 600 l 1,17,-1
 400 600 l 1,18,-1
 400 500 l 1,19,-1
 300 500 l 1,16,-1
100 100 m 1,20,-1
 100 500 l 1,21,-1
 200 500 l 1,22,-1
 200 100 l 1,23,-1
 100 100 l 1,20,-1
EndSplineSet
Validated: 5
EndChar

StartChar: ucircumflex
Encoding: 251 251 189
Width: 800
GlyphClass: 1
Flags: W
LayerCount: 2
Fore
SplineSet
500 100 m 1,0,-1
 500 0 l 1,1,-1
 200 0 l 1,2,-1
 200 100 l 1,3,-1
 500 100 l 1,0,-1
500 700 m 1,4,-1
 500 600 l 1,5,-1
 400 600 l 1,6,-1
 400 700 l 1,7,-1
 500 700 l 1,4,-1
600 500 m 1,8,-1
 500 500 l 1,9,-1
 500 600 l 1,10,-1
 600 600 l 1,11,-1
 600 500 l 1,8,-1
300 500 m 1,12,-1
 300 600 l 1,13,-1
 400 600 l 1,14,-1
 400 500 l 1,15,-1
 300 500 l 1,12,-1
600 200 m 1,16,-1
 600 500 l 1,17,-1
 700 500 l 1,18,-1
 700 0 l 1,19,-1
 600 0 l 1,20,-1
 600 100 l 1,21,-1
 500 100 l 1,22,-1
 500 200 l 1,23,-1
 600 200 l 1,16,-1
100 100 m 1,24,-1
 100 500 l 1,25,-1
 200 500 l 1,26,-1
 200 100 l 1,27,-1
 100 100 l 1,24,-1
EndSplineSet
Validated: 5
EndChar

StartChar: udieresis
Encoding: 252 252 190
Width: 800
GlyphClass: 1
Flags: W
LayerCount: 2
Fore
SplineSet
500 100 m 1,0,-1
 500 0 l 1,1,-1
 200 0 l 1,2,-1
 200 100 l 1,3,-1
 500 100 l 1,0,-1
500 700 m 1,4,-1
 600 700 l 1,5,-1
 600 600 l 1,6,-1
 500 600 l 1,7,-1
 500 700 l 1,4,-1
600 500 m 1,8,-1
 700 500 l 1,9,-1
 700 0 l 1,10,-1
 600 0 l 1,11,-1
 600 100 l 1,12,-1
 500 100 l 1,13,-1
 500 200 l 1,14,-1
 600 200 l 1,15,-1
 600 500 l 1,8,-1
100 100 m 1,16,-1
 100 500 l 1,17,-1
 200 500 l 1,18,-1
 200 100 l 1,19,-1
 100 100 l 1,16,-1
200 700 m 1,20,-1
 300 700 l 1,21,-1
 300 600 l 1,22,-1
 200 600 l 1,23,-1
 200 700 l 1,20,-1
EndSplineSet
Validated: 5
EndChar

StartChar: yacute
Encoding: 253 253 191
Width: 800
GlyphClass: 1
Flags: W
LayerCount: 2
Fore
SplineSet
500 100 m 1,0,-1
 200 100 l 1,1,-1
 200 200 l 1,2,-1
 500 200 l 1,3,-1
 500 100 l 1,0,-1
500 700 m 1,4,-1
 500 600 l 1,5,-1
 400 600 l 1,6,-1
 400 700 l 1,7,-1
 500 700 l 1,4,-1
600 300 m 1,8,-1
 600 500 l 1,9,-1
 700 500 l 1,10,-1
 700 0 l 1,11,-1
 600 0 l 1,12,-1
 600 200 l 1,13,-1
 500 200 l 1,14,-1
 500 300 l 1,15,-1
 600 300 l 1,8,-1
200 -100 m 1,16,-1
 200 0 l 1,17,-1
 600 0 l 1,18,-1
 600 -100 l 1,19,-1
 200 -100 l 1,16,-1
300 500 m 1,20,-1
 300 600 l 1,21,-1
 400 600 l 1,22,-1
 400 500 l 1,23,-1
 300 500 l 1,20,-1
100 200 m 1,24,-1
 100 500 l 1,25,-1
 200 500 l 1,26,-1
 200 200 l 1,27,-1
 100 200 l 1,24,-1
EndSplineSet
Validated: 5
EndChar

StartChar: thorn
Encoding: 254 254 192
Width: 800
GlyphClass: 1
Flags: W
LayerCount: 2
Fore
SplineSet
700 400 m 1,0,-1
 700 200 l 1,1,-1
 600 200 l 1,2,-1
 600 400 l 1,3,-1
 700 400 l 1,0,-1
100 -100 m 1,4,-1
 100 700 l 1,5,-1
 200 700 l 1,6,-1
 200 400 l 1,7,-1
 300 400 l 1,8,-1
 300 200 l 1,9,-1
 200 200 l 1,10,-1
 200 -100 l 1,11,-1
 100 -100 l 1,4,-1
600 500 m 1,12,-1
 600 400 l 1,13,-1
 300 400 l 1,14,-1
 300 500 l 1,15,-1
 600 500 l 1,12,-1
600 200 m 1,16,-1
 600 100 l 1,17,-1
 300 100 l 1,18,-1
 300 200 l 1,19,-1
 600 200 l 1,16,-1
EndSplineSet
Validated: 5
EndChar

StartChar: ydieresis
Encoding: 255 255 193
Width: 800
GlyphClass: 1
Flags: W
LayerCount: 2
Fore
SplineSet
500 100 m 1,0,-1
 200 100 l 1,1,-1
 200 200 l 1,2,-1
 500 200 l 1,3,-1
 500 100 l 1,0,-1
600 300 m 1,4,-1
 600 500 l 1,5,-1
 700 500 l 1,6,-1
 700 0 l 1,7,-1
 600 0 l 1,8,-1
 600 200 l 1,9,-1
 500 200 l 1,10,-1
 500 300 l 1,11,-1
 600 300 l 1,4,-1
200 0 m 1,12,-1
 600 0 l 1,13,-1
 600 -100 l 1,14,-1
 200 -100 l 1,15,-1
 200 0 l 1,12,-1
600 600 m 1,16,-1
 500 600 l 1,17,-1
 500 700 l 1,18,-1
 600 700 l 1,19,-1
 600 600 l 1,16,-1
200 700 m 1,20,-1
 300 700 l 1,21,-1
 300 600 l 1,22,-1
 200 600 l 1,23,-1
 200 700 l 1,20,-1
200 200 m 1,24,-1
 100 200 l 1,25,-1
 100 500 l 1,26,-1
 200 500 l 1,27,-1
 200 200 l 1,24,-1
EndSplineSet
Validated: 5
EndChar

StartChar: dotlessi
Encoding: 305 305 194
Width: 800
GlyphClass: 1
Flags: W
LayerCount: 2
Fore
SplineSet
500 100 m 1,0,-1
 600 100 l 1,1,-1
 600 0 l 1,2,-1
 300 0 l 1,3,-1
 300 100 l 1,4,-1
 400 100 l 1,5,-1
 400 400 l 1,6,-1
 300 400 l 1,7,-1
 300 500 l 1,8,-1
 500 500 l 1,9,-1
 500 100 l 1,0,-1
EndSplineSet
Validated: 1
EndChar

StartChar: IJ
Encoding: 306 306 195
Width: 800
GlyphClass: 1
Flags: W
LayerCount: 2
Fore
SplineSet
500 700 m 1,0,-1
 800 700 l 1,1,-1
 800 600 l 1,2,-1
 700 600 l 1,3,-1
 700 100 l 1,4,-1
 600 100 l 1,5,-1
 600 600 l 1,6,-1
 500 600 l 1,7,-1
 500 700 l 1,0,-1
100 0 m 1,8,-1
 100 100 l 1,9,-1
 200 100 l 1,10,-1
 200 600 l 1,11,-1
 100 600 l 1,12,-1
 100 700 l 1,13,-1
 400 700 l 1,14,-1
 400 600 l 1,15,-1
 300 600 l 1,16,-1
 300 100 l 1,17,-1
 600 100 l 1,18,-1
 600 0 l 1,19,-1
 100 0 l 1,8,-1
EndSplineSet
Validated: 5
EndChar

StartChar: ij
Encoding: 307 307 196
Width: 800
GlyphClass: 1
Flags: W
LayerCount: 2
Fore
SplineSet
300 500 m 1,0,-1
 300 100 l 1,1,-1
 400 100 l 1,2,-1
 400 0 l 1,3,-1
 100 0 l 1,4,-1
 100 100 l 1,5,-1
 200 100 l 1,6,-1
 200 400 l 1,7,-1
 100 400 l 1,8,-1
 100 500 l 1,9,-1
 300 500 l 1,0,-1
600 600 m 1,10,-1
 600 700 l 1,11,-1
 700 700 l 1,12,-1
 700 600 l 1,13,-1
 600 600 l 1,10,-1
400 0 m 1,14,-1
 600 0 l 1,15,-1
 600 -100 l 1,16,-1
 400 -100 l 1,17,-1
 400 0 l 1,14,-1
200 700 m 1,18,-1
 300 700 l 1,19,-1
 300 600 l 1,20,-1
 200 600 l 1,21,-1
 200 700 l 1,18,-1
700 0 m 1,22,-1
 600 0 l 1,23,-1
 600 400 l 1,24,-1
 500 400 l 1,25,-1
 500 500 l 1,26,-1
 700 500 l 1,27,-1
 700 0 l 1,22,-1
EndSplineSet
Validated: 5
EndChar

StartChar: Lslash
Encoding: 321 321 197
Width: 800
GlyphClass: 1
Flags: W
LayerCount: 2
Fore
SplineSet
200 0 m 1,0,-1
 200 300 l 1,1,-1
 100 300 l 1,2,-1
 100 400 l 1,3,-1
 200 400 l 1,4,-1
 200 700 l 1,5,-1
 300 700 l 1,6,-1
 300 500 l 1,7,-1
 400 500 l 1,8,-1
 400 400 l 1,9,-1
 300 400 l 1,10,-1
 300 100 l 1,11,-1
 700 100 l 1,12,-1
 700 0 l 1,13,-1
 200 0 l 1,0,-1
EndSplineSet
Validated: 1
EndChar

StartChar: lslash
Encoding: 322 322 198
Width: 800
GlyphClass: 1
Flags: W
LayerCount: 2
Fore
SplineSet
500 100 m 1,0,-1
 600 100 l 1,1,-1
 600 0 l 1,2,-1
 300 0 l 1,3,-1
 300 100 l 1,4,-1
 400 100 l 1,5,-1
 400 300 l 1,6,-1
 300 300 l 1,7,-1
 300 400 l 1,8,-1
 400 400 l 1,9,-1
 400 600 l 1,10,-1
 300 600 l 1,11,-1
 300 700 l 1,12,-1
 500 700 l 1,13,-1
 500 500 l 1,14,-1
 600 500 l 1,15,-1
 600 400 l 1,16,-1
 500 400 l 1,17,-1
 500 100 l 1,0,-1
EndSplineSet
Validated: 1
EndChar

StartChar: Eng
Encoding: 330 330 199
Width: 800
GlyphClass: 1
Flags: W
LayerCount: 2
Fore
SplineSet
600 300 m 1,0,-1
 600 700 l 1,1,-1
 700 700 l 1,2,-1
 700 0 l 1,3,-1
 600 0 l 1,4,-1
 600 200 l 1,5,-1
 500 200 l 1,6,-1
 500 300 l 1,7,-1
 600 300 l 1,0,-1
200 0 m 1,8,-1
 600 0 l 1,9,-1
 600 -100 l 1,10,-1
 200 -100 l 1,11,-1
 200 0 l 1,8,-1
300 500 m 1,12,-1
 400 500 l 1,13,-1
 400 400 l 1,14,-1
 300 400 l 1,15,-1
 300 500 l 1,12,-1
100 100 m 1,16,-1
 100 700 l 1,17,-1
 200 700 l 1,18,-1
 200 600 l 1,19,-1
 300 600 l 1,20,-1
 300 500 l 1,21,-1
 200 500 l 1,22,-1
 200 100 l 1,23,-1
 100 100 l 1,16,-1
500 300 m 1,24,-1
 400 300 l 1,25,-1
 400 400 l 1,26,-1
 500 400 l 1,27,-1
 500 300 l 1,24,-1
EndSplineSet
Validated: 5
EndChar

StartChar: eng
Encoding: 331 331 200
Width: 800
GlyphClass: 1
Flags: W
LayerCount: 2
Fore
SplineSet
700 400 m 1,0,-1
 700 0 l 1,1,-1
 600 0 l 1,2,-1
 600 400 l 1,3,-1
 700 400 l 1,0,-1
600 500 m 1,4,-1
 600 400 l 1,5,-1
 300 400 l 1,6,-1
 300 500 l 1,7,-1
 600 500 l 1,4,-1
300 300 m 1,8,-1
 200 300 l 1,9,-1
 200 100 l 1,10,-1
 100 100 l 1,11,-1
 100 500 l 1,12,-1
 200 500 l 1,13,-1
 200 400 l 1,14,-1
 300 400 l 1,15,-1
 300 300 l 1,8,-1
200 0 m 1,16,-1
 600 0 l 1,17,-1
 600 -100 l 1,18,-1
 200 -100 l 1,19,-1
 200 0 l 1,16,-1
EndSplineSet
Validated: 5
EndChar

StartChar: OE
Encoding: 338 338 201
Width: 800
GlyphClass: 1
Flags: W
LayerCount: 2
Fore
SplineSet
500 100 m 1,0,-1
 700 100 l 1,1,-1
 700 0 l 1,2,-1
 300 0 l 1,3,-1
 300 100 l 1,4,-1
 400 100 l 1,5,-1
 400 600 l 1,6,-1
 300 600 l 1,7,-1
 300 700 l 1,8,-1
 700 700 l 1,9,-1
 700 600 l 1,10,-1
 500 600 l 1,11,-1
 500 400 l 1,12,-1
 600 400 l 1,13,-1
 600 300 l 1,14,-1
 500 300 l 1,15,-1
 500 100 l 1,0,-1
300 500 m 1,16,-1
 200 500 l 1,17,-1
 200 600 l 1,18,-1
 300 600 l 1,19,-1
 300 500 l 1,16,-1
200 100 m 1,20,-1
 200 200 l 1,21,-1
 300 200 l 1,22,-1
 300 100 l 1,23,-1
 200 100 l 1,20,-1
100 200 m 1,24,-1
 100 500 l 1,25,-1
 200 500 l 1,26,-1
 200 200 l 1,27,-1
 100 200 l 1,24,-1
EndSplineSet
Validated: 5
EndChar

StartChar: oe
Encoding: 339 339 202
Width: 800
GlyphClass: 1
Flags: W
LayerCount: 2
Fore
SplineSet
500 100 m 1,0,-1
 400 100 l 1,1,-1
 400 400 l 1,2,-1
 500 400 l 1,3,-1
 500 300 l 1,4,-1
 600 300 l 1,5,-1
 600 400 l 1,6,-1
 700 400 l 1,7,-1
 700 200 l 1,8,-1
 500 200 l 1,9,-1
 500 100 l 1,0,-1
400 100 m 1,10,-1
 400 0 l 1,11,-1
 200 0 l 1,12,-1
 200 100 l 1,13,-1
 400 100 l 1,10,-1
600 500 m 1,14,-1
 600 400 l 1,15,-1
 500 400 l 1,16,-1
 500 500 l 1,17,-1
 600 500 l 1,14,-1
500 0 m 1,18,-1
 500 100 l 1,19,-1
 700 100 l 1,20,-1
 700 0 l 1,21,-1
 500 0 l 1,18,-1
100 100 m 1,22,-1
 100 400 l 1,23,-1
 200 400 l 1,24,-1
 200 100 l 1,25,-1
 100 100 l 1,22,-1
400 500 m 1,26,-1
 400 400 l 1,27,-1
 200 400 l 1,28,-1
 200 500 l 1,29,-1
 400 500 l 1,26,-1
EndSplineSet
Validated: 5
EndChar

StartChar: Scaron
Encoding: 352 352 203
Width: 800
GlyphClass: 1
Flags: W
LayerCount: 2
Fore
SplineSet
700 400 m 1,0,-1
 200 400 l 1,1,-1
 200 500 l 1,2,-1
 400 500 l 1,3,-1
 400 600 l 1,4,-1
 500 600 l 1,5,-1
 500 500 l 1,6,-1
 700 500 l 1,7,-1
 700 400 l 1,0,-1
600 300 m 1,8,-1
 600 200 l 1,9,-1
 200 200 l 1,10,-1
 200 300 l 1,11,-1
 600 300 l 1,8,-1
700 200 m 1,12,-1
 700 100 l 1,13,-1
 600 100 l 1,14,-1
 600 200 l 1,15,-1
 700 200 l 1,12,-1
400 700 m 1,16,-1
 400 600 l 1,17,-1
 300 600 l 1,18,-1
 300 700 l 1,19,-1
 400 700 l 1,16,-1
600 600 m 1,20,-1
 500 600 l 1,21,-1
 500 700 l 1,22,-1
 600 700 l 1,23,-1
 600 600 l 1,20,-1
100 100 m 1,24,-1
 600 100 l 1,25,-1
 600 0 l 1,26,-1
 100 0 l 1,27,-1
 100 100 l 1,24,-1
200 400 m 1,28,-1
 200 300 l 1,29,-1
 100 300 l 1,30,-1
 100 400 l 1,31,-1
 200 400 l 1,28,-1
EndSplineSet
Validated: 5
EndChar

StartChar: scaron
Encoding: 353 353 204
Width: 800
GlyphClass: 1
Flags: W
LayerCount: 2
Fore
SplineSet
700 400 m 1,0,-1
 200 400 l 1,1,-1
 200 500 l 1,2,-1
 400 500 l 1,3,-1
 400 600 l 1,4,-1
 500 600 l 1,5,-1
 500 500 l 1,6,-1
 700 500 l 1,7,-1
 700 400 l 1,0,-1
600 300 m 1,8,-1
 600 200 l 1,9,-1
 200 200 l 1,10,-1
 200 300 l 1,11,-1
 600 300 l 1,8,-1
700 200 m 1,12,-1
 700 100 l 1,13,-1
 600 100 l 1,14,-1
 600 200 l 1,15,-1
 700 200 l 1,12,-1
400 700 m 1,16,-1
 400 600 l 1,17,-1
 300 600 l 1,18,-1
 300 700 l 1,19,-1
 400 700 l 1,16,-1
600 600 m 1,20,-1
 500 600 l 1,21,-1
 500 700 l 1,22,-1
 600 700 l 1,23,-1
 600 600 l 1,20,-1
100 100 m 1,24,-1
 600 100 l 1,25,-1
 600 0 l 1,26,-1
 100 0 l 1,27,-1
 100 100 l 1,24,-1
200 400 m 1,28,-1
 200 300 l 1,29,-1
 100 300 l 1,30,-1
 100 400 l 1,31,-1
 200 400 l 1,28,-1
EndSplineSet
Validated: 5
EndChar

StartChar: Ydieresis
Encoding: 376 376 205
Width: 800
GlyphClass: 1
Flags: W
LayerCount: 2
Fore
SplineSet
600 300 m 1,0,-1
 600 500 l 1,1,-1
 700 500 l 1,2,-1
 700 300 l 1,3,-1
 600 300 l 1,0,-1
500 700 m 1,4,-1
 600 700 l 1,5,-1
 600 600 l 1,6,-1
 500 600 l 1,7,-1
 500 700 l 1,4,-1
400 700 m 1,8,-1
 400 600 l 1,9,-1
 300 600 l 1,10,-1
 300 700 l 1,11,-1
 400 700 l 1,8,-1
300 300 m 1,12,-1
 600 300 l 1,13,-1
 600 200 l 1,14,-1
 500 200 l 1,15,-1
 500 0 l 1,16,-1
 400 0 l 1,17,-1
 400 200 l 1,18,-1
 300 200 l 1,19,-1
 300 300 l 1,12,-1
300 500 m 1,20,-1
 300 300 l 1,21,-1
 200 300 l 1,22,-1
 200 500 l 1,23,-1
 300 500 l 1,20,-1
EndSplineSet
Validated: 5
EndChar

StartChar: Zcaron
Encoding: 381 381 206
Width: 800
GlyphClass: 1
Flags: W
LayerCount: 2
Fore
SplineSet
700 400 m 1,0,-1
 600 400 l 1,1,-1
 600 300 l 1,2,-1
 500 300 l 1,3,-1
 500 400 l 1,4,-1
 100 400 l 1,5,-1
 100 500 l 1,6,-1
 400 500 l 1,7,-1
 400 600 l 1,8,-1
 500 600 l 1,9,-1
 500 500 l 1,10,-1
 700 500 l 1,11,-1
 700 400 l 1,0,-1
400 700 m 1,12,-1
 400 600 l 1,13,-1
 300 600 l 1,14,-1
 300 700 l 1,15,-1
 400 700 l 1,12,-1
300 300 m 1,16,-1
 500 300 l 1,17,-1
 500 200 l 1,18,-1
 300 200 l 1,19,-1
 300 300 l 1,16,-1
600 600 m 1,20,-1
 500 600 l 1,21,-1
 500 700 l 1,22,-1
 600 700 l 1,23,-1
 600 600 l 1,20,-1
100 100 m 1,24,-1
 200 100 l 1,25,-1
 200 200 l 1,26,-1
 300 200 l 1,27,-1
 300 100 l 1,28,-1
 700 100 l 1,29,-1
 700 0 l 1,30,-1
 100 0 l 1,31,-1
 100 100 l 1,24,-1
EndSplineSet
Validated: 5
EndChar

StartChar: zcaron
Encoding: 382 382 207
Width: 800
GlyphClass: 1
Flags: W
LayerCount: 2
Fore
SplineSet
700 400 m 1,0,-1
 600 400 l 1,1,-1
 600 300 l 1,2,-1
 500 300 l 1,3,-1
 500 400 l 1,4,-1
 100 400 l 1,5,-1
 100 500 l 1,6,-1
 400 500 l 1,7,-1
 400 600 l 1,8,-1
 500 600 l 1,9,-1
 500 500 l 1,10,-1
 700 500 l 1,11,-1
 700 400 l 1,0,-1
400 700 m 1,12,-1
 400 600 l 1,13,-1
 300 600 l 1,14,-1
 300 700 l 1,15,-1
 400 700 l 1,12,-1
300 300 m 1,16,-1
 500 300 l 1,17,-1
 500 200 l 1,18,-1
 300 200 l 1,19,-1
 300 300 l 1,16,-1
600 600 m 1,20,-1
 500 600 l 1,21,-1
 500 700 l 1,22,-1
 600 700 l 1,23,-1
 600 600 l 1,20,-1
100 100 m 1,24,-1
 200 100 l 1,25,-1
 200 200 l 1,26,-1
 300 200 l 1,27,-1
 300 100 l 1,28,-1
 700 100 l 1,29,-1
 700 0 l 1,30,-1
 100 0 l 1,31,-1
 100 100 l 1,24,-1
EndSplineSet
Validated: 5
EndChar

StartChar: longs
Encoding: 383 383 208
Width: 800
GlyphClass: 1
Flags: W
LayerCount: 2
Fore
SplineSet
600 500 m 1,0,-1
 600 600 l 1,1,-1
 700 600 l 1,2,-1
 700 500 l 1,3,-1
 600 500 l 1,0,-1
400 700 m 1,4,-1
 600 700 l 1,5,-1
 600 600 l 1,6,-1
 400 600 l 1,7,-1
 400 700 l 1,4,-1
300 300 m 1,8,-1
 100 300 l 1,9,-1
 100 400 l 1,10,-1
 300 400 l 1,11,-1
 300 600 l 1,12,-1
 400 600 l 1,13,-1
 400 0 l 1,14,-1
 300 0 l 1,15,-1
 300 300 l 1,8,-1
EndSplineSet
Validated: 5
EndChar

StartChar: florin
Encoding: 402 402 209
Width: 800
GlyphClass: 1
Flags: W
LayerCount: 2
Fore
SplineSet
700 400 m 1,0,-1
 700 300 l 1,1,-1
 500 300 l 1,2,-1
 500 0 l 1,3,-1
 400 0 l 1,4,-1
 400 300 l 1,5,-1
 200 300 l 1,6,-1
 200 400 l 1,7,-1
 400 400 l 1,8,-1
 400 600 l 1,9,-1
 500 600 l 1,10,-1
 500 400 l 1,11,-1
 700 400 l 1,0,-1
500 700 m 1,12,-1
 700 700 l 1,13,-1
 700 600 l 1,14,-1
 500 600 l 1,15,-1
 500 700 l 1,12,-1
200 0 m 1,16,-1
 400 0 l 1,17,-1
 400 -100 l 1,18,-1
 200 -100 l 1,19,-1
 200 0 l 1,16,-1
EndSplineSet
Validated: 5
EndChar

StartChar: uni0237
Encoding: 567 567 210
Width: 800
GlyphClass: 1
Flags: W
LayerCount: 2
Fore
SplineSet
400 500 m 1,0,-1
 600 500 l 1,1,-1
 600 0 l 1,2,-1
 500 0 l 1,3,-1
 500 400 l 1,4,-1
 400 400 l 1,5,-1
 400 500 l 1,0,-1
100 0 m 1,6,-1
 100 100 l 1,7,-1
 200 100 l 1,8,-1
 200 0 l 1,9,-1
 100 0 l 1,6,-1
200 -100 m 1,10,-1
 200 0 l 1,11,-1
 500 0 l 1,12,-1
 500 -100 l 1,13,-1
 200 -100 l 1,10,-1
EndSplineSet
Validated: 5
EndChar

StartChar: circumflex
Encoding: 710 710 211
Width: 800
GlyphClass: 1
Flags: W
LayerCount: 2
Fore
SplineSet
400 500 m 1,0,-1
 300 500 l 1,1,-1
 300 600 l 1,2,-1
 400 600 l 1,3,-1
 400 500 l 1,0,-1
500 700 m 1,4,-1
 500 600 l 1,5,-1
 400 600 l 1,6,-1
 400 700 l 1,7,-1
 500 700 l 1,4,-1
600 500 m 1,8,-1
 500 500 l 1,9,-1
 500 600 l 1,10,-1
 600 600 l 1,11,-1
 600 500 l 1,8,-1
EndSplineSet
Validated: 5
EndChar

StartChar: caron
Encoding: 711 711 212
Width: 800
GlyphClass: 1
Flags: W
LayerCount: 2
Fore
SplineSet
600 700 m 1,0,-1
 600 600 l 1,1,-1
 500 600 l 1,2,-1
 500 700 l 1,3,-1
 600 700 l 1,0,-1
400 500 m 1,4,-1
 400 600 l 1,5,-1
 500 600 l 1,6,-1
 500 500 l 1,7,-1
 400 500 l 1,4,-1
400 700 m 1,8,-1
 400 600 l 1,9,-1
 300 600 l 1,10,-1
 300 700 l 1,11,-1
 400 700 l 1,8,-1
EndSplineSet
Validated: 5
EndChar

StartChar: uni02CA
Encoding: 714 714 213
Width: 800
GlyphClass: 1
Flags: W
LayerCount: 2
Fore
SplineSet
400 500 m 1,0,-1
 300 500 l 1,1,-1
 300 600 l 1,2,-1
 400 600 l 1,3,-1
 400 500 l 1,0,-1
500 700 m 1,4,-1
 500 600 l 1,5,-1
 400 600 l 1,6,-1
 400 700 l 1,7,-1
 500 700 l 1,4,-1
200 400 m 1,8,-1
 200 500 l 1,9,-1
 300 500 l 1,10,-1
 300 400 l 1,11,-1
 200 400 l 1,8,-1
EndSplineSet
Validated: 5
EndChar

StartChar: uni02CB
Encoding: 715 715 214
Width: 800
GlyphClass: 1
Flags: W
LayerCount: 2
Fore
SplineSet
400 500 m 1,0,-1
 400 600 l 1,1,-1
 500 600 l 1,2,-1
 500 500 l 1,3,-1
 400 500 l 1,0,-1
600 500 m 1,4,-1
 600 400 l 1,5,-1
 500 400 l 1,6,-1
 500 500 l 1,7,-1
 600 500 l 1,4,-1
400 700 m 1,8,-1
 400 600 l 1,9,-1
 300 600 l 1,10,-1
 300 700 l 1,11,-1
 400 700 l 1,8,-1
EndSplineSet
Validated: 5
EndChar

StartChar: breve
Encoding: 728 728 215
Width: 800
GlyphClass: 1
Flags: W
LayerCount: 2
Fore
SplineSet
600 700 m 1,0,-1
 700 700 l 1,1,-1
 700 600 l 1,2,-1
 600 600 l 1,3,-1
 600 700 l 1,0,-1
600 500 m 1,4,-1
 200 500 l 1,5,-1
 200 600 l 1,6,-1
 600 600 l 1,7,-1
 600 500 l 1,4,-1
100 600 m 1,8,-1
 100 700 l 1,9,-1
 200 700 l 1,10,-1
 200 600 l 1,11,-1
 100 600 l 1,8,-1
EndSplineSet
Validated: 5
EndChar

StartChar: dotaccent
Encoding: 729 729 216
Width: 800
GlyphClass: 1
Flags: W
LayerCount: 2
Fore
SplineSet
500 700 m 1,0,-1
 500 500 l 1,1,-1
 300 500 l 1,2,-1
 300 700 l 1,3,-1
 500 700 l 1,0,-1
EndSplineSet
Validated: 1
EndChar

StartChar: ring
Encoding: 730 730 217
Width: 800
GlyphClass: 1
Flags: W
LayerCount: 2
Fore
SplineSet
500 700 m 1,0,-1
 500 600 l 1,1,-1
 300 600 l 1,2,-1
 300 700 l 1,3,-1
 500 700 l 1,0,-1
600 500 m 1,4,-1
 500 500 l 1,5,-1
 500 600 l 1,6,-1
 600 600 l 1,7,-1
 600 500 l 1,4,-1
500 500 m 1,8,-1
 500 400 l 1,9,-1
 300 400 l 1,10,-1
 300 500 l 1,11,-1
 500 500 l 1,8,-1
200 600 m 1,12,-1
 300 600 l 1,13,-1
 300 500 l 1,14,-1
 200 500 l 1,15,-1
 200 600 l 1,12,-1
EndSplineSet
Validated: 5
EndChar

StartChar: ogonek
Encoding: 731 731 218
Width: 800
GlyphClass: 1
Flags: W
LayerCount: 2
Fore
SplineSet
400 100 m 1,0,-1
 400 0 l 1,1,-1
 300 0 l 1,2,-1
 300 100 l 1,3,-1
 400 100 l 1,0,-1
600 -100 m 1,4,-1
 400 -100 l 1,5,-1
 400 0 l 1,6,-1
 600 0 l 1,7,-1
 600 -100 l 1,4,-1
EndSplineSet
Validated: 5
EndChar

StartChar: tilde
Encoding: 732 732 219
Width: 800
GlyphClass: 1
Flags: W
LayerCount: 2
Fore
SplineSet
600 500 m 1,0,-1
 400 500 l 1,1,-1
 400 600 l 1,2,-1
 600 600 l 1,3,-1
 600 500 l 1,0,-1
400 700 m 1,4,-1
 400 600 l 1,5,-1
 200 600 l 1,6,-1
 200 700 l 1,7,-1
 400 700 l 1,4,-1
700 600 m 1,8,-1
 600 600 l 1,9,-1
 600 700 l 1,10,-1
 700 700 l 1,11,-1
 700 600 l 1,8,-1
100 600 m 1,12,-1
 200 600 l 1,13,-1
 200 500 l 1,14,-1
 100 500 l 1,15,-1
 100 600 l 1,12,-1
EndSplineSet
Validated: 5
EndChar

StartChar: hungarumlaut
Encoding: 733 733 220
Width: 800
GlyphClass: 1
Flags: W
LayerCount: 2
Fore
SplineSet
600 500 m 1,0,-1
 500 500 l 1,1,-1
 500 600 l 1,2,-1
 600 600 l 1,3,-1
 600 500 l 1,0,-1
400 700 m 1,4,-1
 400 600 l 1,5,-1
 300 600 l 1,6,-1
 300 700 l 1,7,-1
 400 700 l 1,4,-1
700 600 m 1,8,-1
 600 600 l 1,9,-1
 600 700 l 1,10,-1
 700 700 l 1,11,-1
 700 600 l 1,8,-1
300 500 m 1,12,-1
 200 500 l 1,13,-1
 200 600 l 1,14,-1
 300 600 l 1,15,-1
 300 500 l 1,12,-1
EndSplineSet
Validated: 5
EndChar

StartChar: Omega
Encoding: 937 937 221
Width: 800
GlyphClass: 1
Flags: W
LayerCount: 2
Fore
SplineSet
600 300 m 1,0,-1
 700 300 l 1,1,-1
 700 200 l 1,2,-1
 600 200 l 1,3,-1
 600 300 l 1,0,-1
700 200 m 1,4,-1
 800 200 l 1,5,-1
 800 0 l 1,6,-1
 500 0 l 1,7,-1
 500 200 l 1,8,-1
 600 200 l 1,9,-1
 600 100 l 1,10,-1
 700 100 l 1,11,-1
 700 200 l 1,4,-1
300 300 m 1,12,-1
 300 200 l 1,13,-1
 200 200 l 1,14,-1
 200 300 l 1,15,-1
 300 300 l 1,12,-1
400 0 m 1,16,-1
 100 0 l 1,17,-1
 100 200 l 1,18,-1
 200 200 l 1,19,-1
 200 100 l 1,20,-1
 300 100 l 1,21,-1
 300 200 l 1,22,-1
 400 200 l 1,23,-1
 400 0 l 1,16,-1
200 700 m 1,24,-1
 700 700 l 1,25,-1
 700 600 l 1,26,-1
 200 600 l 1,27,-1
 200 700 l 1,24,-1
100 600 m 1,28,-1
 200 600 l 1,29,-1
 200 300 l 1,30,-1
 100 300 l 1,31,-1
 100 600 l 1,28,-1
700 600 m 1,32,-1
 800 600 l 1,33,-1
 800 300 l 1,34,-1
 700 300 l 1,35,-1
 700 600 l 1,32,-1
EndSplineSet
Validated: 2097157
EndChar

StartChar: mu
Encoding: 956 956 222
Width: 800
GlyphClass: 1
Flags: W
LayerCount: 2
Fore
SplineSet
500 100 m 1,0,-1
 500 0 l 1,1,-1
 200 0 l 1,2,-1
 200 100 l 1,3,-1
 500 100 l 1,0,-1
0 -100 m 1,4,-1
 0 100 l 1,5,-1
 100 100 l 1,6,-1
 100 -100 l 1,7,-1
 0 -100 l 1,4,-1
600 500 m 1,8,-1
 700 500 l 1,9,-1
 700 0 l 1,10,-1
 600 0 l 1,11,-1
 600 100 l 1,12,-1
 500 100 l 1,13,-1
 500 200 l 1,14,-1
 600 200 l 1,15,-1
 600 500 l 1,8,-1
100 100 m 1,16,-1
 100 500 l 1,17,-1
 200 500 l 1,18,-1
 200 100 l 1,19,-1
 100 100 l 1,16,-1
EndSplineSet
Validated: 2097157
EndChar

StartChar: pi
Encoding: 960 960 223
Width: 800
GlyphClass: 1
Flags: W
LayerCount: 2
Fore
SplineSet
600 300 m 1,0,-1
 600 0 l 1,1,-1
 500 0 l 1,2,-1
 500 300 l 1,3,-1
 400 300 l 1,4,-1
 400 0 l 1,5,-1
 300 0 l 1,6,-1
 300 300 l 1,7,-1
 200 300 l 1,8,-1
 200 400 l 1,9,-1
 700 400 l 1,10,-1
 700 300 l 1,11,-1
 600 300 l 1,0,-1
700 400 m 1,12,-1
 700 500 l 1,13,-1
 800 500 l 1,14,-1
 800 400 l 1,15,-1
 700 400 l 1,12,-1
100 200 m 1,16,-1
 100 300 l 1,17,-1
 200 300 l 1,18,-1
 200 200 l 1,19,-1
 100 200 l 1,16,-1
EndSplineSet
Validated: 5
EndChar

StartChar: uni2010
Encoding: 8208 8208 224
Width: 800
GlyphClass: 1
Flags: W
LayerCount: 2
Fore
SplineSet
700 400 m 1,0,-1
 700 300 l 1,1,-1
 100 300 l 1,2,-1
 100 400 l 1,3,-1
 700 400 l 1,0,-1
EndSplineSet
Validated: 1
EndChar

StartChar: uni2011
Encoding: 8209 8209 225
Width: 800
GlyphClass: 1
Flags: W
LayerCount: 2
Fore
SplineSet
700 400 m 1,0,-1
 700 300 l 1,1,-1
 100 300 l 1,2,-1
 100 400 l 1,3,-1
 700 400 l 1,0,-1
EndSplineSet
Validated: 1
EndChar

StartChar: uni2012
Encoding: 8210 8210 226
Width: 800
GlyphClass: 1
Flags: W
LayerCount: 2
Fore
SplineSet
700 400 m 1,0,-1
 700 300 l 1,1,-1
 100 300 l 1,2,-1
 100 400 l 1,3,-1
 700 400 l 1,0,-1
EndSplineSet
Validated: 1
EndChar

StartChar: endash
Encoding: 8211 8211 227
Width: 800
GlyphClass: 1
Flags: W
LayerCount: 2
Fore
SplineSet
700 400 m 1,0,-1
 700 300 l 1,1,-1
 200 300 l 1,2,-1
 200 400 l 1,3,-1
 700 400 l 1,0,-1
EndSplineSet
Validated: 1
EndChar

StartChar: emdash
Encoding: 8212 8212 228
Width: 800
GlyphClass: 1
Flags: W
LayerCount: 2
Fore
SplineSet
100 400 m 1,0,-1
 800 400 l 1,1,-1
 800 300 l 1,2,-1
 100 300 l 1,3,-1
 100 400 l 1,0,-1
EndSplineSet
Validated: 1
EndChar

StartChar: afii00208
Encoding: 8213 8213 229
Width: 800
GlyphClass: 1
Flags: W
LayerCount: 2
Fore
SplineSet
0 200 m 1,0,-1
 0 300 l 1,1,-1
 800 300 l 1,2,-1
 800 200 l 1,3,-1
 0 200 l 1,0,-1
EndSplineSet
Validated: 1
EndChar

StartChar: uni2016
Encoding: 8214 8214 230
Width: 800
GlyphClass: 1
Flags: W
LayerCount: 2
Fore
SplineSet
600 700 m 1,0,-1
 600 -100 l 1,1,-1
 500 -100 l 1,2,-1
 500 700 l 1,3,-1
 600 700 l 1,0,-1
400 700 m 1,4,-1
 400 -100 l 1,5,-1
 300 -100 l 1,6,-1
 300 700 l 1,7,-1
 400 700 l 1,4,-1
EndSplineSet
Validated: 1
EndChar

StartChar: underscoredbl
Encoding: 8215 8215 231
Width: 800
GlyphClass: 1
Flags: W
LayerCount: 2
Fore
SplineSet
0 0 m 1,0,-1
 800 0 l 1,1,-1
 800 -100 l 1,2,-1
 0 -100 l 1,3,-1
 0 0 l 1,0,-1
0 200 m 1,4,-1
 800 200 l 1,5,-1
 800 100 l 1,6,-1
 0 100 l 1,7,-1
 0 200 l 1,4,-1
EndSplineSet
Validated: 1
EndChar

StartChar: quoteleft
Encoding: 8216 8216 232
Width: 800
GlyphClass: 1
Flags: W
LayerCount: 2
Fore
SplineSet
400 500 m 1,0,-1
 400 600 l 1,1,-1
 500 600 l 1,2,-1
 500 500 l 1,3,-1
 400 500 l 1,0,-1
600 500 m 1,4,-1
 600 400 l 1,5,-1
 500 400 l 1,6,-1
 500 500 l 1,7,-1
 600 500 l 1,4,-1
400 700 m 1,8,-1
 400 600 l 1,9,-1
 300 600 l 1,10,-1
 300 700 l 1,11,-1
 400 700 l 1,8,-1
EndSplineSet
Validated: 5
EndChar

StartChar: quoteright
Encoding: 8217 8217 233
Width: 800
GlyphClass: 1
Flags: W
LayerCount: 2
Fore
SplineSet
600 700 m 1,0,-1
 600 600 l 1,1,-1
 500 600 l 1,2,-1
 500 700 l 1,3,-1
 600 700 l 1,0,-1
400 500 m 1,4,-1
 400 400 l 1,5,-1
 300 400 l 1,6,-1
 300 500 l 1,7,-1
 400 500 l 1,4,-1
500 500 m 1,8,-1
 400 500 l 1,9,-1
 400 600 l 1,10,-1
 500 600 l 1,11,-1
 500 500 l 1,8,-1
EndSplineSet
Validated: 5
EndChar

StartChar: quotesinglbase
Encoding: 8218 8218 234
Width: 800
GlyphClass: 1
Flags: W
LayerCount: 2
Fore
SplineSet
500 0 m 1,0,-1
 400 0 l 1,1,-1
 400 200 l 1,2,-1
 500 200 l 1,3,-1
 500 0 l 1,0,-1
400 -100 m 1,4,-1
 300 -100 l 1,5,-1
 300 0 l 1,6,-1
 400 0 l 1,7,-1
 400 -100 l 1,4,-1
EndSplineSet
Validated: 5
EndChar

StartChar: quotereversed
Encoding: 8219 8219 235
Width: 800
GlyphClass: 1
Flags: W
LayerCount: 2
Fore
SplineSet
400 500 m 1,0,-1
 400 600 l 1,1,-1
 500 600 l 1,2,-1
 500 500 l 1,3,-1
 400 500 l 1,0,-1
600 500 m 1,4,-1
 600 400 l 1,5,-1
 500 400 l 1,6,-1
 500 500 l 1,7,-1
 600 500 l 1,4,-1
400 700 m 1,8,-1
 400 600 l 1,9,-1
 300 600 l 1,10,-1
 300 700 l 1,11,-1
 400 700 l 1,8,-1
EndSplineSet
Validated: 5
EndChar

StartChar: quotedblleft
Encoding: 8220 8220 236
Width: 800
GlyphClass: 1
Flags: W
LayerCount: 2
Fore
SplineSet
700 400 m 1,0,-1
 600 400 l 1,1,-1
 600 500 l 1,2,-1
 700 500 l 1,3,-1
 700 400 l 1,0,-1
500 700 m 1,4,-1
 500 600 l 1,5,-1
 400 600 l 1,6,-1
 400 700 l 1,7,-1
 500 700 l 1,4,-1
600 500 m 1,8,-1
 500 500 l 1,9,-1
 500 600 l 1,10,-1
 600 600 l 1,11,-1
 600 500 l 1,8,-1
300 500 m 1,12,-1
 400 500 l 1,13,-1
 400 400 l 1,14,-1
 300 400 l 1,15,-1
 300 500 l 1,12,-1
100 700 m 1,16,-1
 200 700 l 1,17,-1
 200 600 l 1,18,-1
 100 600 l 1,19,-1
 100 700 l 1,16,-1
300 600 m 1,20,-1
 300 500 l 1,21,-1
 200 500 l 1,22,-1
 200 600 l 1,23,-1
 300 600 l 1,20,-1
EndSplineSet
Validated: 5
EndChar

StartChar: quotedblright
Encoding: 8221 8221 237
Width: 800
GlyphClass: 1
Flags: W
LayerCount: 2
Fore
SplineSet
600 500 m 1,0,-1
 500 500 l 1,1,-1
 500 600 l 1,2,-1
 600 600 l 1,3,-1
 600 500 l 1,0,-1
400 700 m 1,4,-1
 400 600 l 1,5,-1
 300 600 l 1,6,-1
 300 700 l 1,7,-1
 400 700 l 1,4,-1
700 600 m 1,8,-1
 600 600 l 1,9,-1
 600 700 l 1,10,-1
 700 700 l 1,11,-1
 700 600 l 1,8,-1
300 500 m 1,12,-1
 200 500 l 1,13,-1
 200 600 l 1,14,-1
 300 600 l 1,15,-1
 300 500 l 1,12,-1
400 500 m 1,16,-1
 500 500 l 1,17,-1
 500 400 l 1,18,-1
 400 400 l 1,19,-1
 400 500 l 1,16,-1
100 400 m 1,20,-1
 100 500 l 1,21,-1
 200 500 l 1,22,-1
 200 400 l 1,23,-1
 100 400 l 1,20,-1
EndSplineSet
Validated: 5
EndChar

StartChar: quotedblbase
Encoding: 8222 8222 238
Width: 800
GlyphClass: 1
Flags: W
LayerCount: 2
Fore
SplineSet
200 0 m 1,0,-1
 300 0 l 1,1,-1
 300 -100 l 1,2,-1
 200 -100 l 1,3,-1
 200 0 l 1,0,-1
600 200 m 1,4,-1
 600 0 l 1,5,-1
 500 0 l 1,6,-1
 500 200 l 1,7,-1
 600 200 l 1,4,-1
500 -100 m 1,8,-1
 400 -100 l 1,9,-1
 400 0 l 1,10,-1
 500 0 l 1,11,-1
 500 -100 l 1,8,-1
400 0 m 1,12,-1
 300 0 l 1,13,-1
 300 200 l 1,14,-1
 400 200 l 1,15,-1
 400 0 l 1,12,-1
EndSplineSet
Validated: 5
EndChar

StartChar: uni201F
Encoding: 8223 8223 239
Width: 800
GlyphClass: 1
Flags: W
LayerCount: 2
Fore
SplineSet
700 400 m 1,0,-1
 600 400 l 1,1,-1
 600 500 l 1,2,-1
 700 500 l 1,3,-1
 700 400 l 1,0,-1
500 700 m 1,4,-1
 500 600 l 1,5,-1
 400 600 l 1,6,-1
 400 700 l 1,7,-1
 500 700 l 1,4,-1
600 500 m 1,8,-1
 500 500 l 1,9,-1
 500 600 l 1,10,-1
 600 600 l 1,11,-1
 600 500 l 1,8,-1
300 500 m 1,12,-1
 400 500 l 1,13,-1
 400 400 l 1,14,-1
 300 400 l 1,15,-1
 300 500 l 1,12,-1
100 700 m 1,16,-1
 200 700 l 1,17,-1
 200 600 l 1,18,-1
 100 600 l 1,19,-1
 100 700 l 1,16,-1
300 600 m 1,20,-1
 300 500 l 1,21,-1
 200 500 l 1,22,-1
 200 600 l 1,23,-1
 300 600 l 1,20,-1
EndSplineSet
Validated: 5
EndChar

StartChar: dagger
Encoding: 8224 8224 240
Width: 800
GlyphClass: 1
Flags: W
LayerCount: 2
Fore
SplineSet
500 100 m 1,0,-1
 400 100 l 1,1,-1
 400 400 l 1,2,-1
 200 400 l 1,3,-1
 200 500 l 1,4,-1
 400 500 l 1,5,-1
 400 600 l 1,6,-1
 500 600 l 1,7,-1
 500 500 l 1,8,-1
 700 500 l 1,9,-1
 700 400 l 1,10,-1
 500 400 l 1,11,-1
 500 100 l 1,0,-1
EndSplineSet
Validated: 1
EndChar

StartChar: daggerdbl
Encoding: 8225 8225 241
Width: 800
GlyphClass: 1
Flags: W
LayerCount: 2
Fore
SplineSet
500 100 m 1,0,-1
 400 100 l 1,1,-1
 400 200 l 1,2,-1
 200 200 l 1,3,-1
 200 300 l 1,4,-1
 400 300 l 1,5,-1
 400 400 l 1,6,-1
 200 400 l 1,7,-1
 200 500 l 1,8,-1
 400 500 l 1,9,-1
 400 600 l 1,10,-1
 500 600 l 1,11,-1
 500 500 l 1,12,-1
 700 500 l 1,13,-1
 700 400 l 1,14,-1
 500 400 l 1,15,-1
 500 300 l 1,16,-1
 700 300 l 1,17,-1
 700 200 l 1,18,-1
 500 200 l 1,19,-1
 500 100 l 1,0,-1
EndSplineSet
Validated: 1
EndChar

StartChar: bullet
Encoding: 8226 8226 242
Width: 800
GlyphClass: 1
Flags: W
LayerCount: 2
Fore
SplineSet
500 100 m 1,0,-1
 300 100 l 1,1,-1
 300 200 l 1,2,-1
 200 200 l 1,3,-1
 200 400 l 1,4,-1
 300 400 l 1,5,-1
 300 500 l 1,6,-1
 500 500 l 1,7,-1
 500 400 l 1,8,-1
 600 400 l 1,9,-1
 600 200 l 1,10,-1
 500 200 l 1,11,-1
 500 100 l 1,0,-1
EndSplineSet
Validated: 1
EndChar

StartChar: uni2023
Encoding: 8227 8227 243
Width: 800
GlyphClass: 1
Flags: W
LayerCount: 2
Fore
SplineSet
400 500 m 1,0,-1
 400 400 l 1,1,-1
 600 400 l 1,2,-1
 600 200 l 1,3,-1
 400 200 l 1,4,-1
 400 100 l 1,5,-1
 200 100 l 1,6,-1
 200 500 l 1,7,-1
 400 500 l 1,0,-1
EndSplineSet
Validated: 1
EndChar

StartChar: uni2024
Encoding: 8228 8228 244
Width: 800
GlyphClass: 1
Flags: W
LayerCount: 2
Fore
SplineSet
500 0 m 1,0,-1
 300 0 l 1,1,-1
 300 200 l 1,2,-1
 500 200 l 1,3,-1
 500 0 l 1,0,-1
EndSplineSet
Validated: 1
EndChar

StartChar: uni2025
Encoding: 8229 8229 245
Width: 800
GlyphClass: 1
Flags: W
LayerCount: 2
Fore
SplineSet
700 0 m 1,0,-1
 500 0 l 1,1,-1
 500 200 l 1,2,-1
 700 200 l 1,3,-1
 700 0 l 1,0,-1
200 200 m 1,4,-1
 400 200 l 1,5,-1
 400 0 l 1,6,-1
 200 0 l 1,7,-1
 200 200 l 1,4,-1
EndSplineSet
Validated: 1
EndChar

StartChar: ellipsis
Encoding: 8230 8230 246
Width: 800
GlyphClass: 1
Flags: W
LayerCount: 2
Fore
SplineSet
0 0 m 1,0,-1
 0 200 l 1,1,-1
 200 200 l 1,2,-1
 200 0 l 1,3,-1
 0 0 l 1,0,-1
800 0 m 1,4,-1
 600 0 l 1,5,-1
 600 200 l 1,6,-1
 800 200 l 1,7,-1
 800 0 l 1,4,-1
500 0 m 1,8,-1
 300 0 l 1,9,-1
 300 200 l 1,10,-1
 500 200 l 1,11,-1
 500 0 l 1,8,-1
EndSplineSet
Validated: 1
EndChar

StartChar: uni2027
Encoding: 8231 8231 247
Width: 800
GlyphClass: 1
Flags: W
LayerCount: 2
Fore
SplineSet
500 300 m 1,0,-1
 300 300 l 1,1,-1
 300 400 l 1,2,-1
 500 400 l 1,3,-1
 500 300 l 1,0,-1
EndSplineSet
Validated: 1
EndChar

StartChar: perthousand
Encoding: 8240 8240 248
Width: 800
GlyphClass: 1
Flags: W
LayerCount: 2
Fore
SplineSet
600 500 m 1,0,-1
 600 600 l 1,1,-1
 700 600 l 1,2,-1
 700 500 l 1,3,-1
 600 500 l 1,0,-1
700 200 m 1,4,-1
 700 0 l 1,5,-1
 600 0 l 1,6,-1
 600 200 l 1,7,-1
 700 200 l 1,4,-1
300 300 m 1,8,-1
 400 300 l 1,9,-1
 400 200 l 1,10,-1
 300 200 l 1,11,-1
 300 300 l 1,8,-1
200 0 m 1,12,-1
 100 0 l 1,13,-1
 100 100 l 1,14,-1
 200 100 l 1,15,-1
 200 0 l 1,12,-1
400 0 m 1,16,-1
 400 200 l 1,17,-1
 500 200 l 1,18,-1
 500 0 l 1,19,-1
 400 0 l 1,16,-1
300 600 m 1,20,-1
 300 400 l 1,21,-1
 100 400 l 1,22,-1
 100 600 l 1,23,-1
 300 600 l 1,20,-1
500 300 m 1,24,-1
 400 300 l 1,25,-1
 400 400 l 1,26,-1
 500 400 l 1,27,-1
 500 300 l 1,24,-1
500 500 m 1,28,-1
 600 500 l 1,29,-1
 600 400 l 1,30,-1
 500 400 l 1,31,-1
 500 500 l 1,28,-1
200 200 m 1,32,-1
 300 200 l 1,33,-1
 300 100 l 1,34,-1
 200 100 l 1,35,-1
 200 200 l 1,32,-1
EndSplineSet
Validated: 5
EndChar

StartChar: uni2031
Encoding: 8241 8241 249
Width: 800
GlyphClass: 1
Flags: W
LayerCount: 2
Fore
SplineSet
600 500 m 1,0,-1
 600 600 l 1,1,-1
 700 600 l 1,2,-1
 700 500 l 1,3,-1
 600 500 l 1,0,-1
700 200 m 1,4,-1
 700 0 l 1,5,-1
 300 0 l 1,6,-1
 300 100 l 1,7,-1
 200 100 l 1,8,-1
 200 200 l 1,9,-1
 300 200 l 1,10,-1
 300 300 l 1,11,-1
 400 300 l 1,12,-1
 400 200 l 1,13,-1
 700 200 l 1,4,-1
200 0 m 1,14,-1
 100 0 l 1,15,-1
 100 100 l 1,16,-1
 200 100 l 1,17,-1
 200 0 l 1,14,-1
300 600 m 1,18,-1
 300 400 l 1,19,-1
 100 400 l 1,20,-1
 100 600 l 1,21,-1
 300 600 l 1,18,-1
500 300 m 1,22,-1
 400 300 l 1,23,-1
 400 400 l 1,24,-1
 500 400 l 1,25,-1
 500 300 l 1,22,-1
500 500 m 1,26,-1
 600 500 l 1,27,-1
 600 400 l 1,28,-1
 500 400 l 1,29,-1
 500 500 l 1,26,-1
EndSplineSet
Validated: 5
EndChar

StartChar: guilsinglleft
Encoding: 8249 8249 250
Width: 800
GlyphClass: 1
Flags: W
LayerCount: 2
Fore
SplineSet
400 100 m 1,0,-1
 400 200 l 1,1,-1
 300 200 l 1,2,-1
 300 300 l 1,3,-1
 200 300 l 1,4,-1
 200 400 l 1,5,-1
 300 400 l 1,6,-1
 300 500 l 1,7,-1
 400 500 l 1,8,-1
 400 600 l 1,9,-1
 600 600 l 1,10,-1
 600 500 l 1,11,-1
 500 500 l 1,12,-1
 500 400 l 1,13,-1
 400 400 l 1,14,-1
 400 300 l 1,15,-1
 500 300 l 1,16,-1
 500 200 l 1,17,-1
 600 200 l 1,18,-1
 600 100 l 1,19,-1
 400 100 l 1,0,-1
EndSplineSet
Validated: 1
EndChar

StartChar: guilsinglright
Encoding: 8250 8250 251
Width: 800
GlyphClass: 1
Flags: W
LayerCount: 2
Fore
SplineSet
500 100 m 1,0,-1
 300 100 l 1,1,-1
 300 200 l 1,2,-1
 400 200 l 1,3,-1
 400 300 l 1,4,-1
 500 300 l 1,5,-1
 500 400 l 1,6,-1
 400 400 l 1,7,-1
 400 500 l 1,8,-1
 300 500 l 1,9,-1
 300 600 l 1,10,-1
 500 600 l 1,11,-1
 500 500 l 1,12,-1
 600 500 l 1,13,-1
 600 400 l 1,14,-1
 700 400 l 1,15,-1
 700 300 l 1,16,-1
 600 300 l 1,17,-1
 600 200 l 1,18,-1
 500 200 l 1,19,-1
 500 100 l 1,0,-1
EndSplineSet
Validated: 1
EndChar

StartChar: exclamdbl
Encoding: 8252 8252 252
Width: 800
GlyphClass: 1
Flags: W
LayerCount: 2
Fore
SplineSet
500 100 m 1,0,-1
 600 100 l 1,1,-1
 600 0 l 1,2,-1
 500 0 l 1,3,-1
 500 100 l 1,0,-1
600 300 m 1,4,-1
 500 300 l 1,5,-1
 500 700 l 1,6,-1
 600 700 l 1,7,-1
 600 300 l 1,4,-1
300 300 m 1,8,-1
 200 300 l 1,9,-1
 200 700 l 1,10,-1
 300 700 l 1,11,-1
 300 300 l 1,8,-1
200 0 m 1,12,-1
 200 100 l 1,13,-1
 300 100 l 1,14,-1
 300 0 l 1,15,-1
 200 0 l 1,12,-1
EndSplineSet
Validated: 1
EndChar

StartChar: uni203D
Encoding: 8253 8253 253
Width: 800
GlyphClass: 1
Flags: W
LayerCount: 2
Fore
SplineSet
600 300 m 1,0,-1
 400 300 l 1,1,-1
 400 200 l 1,2,-1
 300 200 l 1,3,-1
 300 600 l 1,4,-1
 200 600 l 1,5,-1
 200 700 l 1,6,-1
 600 700 l 1,7,-1
 600 600 l 1,8,-1
 400 600 l 1,9,-1
 400 400 l 1,10,-1
 600 400 l 1,11,-1
 600 300 l 1,0,-1
700 400 m 1,12,-1
 600 400 l 1,13,-1
 600 600 l 1,14,-1
 700 600 l 1,15,-1
 700 400 l 1,12,-1
400 100 m 1,16,-1
 400 0 l 1,17,-1
 300 0 l 1,18,-1
 300 100 l 1,19,-1
 400 100 l 1,16,-1
100 600 m 1,20,-1
 200 600 l 1,21,-1
 200 500 l 1,22,-1
 100 500 l 1,23,-1
 100 600 l 1,20,-1
EndSplineSet
Validated: 5
EndChar

StartChar: fraction
Encoding: 8260 8260 254
Width: 800
GlyphClass: 1
Flags: W
LayerCount: 2
Fore
SplineSet
100 0 m 1,0,-1
 100 100 l 1,1,-1
 200 100 l 1,2,-1
 200 0 l 1,3,-1
 100 0 l 1,0,-1
600 500 m 1,4,-1
 600 600 l 1,5,-1
 700 600 l 1,6,-1
 700 500 l 1,7,-1
 600 500 l 1,4,-1
300 300 m 1,8,-1
 400 300 l 1,9,-1
 400 200 l 1,10,-1
 300 200 l 1,11,-1
 300 300 l 1,8,-1
600 400 m 1,12,-1
 500 400 l 1,13,-1
 500 500 l 1,14,-1
 600 500 l 1,15,-1
 600 400 l 1,12,-1
200 100 m 1,16,-1
 200 200 l 1,17,-1
 300 200 l 1,18,-1
 300 100 l 1,19,-1
 200 100 l 1,16,-1
500 300 m 1,20,-1
 400 300 l 1,21,-1
 400 400 l 1,22,-1
 500 400 l 1,23,-1
 500 300 l 1,20,-1
EndSplineSet
Validated: 5
EndChar

StartChar: Euro
Encoding: 8364 8364 255
Width: 800
GlyphClass: 1
Flags: W
LayerCount: 2
Fore
SplineSet
400 700 m 1,0,-1
 700 700 l 1,1,-1
 700 600 l 1,2,-1
 400 600 l 1,3,-1
 400 700 l 1,0,-1
700 200 m 1,4,-1
 800 200 l 1,5,-1
 800 100 l 1,6,-1
 700 100 l 1,7,-1
 700 200 l 1,4,-1
300 300 m 1,8,-1
 500 300 l 1,9,-1
 500 200 l 1,10,-1
 400 200 l 1,11,-1
 400 100 l 1,12,-1
 300 100 l 1,13,-1
 300 200 l 1,14,-1
 100 200 l 1,15,-1
 100 300 l 1,16,-1
 200 300 l 1,17,-1
 200 400 l 1,18,-1
 100 400 l 1,19,-1
 100 500 l 1,20,-1
 300 500 l 1,21,-1
 300 600 l 1,22,-1
 400 600 l 1,23,-1
 400 500 l 1,24,-1
 500 500 l 1,25,-1
 500 400 l 1,26,-1
 300 400 l 1,27,-1
 300 300 l 1,8,-1
400 0 m 1,28,-1
 400 100 l 1,29,-1
 700 100 l 1,30,-1
 700 0 l 1,31,-1
 400 0 l 1,28,-1
700 600 m 1,32,-1
 800 600 l 1,33,-1
 800 500 l 1,34,-1
 700 500 l 1,35,-1
 700 600 l 1,32,-1
EndSplineSet
Validated: 5
EndChar

StartChar: uni2117
Encoding: 8471 8471 256
Width: 800
GlyphClass: 1
Flags: W
LayerCount: 2
Fore
SplineSet
600 300 m 1,0,-1
 400 300 l 1,1,-1
 400 200 l 1,2,-1
 300 200 l 1,3,-1
 300 500 l 1,4,-1
 600 500 l 1,5,-1
 600 300 l 1,0,-1
600 500 m 1,6,-1
 600 600 l 1,7,-1
 700 600 l 1,8,-1
 700 500 l 1,9,-1
 600 500 l 1,6,-1
700 200 m 1,10,-1
 700 500 l 1,11,-1
 800 500 l 1,12,-1
 800 200 l 1,13,-1
 700 200 l 1,10,-1
300 500 m 1,14,-1
 200 500 l 1,15,-1
 200 600 l 1,16,-1
 300 600 l 1,17,-1
 300 500 l 1,14,-1
600 600 m 1,18,-1
 300 600 l 1,19,-1
 300 700 l 1,20,-1
 600 700 l 1,21,-1
 600 600 l 1,18,-1
600 100 m 1,22,-1
 600 200 l 1,23,-1
 700 200 l 1,24,-1
 700 100 l 1,25,-1
 600 100 l 1,22,-1
200 200 m 1,26,-1
 100 200 l 1,27,-1
 100 500 l 1,28,-1
 200 500 l 1,29,-1
 200 200 l 1,26,-1
300 100 m 1,30,-1
 600 100 l 1,31,-1
 600 0 l 1,32,-1
 300 0 l 1,33,-1
 300 100 l 1,30,-1
300 200 m 1,34,-1
 300 100 l 1,35,-1
 200 100 l 1,36,-1
 200 200 l 1,37,-1
 300 200 l 1,34,-1
EndSplineSet
Validated: 5
EndChar

StartChar: uni2120
Encoding: 8480 8480 257
Width: 800
GlyphClass: 1
Flags: W
LayerCount: 2
Fore
SplineSet
700 400 m 1,0,-1
 600 400 l 1,1,-1
 600 500 l 1,2,-1
 500 500 l 1,3,-1
 500 400 l 1,4,-1
 400 400 l 1,5,-1
 400 600 l 1,6,-1
 300 600 l 1,7,-1
 300 400 l 1,8,-1
 100 400 l 1,9,-1
 100 500 l 1,10,-1
 200 500 l 1,11,-1
 200 700 l 1,12,-1
 500 700 l 1,13,-1
 500 600 l 1,14,-1
 600 600 l 1,15,-1
 600 700 l 1,16,-1
 700 700 l 1,17,-1
 700 400 l 1,0,-1
EndSplineSet
Validated: 1
EndChar

StartChar: trademark
Encoding: 8482 8482 258
Width: 800
GlyphClass: 1
Flags: W
LayerCount: 2
Fore
SplineSet
700 400 m 1,0,-1
 600 400 l 1,1,-1
 600 500 l 1,2,-1
 500 500 l 1,3,-1
 500 400 l 1,4,-1
 400 400 l 1,5,-1
 400 600 l 1,6,-1
 300 600 l 1,7,-1
 300 400 l 1,8,-1
 200 400 l 1,9,-1
 200 600 l 1,10,-1
 100 600 l 1,11,-1
 100 700 l 1,12,-1
 500 700 l 1,13,-1
 500 600 l 1,14,-1
 600 600 l 1,15,-1
 600 700 l 1,16,-1
 700 700 l 1,17,-1
 700 400 l 1,0,-1
EndSplineSet
Validated: 1
EndChar

StartChar: Omega
Encoding: 8486 8486 259
Width: 800
GlyphClass: 1
Flags: W
LayerCount: 2
Fore
SplineSet
600 300 m 1,0,-1
 700 300 l 1,1,-1
 700 200 l 1,2,-1
 600 200 l 1,3,-1
 600 300 l 1,0,-1
700 200 m 1,4,-1
 800 200 l 1,5,-1
 800 0 l 1,6,-1
 500 0 l 1,7,-1
 500 200 l 1,8,-1
 600 200 l 1,9,-1
 600 100 l 1,10,-1
 700 100 l 1,11,-1
 700 200 l 1,4,-1
300 300 m 1,12,-1
 300 200 l 1,13,-1
 200 200 l 1,14,-1
 200 300 l 1,15,-1
 300 300 l 1,12,-1
400 0 m 1,16,-1
 100 0 l 1,17,-1
 100 200 l 1,18,-1
 200 200 l 1,19,-1
 200 100 l 1,20,-1
 300 100 l 1,21,-1
 300 200 l 1,22,-1
 400 200 l 1,23,-1
 400 0 l 1,16,-1
200 700 m 1,24,-1
 700 700 l 1,25,-1
 700 600 l 1,26,-1
 200 600 l 1,27,-1
 200 700 l 1,24,-1
100 600 m 1,28,-1
 200 600 l 1,29,-1
 200 300 l 1,30,-1
 100 300 l 1,31,-1
 100 600 l 1,28,-1
700 600 m 1,32,-1
 800 600 l 1,33,-1
 800 300 l 1,34,-1
 700 300 l 1,35,-1
 700 600 l 1,32,-1
EndSplineSet
Validated: 2097157
EndChar

StartChar: uni2127
Encoding: 8487 8487 260
Width: 800
GlyphClass: 1
Flags: W
LayerCount: 2
Fore
SplineSet
700 400 m 1,0,-1
 800 400 l 1,1,-1
 800 100 l 1,2,-1
 700 100 l 1,3,-1
 700 400 l 1,0,-1
600 500 m 1,4,-1
 500 500 l 1,5,-1
 500 700 l 1,6,-1
 800 700 l 1,7,-1
 800 500 l 1,8,-1
 700 500 l 1,9,-1
 700 600 l 1,10,-1
 600 600 l 1,11,-1
 600 500 l 1,4,-1
400 700 m 1,12,-1
 400 500 l 1,13,-1
 300 500 l 1,14,-1
 300 600 l 1,15,-1
 200 600 l 1,16,-1
 200 500 l 1,17,-1
 100 500 l 1,18,-1
 100 700 l 1,19,-1
 400 700 l 1,12,-1
200 0 m 1,20,-1
 200 100 l 1,21,-1
 700 100 l 1,22,-1
 700 0 l 1,23,-1
 200 0 l 1,20,-1
300 500 m 1,24,-1
 300 400 l 1,25,-1
 200 400 l 1,26,-1
 200 500 l 1,27,-1
 300 500 l 1,24,-1
100 100 m 1,28,-1
 100 400 l 1,29,-1
 200 400 l 1,30,-1
 200 100 l 1,31,-1
 100 100 l 1,28,-1
700 500 m 1,32,-1
 700 400 l 1,33,-1
 600 400 l 1,34,-1
 600 500 l 1,35,-1
 700 500 l 1,32,-1
EndSplineSet
Validated: 5
EndChar

StartChar: arrowleft
Encoding: 8592 8592 261
Width: 800
GlyphClass: 1
Flags: W
LayerCount: 2
Fore
SplineSet
400 100 m 1,0,-1
 400 0 l 1,1,-1
 300 0 l 1,2,-1
 300 100 l 1,3,-1
 400 100 l 1,0,-1
300 300 m 1,4,-1
 800 300 l 1,5,-1
 800 200 l 1,6,-1
 300 200 l 1,7,-1
 300 100 l 1,8,-1
 200 100 l 1,9,-1
 200 200 l 1,10,-1
 100 200 l 1,11,-1
 100 300 l 1,12,-1
 200 300 l 1,13,-1
 200 400 l 1,14,-1
 300 400 l 1,15,-1
 300 300 l 1,4,-1
300 500 m 1,16,-1
 400 500 l 1,17,-1
 400 400 l 1,18,-1
 300 400 l 1,19,-1
 300 500 l 1,16,-1
EndSplineSet
Validated: 5
EndChar

StartChar: arrowup
Encoding: 8593 8593 262
Width: 800
GlyphClass: 1
Flags: W
LayerCount: 2
Fore
SplineSet
600 300 m 1,0,-1
 600 400 l 1,1,-1
 700 400 l 1,2,-1
 700 300 l 1,3,-1
 600 300 l 1,0,-1
600 500 m 1,4,-1
 600 400 l 1,5,-1
 500 400 l 1,6,-1
 500 -100 l 1,7,-1
 400 -100 l 1,8,-1
 400 400 l 1,9,-1
 300 400 l 1,10,-1
 300 500 l 1,11,-1
 400 500 l 1,12,-1
 400 600 l 1,13,-1
 500 600 l 1,14,-1
 500 500 l 1,15,-1
 600 500 l 1,4,-1
300 300 m 1,16,-1
 200 300 l 1,17,-1
 200 400 l 1,18,-1
 300 400 l 1,19,-1
 300 300 l 1,16,-1
EndSplineSet
Validated: 5
EndChar

StartChar: arrowright
Encoding: 8594 8594 263
Width: 800
GlyphClass: 1
Flags: W
LayerCount: 2
Fore
SplineSet
500 100 m 1,0,-1
 600 100 l 1,1,-1
 600 0 l 1,2,-1
 500 0 l 1,3,-1
 500 100 l 1,0,-1
700 400 m 1,4,-1
 700 300 l 1,5,-1
 800 300 l 1,6,-1
 800 200 l 1,7,-1
 700 200 l 1,8,-1
 700 100 l 1,9,-1
 600 100 l 1,10,-1
 600 200 l 1,11,-1
 100 200 l 1,12,-1
 100 300 l 1,13,-1
 600 300 l 1,14,-1
 600 400 l 1,15,-1
 700 400 l 1,4,-1
600 500 m 1,16,-1
 600 400 l 1,17,-1
 500 400 l 1,18,-1
 500 500 l 1,19,-1
 600 500 l 1,16,-1
EndSplineSet
Validated: 5
EndChar

StartChar: arrowdown
Encoding: 8595 8595 264
Width: 800
GlyphClass: 1
Flags: W
LayerCount: 2
Fore
SplineSet
500 100 m 1,0,-1
 600 100 l 1,1,-1
 600 0 l 1,2,-1
 500 0 l 1,3,-1
 500 -100 l 1,4,-1
 400 -100 l 1,5,-1
 400 0 l 1,6,-1
 300 0 l 1,7,-1
 300 100 l 1,8,-1
 400 100 l 1,9,-1
 400 600 l 1,10,-1
 500 600 l 1,11,-1
 500 100 l 1,0,-1
700 200 m 1,12,-1
 700 100 l 1,13,-1
 600 100 l 1,14,-1
 600 200 l 1,15,-1
 700 200 l 1,12,-1
200 100 m 1,16,-1
 200 200 l 1,17,-1
 300 200 l 1,18,-1
 300 100 l 1,19,-1
 200 100 l 1,16,-1
EndSplineSet
Validated: 5
EndChar

StartChar: arrowboth
Encoding: 8596 8596 265
Width: 800
GlyphClass: 1
Flags: W
LayerCount: 2
Fore
SplineSet
500 100 m 1,0,-1
 600 100 l 1,1,-1
 600 0 l 1,2,-1
 500 0 l 1,3,-1
 500 100 l 1,0,-1
700 400 m 1,4,-1
 700 300 l 1,5,-1
 800 300 l 1,6,-1
 800 200 l 1,7,-1
 700 200 l 1,8,-1
 700 100 l 1,9,-1
 600 100 l 1,10,-1
 600 200 l 1,11,-1
 300 200 l 1,12,-1
 300 100 l 1,13,-1
 200 100 l 1,14,-1
 200 200 l 1,15,-1
 100 200 l 1,16,-1
 100 300 l 1,17,-1
 200 300 l 1,18,-1
 200 400 l 1,19,-1
 300 400 l 1,20,-1
 300 300 l 1,21,-1
 600 300 l 1,22,-1
 600 400 l 1,23,-1
 700 400 l 1,4,-1
600 500 m 1,24,-1
 600 400 l 1,25,-1
 500 400 l 1,26,-1
 500 500 l 1,27,-1
 600 500 l 1,24,-1
300 500 m 1,28,-1
 400 500 l 1,29,-1
 400 400 l 1,30,-1
 300 400 l 1,31,-1
 300 500 l 1,28,-1
400 0 m 1,32,-1
 300 0 l 1,33,-1
 300 100 l 1,34,-1
 400 100 l 1,35,-1
 400 0 l 1,32,-1
EndSplineSet
Validated: 5
EndChar

StartChar: arrowupdn
Encoding: 8597 8597 266
Width: 800
GlyphClass: 1
Flags: W
LayerCount: 2
Fore
SplineSet
500 100 m 1,0,-1
 600 100 l 1,1,-1
 600 0 l 1,2,-1
 500 0 l 1,3,-1
 500 -100 l 1,4,-1
 400 -100 l 1,5,-1
 400 0 l 1,6,-1
 300 0 l 1,7,-1
 300 100 l 1,8,-1
 400 100 l 1,9,-1
 400 400 l 1,10,-1
 300 400 l 1,11,-1
 300 500 l 1,12,-1
 400 500 l 1,13,-1
 400 600 l 1,14,-1
 500 600 l 1,15,-1
 500 500 l 1,16,-1
 600 500 l 1,17,-1
 600 400 l 1,18,-1
 500 400 l 1,19,-1
 500 100 l 1,0,-1
600 300 m 1,20,-1
 600 400 l 1,21,-1
 700 400 l 1,22,-1
 700 300 l 1,23,-1
 600 300 l 1,20,-1
700 200 m 1,24,-1
 700 100 l 1,25,-1
 600 100 l 1,26,-1
 600 200 l 1,27,-1
 700 200 l 1,24,-1
300 300 m 1,28,-1
 200 300 l 1,29,-1
 200 400 l 1,30,-1
 300 400 l 1,31,-1
 300 300 l 1,28,-1
200 200 m 1,32,-1
 300 200 l 1,33,-1
 300 100 l 1,34,-1
 200 100 l 1,35,-1
 200 200 l 1,32,-1
EndSplineSet
Validated: 5
EndChar

StartChar: uni2196
Encoding: 8598 8598 267
Width: 800
GlyphClass: 1
Flags: W
LayerCount: 2
Fore
SplineSet
500 100 m 1,0,-1
 500 200 l 1,1,-1
 600 200 l 1,2,-1
 600 100 l 1,3,-1
 500 100 l 1,0,-1
300 300 m 1,4,-1
 300 400 l 1,5,-1
 400 400 l 1,6,-1
 400 300 l 1,7,-1
 300 300 l 1,4,-1
300 500 m 1,8,-1
 300 400 l 1,9,-1
 200 400 l 1,10,-1
 200 200 l 1,11,-1
 100 200 l 1,12,-1
 100 600 l 1,13,-1
 500 600 l 1,14,-1
 500 500 l 1,15,-1
 300 500 l 1,8,-1
500 300 m 1,16,-1
 500 200 l 1,17,-1
 400 200 l 1,18,-1
 400 300 l 1,19,-1
 500 300 l 1,16,-1
600 100 m 1,20,-1
 700 100 l 1,21,-1
 700 0 l 1,22,-1
 600 0 l 1,23,-1
 600 100 l 1,20,-1
700 -100 m 1,24,-1
 700 0 l 1,25,-1
 800 0 l 1,26,-1
 800 -100 l 1,27,-1
 700 -100 l 1,24,-1
EndSplineSet
Validated: 5
EndChar

StartChar: uni2197
Encoding: 8599 8599 268
Width: 800
GlyphClass: 1
Flags: W
LayerCount: 2
Fore
SplineSet
700 400 m 1,0,-1
 600 400 l 1,1,-1
 600 500 l 1,2,-1
 400 500 l 1,3,-1
 400 600 l 1,4,-1
 800 600 l 1,5,-1
 800 200 l 1,6,-1
 700 200 l 1,7,-1
 700 400 l 1,0,-1
600 300 m 1,8,-1
 500 300 l 1,9,-1
 500 400 l 1,10,-1
 600 400 l 1,11,-1
 600 300 l 1,8,-1
100 -100 m 1,12,-1
 100 0 l 1,13,-1
 200 0 l 1,14,-1
 200 -100 l 1,15,-1
 100 -100 l 1,12,-1
400 100 m 1,16,-1
 300 100 l 1,17,-1
 300 200 l 1,18,-1
 400 200 l 1,19,-1
 400 100 l 1,16,-1
200 0 m 1,20,-1
 200 100 l 1,21,-1
 300 100 l 1,22,-1
 300 0 l 1,23,-1
 200 0 l 1,20,-1
500 300 m 1,24,-1
 500 200 l 1,25,-1
 400 200 l 1,26,-1
 400 300 l 1,27,-1
 500 300 l 1,24,-1
EndSplineSet
Validated: 5
EndChar

StartChar: uni2198
Encoding: 8600 8600 269
Width: 800
GlyphClass: 1
Flags: W
LayerCount: 2
Fore
SplineSet
500 100 m 1,0,-1
 500 200 l 1,1,-1
 600 200 l 1,2,-1
 600 100 l 1,3,-1
 500 100 l 1,0,-1
300 300 m 1,4,-1
 300 400 l 1,5,-1
 400 400 l 1,6,-1
 400 300 l 1,7,-1
 300 300 l 1,4,-1
300 500 m 1,8,-1
 300 400 l 1,9,-1
 200 400 l 1,10,-1
 200 500 l 1,11,-1
 300 500 l 1,8,-1
700 300 m 1,12,-1
 800 300 l 1,13,-1
 800 -100 l 1,14,-1
 400 -100 l 1,15,-1
 400 0 l 1,16,-1
 600 0 l 1,17,-1
 600 100 l 1,18,-1
 700 100 l 1,19,-1
 700 300 l 1,12,-1
500 300 m 1,20,-1
 500 200 l 1,21,-1
 400 200 l 1,22,-1
 400 300 l 1,23,-1
 500 300 l 1,20,-1
100 600 m 1,24,-1
 200 600 l 1,25,-1
 200 500 l 1,26,-1
 100 500 l 1,27,-1
 100 600 l 1,24,-1
EndSplineSet
Validated: 5
EndChar

StartChar: uni2199
Encoding: 8601 8601 270
Width: 800
GlyphClass: 1
Flags: W
LayerCount: 2
Fore
SplineSet
600 300 m 1,0,-1
 500 300 l 1,1,-1
 500 400 l 1,2,-1
 600 400 l 1,3,-1
 600 300 l 1,0,-1
700 400 m 1,4,-1
 600 400 l 1,5,-1
 600 500 l 1,6,-1
 700 500 l 1,7,-1
 700 400 l 1,4,-1
100 -100 m 1,8,-1
 100 300 l 1,9,-1
 200 300 l 1,10,-1
 200 100 l 1,11,-1
 300 100 l 1,12,-1
 300 0 l 1,13,-1
 500 0 l 1,14,-1
 500 -100 l 1,15,-1
 100 -100 l 1,8,-1
400 100 m 1,16,-1
 300 100 l 1,17,-1
 300 200 l 1,18,-1
 400 200 l 1,19,-1
 400 100 l 1,16,-1
700 600 m 1,20,-1
 800 600 l 1,21,-1
 800 500 l 1,22,-1
 700 500 l 1,23,-1
 700 600 l 1,20,-1
500 300 m 1,24,-1
 500 200 l 1,25,-1
 400 200 l 1,26,-1
 400 300 l 1,27,-1
 500 300 l 1,24,-1
EndSplineSet
Validated: 5
EndChar

StartChar: uni219A
Encoding: 8602 8602 271
Width: 800
GlyphClass: 1
Flags: W
LayerCount: 2
Fore
SplineSet
600 300 m 1,0,-1
 600 500 l 1,1,-1
 700 500 l 1,2,-1
 700 300 l 1,3,-1
 800 300 l 1,4,-1
 800 200 l 1,5,-1
 600 200 l 1,6,-1
 600 0 l 1,7,-1
 500 0 l 1,8,-1
 500 200 l 1,9,-1
 300 200 l 1,10,-1
 300 100 l 1,11,-1
 200 100 l 1,12,-1
 200 200 l 1,13,-1
 100 200 l 1,14,-1
 100 300 l 1,15,-1
 200 300 l 1,16,-1
 200 400 l 1,17,-1
 300 400 l 1,18,-1
 300 300 l 1,19,-1
 600 300 l 1,0,-1
300 500 m 1,20,-1
 400 500 l 1,21,-1
 400 400 l 1,22,-1
 300 400 l 1,23,-1
 300 500 l 1,20,-1
400 0 m 1,24,-1
 300 0 l 1,25,-1
 300 100 l 1,26,-1
 400 100 l 1,27,-1
 400 0 l 1,24,-1
EndSplineSet
Validated: 5
EndChar

StartChar: uni219B
Encoding: 8603 8603 272
Width: 800
GlyphClass: 1
Flags: W
LayerCount: 2
Fore
SplineSet
500 100 m 1,0,-1
 600 100 l 1,1,-1
 600 0 l 1,2,-1
 500 0 l 1,3,-1
 500 100 l 1,0,-1
700 400 m 1,4,-1
 700 300 l 1,5,-1
 800 300 l 1,6,-1
 800 200 l 1,7,-1
 700 200 l 1,8,-1
 700 100 l 1,9,-1
 600 100 l 1,10,-1
 600 200 l 1,11,-1
 300 200 l 1,12,-1
 300 0 l 1,13,-1
 200 0 l 1,14,-1
 200 200 l 1,15,-1
 100 200 l 1,16,-1
 100 300 l 1,17,-1
 300 300 l 1,18,-1
 300 500 l 1,19,-1
 400 500 l 1,20,-1
 400 300 l 1,21,-1
 600 300 l 1,22,-1
 600 400 l 1,23,-1
 700 400 l 1,4,-1
600 500 m 1,24,-1
 600 400 l 1,25,-1
 500 400 l 1,26,-1
 500 500 l 1,27,-1
 600 500 l 1,24,-1
EndSplineSet
Validated: 5
EndChar

StartChar: uni219C
Encoding: 8604 8604 273
Width: 800
GlyphClass: 1
Flags: W
LayerCount: 2
Fore
SplineSet
500 100 m 1,0,-1
 400 100 l 1,1,-1
 400 200 l 1,2,-1
 500 200 l 1,3,-1
 500 100 l 1,0,-1
700 400 m 1,4,-1
 700 300 l 1,5,-1
 600 300 l 1,6,-1
 600 400 l 1,7,-1
 700 400 l 1,4,-1
600 300 m 1,8,-1
 600 200 l 1,9,-1
 500 200 l 1,10,-1
 500 300 l 1,11,-1
 600 300 l 1,8,-1
700 200 m 1,12,-1
 700 300 l 1,13,-1
 800 300 l 1,14,-1
 800 200 l 1,15,-1
 700 200 l 1,12,-1
300 300 m 1,16,-1
 400 300 l 1,17,-1
 400 200 l 1,18,-1
 300 200 l 1,19,-1
 300 100 l 1,20,-1
 200 100 l 1,21,-1
 200 200 l 1,22,-1
 100 200 l 1,23,-1
 100 300 l 1,24,-1
 200 300 l 1,25,-1
 200 400 l 1,26,-1
 300 400 l 1,27,-1
 300 300 l 1,16,-1
300 500 m 1,28,-1
 400 500 l 1,29,-1
 400 400 l 1,30,-1
 300 400 l 1,31,-1
 300 500 l 1,28,-1
400 0 m 1,32,-1
 300 0 l 1,33,-1
 300 100 l 1,34,-1
 400 100 l 1,35,-1
 400 0 l 1,32,-1
EndSplineSet
Validated: 5
EndChar

StartChar: uni219D
Encoding: 8605 8605 274
Width: 800
GlyphClass: 1
Flags: W
LayerCount: 2
Fore
SplineSet
500 100 m 1,0,-1
 600 100 l 1,1,-1
 600 0 l 1,2,-1
 500 0 l 1,3,-1
 500 100 l 1,0,-1
700 400 m 1,4,-1
 700 300 l 1,5,-1
 800 300 l 1,6,-1
 800 200 l 1,7,-1
 700 200 l 1,8,-1
 700 100 l 1,9,-1
 600 100 l 1,10,-1
 600 200 l 1,11,-1
 500 200 l 1,12,-1
 500 300 l 1,13,-1
 600 300 l 1,14,-1
 600 400 l 1,15,-1
 700 400 l 1,4,-1
600 500 m 1,16,-1
 600 400 l 1,17,-1
 500 400 l 1,18,-1
 500 500 l 1,19,-1
 600 500 l 1,16,-1
300 300 m 1,20,-1
 400 300 l 1,21,-1
 400 200 l 1,22,-1
 300 200 l 1,23,-1
 300 300 l 1,20,-1
200 200 m 1,24,-1
 100 200 l 1,25,-1
 100 300 l 1,26,-1
 200 300 l 1,27,-1
 200 200 l 1,24,-1
200 400 m 1,28,-1
 300 400 l 1,29,-1
 300 300 l 1,30,-1
 200 300 l 1,31,-1
 200 400 l 1,28,-1
400 200 m 1,32,-1
 500 200 l 1,33,-1
 500 100 l 1,34,-1
 400 100 l 1,35,-1
 400 200 l 1,32,-1
EndSplineSet
Validated: 5
EndChar

StartChar: uni219E
Encoding: 8606 8606 275
Width: 800
GlyphClass: 1
Flags: W
LayerCount: 2
Fore
SplineSet
500 100 m 1,0,-1
 600 100 l 1,1,-1
 600 0 l 1,2,-1
 500 0 l 1,3,-1
 500 100 l 1,0,-1
600 500 m 1,4,-1
 600 400 l 1,5,-1
 500 400 l 1,6,-1
 500 500 l 1,7,-1
 600 500 l 1,4,-1
300 300 m 1,8,-1
 400 300 l 1,9,-1
 400 400 l 1,10,-1
 500 400 l 1,11,-1
 500 300 l 1,12,-1
 800 300 l 1,13,-1
 800 200 l 1,14,-1
 500 200 l 1,15,-1
 500 100 l 1,16,-1
 400 100 l 1,17,-1
 400 200 l 1,18,-1
 300 200 l 1,19,-1
 300 100 l 1,20,-1
 200 100 l 1,21,-1
 200 200 l 1,22,-1
 100 200 l 1,23,-1
 100 300 l 1,24,-1
 200 300 l 1,25,-1
 200 400 l 1,26,-1
 300 400 l 1,27,-1
 300 300 l 1,8,-1
300 500 m 1,28,-1
 400 500 l 1,29,-1
 400 400 l 1,30,-1
 300 400 l 1,31,-1
 300 500 l 1,28,-1
400 0 m 1,32,-1
 300 0 l 1,33,-1
 300 100 l 1,34,-1
 400 100 l 1,35,-1
 400 0 l 1,32,-1
EndSplineSet
Validated: 5
EndChar

StartChar: uni219F
Encoding: 8607 8607 276
Width: 800
GlyphClass: 1
Flags: W
LayerCount: 2
Fore
SplineSet
600 300 m 1,0,-1
 600 200 l 1,1,-1
 500 200 l 1,2,-1
 500 -100 l 1,3,-1
 400 -100 l 1,4,-1
 400 200 l 1,5,-1
 300 200 l 1,6,-1
 300 300 l 1,7,-1
 400 300 l 1,8,-1
 400 400 l 1,9,-1
 300 400 l 1,10,-1
 300 500 l 1,11,-1
 400 500 l 1,12,-1
 400 600 l 1,13,-1
 500 600 l 1,14,-1
 500 500 l 1,15,-1
 600 500 l 1,16,-1
 600 400 l 1,17,-1
 500 400 l 1,18,-1
 500 300 l 1,19,-1
 600 300 l 1,0,-1
700 400 m 1,20,-1
 700 300 l 1,21,-1
 600 300 l 1,22,-1
 600 400 l 1,23,-1
 700 400 l 1,20,-1
700 200 m 1,24,-1
 700 100 l 1,25,-1
 600 100 l 1,26,-1
 600 200 l 1,27,-1
 700 200 l 1,24,-1
300 300 m 1,28,-1
 200 300 l 1,29,-1
 200 400 l 1,30,-1
 300 400 l 1,31,-1
 300 300 l 1,28,-1
200 200 m 1,32,-1
 300 200 l 1,33,-1
 300 100 l 1,34,-1
 200 100 l 1,35,-1
 200 200 l 1,32,-1
EndSplineSet
Validated: 5
EndChar

StartChar: uni21A0
Encoding: 8608 8608 277
Width: 800
GlyphClass: 1
Flags: W
LayerCount: 2
Fore
SplineSet
500 100 m 1,0,-1
 600 100 l 1,1,-1
 600 0 l 1,2,-1
 500 0 l 1,3,-1
 500 100 l 1,0,-1
700 400 m 1,4,-1
 700 300 l 1,5,-1
 800 300 l 1,6,-1
 800 200 l 1,7,-1
 700 200 l 1,8,-1
 700 100 l 1,9,-1
 600 100 l 1,10,-1
 600 200 l 1,11,-1
 500 200 l 1,12,-1
 500 100 l 1,13,-1
 400 100 l 1,14,-1
 400 200 l 1,15,-1
 100 200 l 1,16,-1
 100 300 l 1,17,-1
 400 300 l 1,18,-1
 400 400 l 1,19,-1
 500 400 l 1,20,-1
 500 300 l 1,21,-1
 600 300 l 1,22,-1
 600 400 l 1,23,-1
 700 400 l 1,4,-1
600 500 m 1,24,-1
 600 400 l 1,25,-1
 500 400 l 1,26,-1
 500 500 l 1,27,-1
 600 500 l 1,24,-1
300 500 m 1,28,-1
 400 500 l 1,29,-1
 400 400 l 1,30,-1
 300 400 l 1,31,-1
 300 500 l 1,28,-1
400 0 m 1,32,-1
 300 0 l 1,33,-1
 300 100 l 1,34,-1
 400 100 l 1,35,-1
 400 0 l 1,32,-1
EndSplineSet
Validated: 5
EndChar

StartChar: uni21A1
Encoding: 8609 8609 278
Width: 800
GlyphClass: 1
Flags: W
LayerCount: 2
Fore
SplineSet
500 100 m 1,0,-1
 600 100 l 1,1,-1
 600 0 l 1,2,-1
 500 0 l 1,3,-1
 500 -100 l 1,4,-1
 400 -100 l 1,5,-1
 400 0 l 1,6,-1
 300 0 l 1,7,-1
 300 100 l 1,8,-1
 400 100 l 1,9,-1
 400 200 l 1,10,-1
 300 200 l 1,11,-1
 300 300 l 1,12,-1
 400 300 l 1,13,-1
 400 600 l 1,14,-1
 500 600 l 1,15,-1
 500 300 l 1,16,-1
 600 300 l 1,17,-1
 600 200 l 1,18,-1
 500 200 l 1,19,-1
 500 100 l 1,0,-1
600 300 m 1,20,-1
 600 400 l 1,21,-1
 700 400 l 1,22,-1
 700 300 l 1,23,-1
 600 300 l 1,20,-1
700 200 m 1,24,-1
 700 100 l 1,25,-1
 600 100 l 1,26,-1
 600 200 l 1,27,-1
 700 200 l 1,24,-1
300 300 m 1,28,-1
 200 300 l 1,29,-1
 200 400 l 1,30,-1
 300 400 l 1,31,-1
 300 300 l 1,28,-1
200 200 m 1,32,-1
 300 200 l 1,33,-1
 300 100 l 1,34,-1
 200 100 l 1,35,-1
 200 200 l 1,32,-1
EndSplineSet
Validated: 5
EndChar

StartChar: uni21A2
Encoding: 8610 8610 279
Width: 800
GlyphClass: 1
Flags: W
LayerCount: 2
Fore
SplineSet
600 300 m 1,0,-1
 600 200 l 1,1,-1
 300 200 l 1,2,-1
 300 100 l 1,3,-1
 200 100 l 1,4,-1
 200 200 l 1,5,-1
 100 200 l 1,6,-1
 100 300 l 1,7,-1
 200 300 l 1,8,-1
 200 400 l 1,9,-1
 300 400 l 1,10,-1
 300 300 l 1,11,-1
 600 300 l 1,0,-1
700 400 m 1,12,-1
 700 500 l 1,13,-1
 800 500 l 1,14,-1
 800 400 l 1,15,-1
 700 400 l 1,12,-1
700 200 m 1,16,-1
 700 100 l 1,17,-1
 600 100 l 1,18,-1
 600 200 l 1,19,-1
 700 200 l 1,16,-1
300 500 m 1,20,-1
 400 500 l 1,21,-1
 400 400 l 1,22,-1
 300 400 l 1,23,-1
 300 500 l 1,20,-1
400 0 m 1,24,-1
 300 0 l 1,25,-1
 300 100 l 1,26,-1
 400 100 l 1,27,-1
 400 0 l 1,24,-1
700 0 m 1,28,-1
 700 100 l 1,29,-1
 800 100 l 1,30,-1
 800 0 l 1,31,-1
 700 0 l 1,28,-1
600 400 m 1,32,-1
 700 400 l 1,33,-1
 700 300 l 1,34,-1
 600 300 l 1,35,-1
 600 400 l 1,32,-1
EndSplineSet
Validated: 5
EndChar

StartChar: uni21A3
Encoding: 8611 8611 280
Width: 800
GlyphClass: 1
Flags: W
LayerCount: 2
Fore
SplineSet
500 100 m 1,0,-1
 600 100 l 1,1,-1
 600 0 l 1,2,-1
 500 0 l 1,3,-1
 500 100 l 1,0,-1
700 400 m 1,4,-1
 700 300 l 1,5,-1
 800 300 l 1,6,-1
 800 200 l 1,7,-1
 700 200 l 1,8,-1
 700 100 l 1,9,-1
 600 100 l 1,10,-1
 600 200 l 1,11,-1
 300 200 l 1,12,-1
 300 300 l 1,13,-1
 600 300 l 1,14,-1
 600 400 l 1,15,-1
 700 400 l 1,4,-1
600 500 m 1,16,-1
 600 400 l 1,17,-1
 500 400 l 1,18,-1
 500 500 l 1,19,-1
 600 500 l 1,16,-1
300 300 m 1,20,-1
 200 300 l 1,21,-1
 200 400 l 1,22,-1
 300 400 l 1,23,-1
 300 300 l 1,20,-1
200 0 m 1,24,-1
 100 0 l 1,25,-1
 100 100 l 1,26,-1
 200 100 l 1,27,-1
 200 0 l 1,24,-1
300 100 m 1,28,-1
 200 100 l 1,29,-1
 200 200 l 1,30,-1
 300 200 l 1,31,-1
 300 100 l 1,28,-1
200 400 m 1,32,-1
 100 400 l 1,33,-1
 100 500 l 1,34,-1
 200 500 l 1,35,-1
 200 400 l 1,32,-1
EndSplineSet
Validated: 5
EndChar

StartChar: uni21A4
Encoding: 8612 8612 281
Width: 800
GlyphClass: 1
Flags: W
LayerCount: 2
Fore
SplineSet
400 100 m 1,0,-1
 400 0 l 1,1,-1
 300 0 l 1,2,-1
 300 100 l 1,3,-1
 400 100 l 1,0,-1
700 200 m 1,4,-1
 300 200 l 1,5,-1
 300 100 l 1,6,-1
 200 100 l 1,7,-1
 200 200 l 1,8,-1
 100 200 l 1,9,-1
 100 300 l 1,10,-1
 200 300 l 1,11,-1
 200 400 l 1,12,-1
 300 400 l 1,13,-1
 300 300 l 1,14,-1
 700 300 l 1,15,-1
 700 500 l 1,16,-1
 800 500 l 1,17,-1
 800 0 l 1,18,-1
 700 0 l 1,19,-1
 700 200 l 1,4,-1
300 500 m 1,20,-1
 400 500 l 1,21,-1
 400 400 l 1,22,-1
 300 400 l 1,23,-1
 300 500 l 1,20,-1
EndSplineSet
Validated: 5
EndChar

StartChar: uni21A5
Encoding: 8613 8613 282
Width: 800
GlyphClass: 1
Flags: W
LayerCount: 2
Fore
SplineSet
600 300 m 1,0,-1
 600 400 l 1,1,-1
 700 400 l 1,2,-1
 700 300 l 1,3,-1
 600 300 l 1,0,-1
600 500 m 1,4,-1
 600 400 l 1,5,-1
 500 400 l 1,6,-1
 500 0 l 1,7,-1
 700 0 l 1,8,-1
 700 -100 l 1,9,-1
 200 -100 l 1,10,-1
 200 0 l 1,11,-1
 400 0 l 1,12,-1
 400 400 l 1,13,-1
 300 400 l 1,14,-1
 300 500 l 1,15,-1
 400 500 l 1,16,-1
 400 600 l 1,17,-1
 500 600 l 1,18,-1
 500 500 l 1,19,-1
 600 500 l 1,4,-1
300 300 m 1,20,-1
 200 300 l 1,21,-1
 200 400 l 1,22,-1
 300 400 l 1,23,-1
 300 300 l 1,20,-1
EndSplineSet
Validated: 5
EndChar

StartChar: uni21A6
Encoding: 8614 8614 283
Width: 800
GlyphClass: 1
Flags: W
LayerCount: 2
Fore
SplineSet
500 100 m 1,0,-1
 600 100 l 1,1,-1
 600 0 l 1,2,-1
 500 0 l 1,3,-1
 500 100 l 1,0,-1
700 400 m 1,4,-1
 700 300 l 1,5,-1
 800 300 l 1,6,-1
 800 200 l 1,7,-1
 700 200 l 1,8,-1
 700 100 l 1,9,-1
 600 100 l 1,10,-1
 600 200 l 1,11,-1
 200 200 l 1,12,-1
 200 0 l 1,13,-1
 100 0 l 1,14,-1
 100 500 l 1,15,-1
 200 500 l 1,16,-1
 200 300 l 1,17,-1
 600 300 l 1,18,-1
 600 400 l 1,19,-1
 700 400 l 1,4,-1
600 500 m 1,20,-1
 600 400 l 1,21,-1
 500 400 l 1,22,-1
 500 500 l 1,23,-1
 600 500 l 1,20,-1
EndSplineSet
Validated: 5
EndChar

StartChar: uni21A7
Encoding: 8615 8615 284
Width: 800
GlyphClass: 1
Flags: W
LayerCount: 2
Fore
SplineSet
500 100 m 1,0,-1
 600 100 l 1,1,-1
 600 0 l 1,2,-1
 500 0 l 1,3,-1
 500 -100 l 1,4,-1
 400 -100 l 1,5,-1
 400 0 l 1,6,-1
 300 0 l 1,7,-1
 300 100 l 1,8,-1
 400 100 l 1,9,-1
 400 500 l 1,10,-1
 200 500 l 1,11,-1
 200 600 l 1,12,-1
 700 600 l 1,13,-1
 700 500 l 1,14,-1
 500 500 l 1,15,-1
 500 100 l 1,0,-1
700 200 m 1,16,-1
 700 100 l 1,17,-1
 600 100 l 1,18,-1
 600 200 l 1,19,-1
 700 200 l 1,16,-1
300 200 m 1,20,-1
 300 100 l 1,21,-1
 200 100 l 1,22,-1
 200 200 l 1,23,-1
 300 200 l 1,20,-1
EndSplineSet
Validated: 5
EndChar

StartChar: arrowupdnbse
Encoding: 8616 8616 285
Width: 800
GlyphClass: 1
Flags: W
LayerCount: 2
Fore
SplineSet
500 100 m 1,0,-1
 600 100 l 1,1,-1
 600 0 l 1,2,-1
 700 0 l 1,3,-1
 700 -100 l 1,4,-1
 200 -100 l 1,5,-1
 200 0 l 1,6,-1
 300 0 l 1,7,-1
 300 100 l 1,8,-1
 400 100 l 1,9,-1
 400 400 l 1,10,-1
 300 400 l 1,11,-1
 300 500 l 1,12,-1
 400 500 l 1,13,-1
 400 600 l 1,14,-1
 500 600 l 1,15,-1
 500 500 l 1,16,-1
 600 500 l 1,17,-1
 600 400 l 1,18,-1
 500 400 l 1,19,-1
 500 100 l 1,0,-1
600 300 m 1,20,-1
 600 400 l 1,21,-1
 700 400 l 1,22,-1
 700 300 l 1,23,-1
 600 300 l 1,20,-1
700 200 m 1,24,-1
 700 100 l 1,25,-1
 600 100 l 1,26,-1
 600 200 l 1,27,-1
 700 200 l 1,24,-1
300 300 m 1,28,-1
 200 300 l 1,29,-1
 200 400 l 1,30,-1
 300 400 l 1,31,-1
 300 300 l 1,28,-1
200 200 m 1,32,-1
 300 200 l 1,33,-1
 300 100 l 1,34,-1
 200 100 l 1,35,-1
 200 200 l 1,32,-1
EndSplineSet
Validated: 5
EndChar

StartChar: uni21A9
Encoding: 8617 8617 286
Width: 800
GlyphClass: 1
Flags: W
LayerCount: 2
Fore
SplineSet
400 100 m 1,0,-1
 400 0 l 1,1,-1
 300 0 l 1,2,-1
 300 100 l 1,3,-1
 400 100 l 1,0,-1
700 200 m 1,4,-1
 300 200 l 1,5,-1
 300 100 l 1,6,-1
 200 100 l 1,7,-1
 200 200 l 1,8,-1
 100 200 l 1,9,-1
 100 300 l 1,10,-1
 200 300 l 1,11,-1
 200 400 l 1,12,-1
 300 400 l 1,13,-1
 300 300 l 1,14,-1
 700 300 l 1,15,-1
 700 200 l 1,4,-1
300 500 m 1,16,-1
 400 500 l 1,17,-1
 400 400 l 1,18,-1
 300 400 l 1,19,-1
 300 500 l 1,16,-1
700 500 m 1,20,-1
 800 500 l 1,21,-1
 800 300 l 1,22,-1
 700 300 l 1,23,-1
 700 500 l 1,20,-1
EndSplineSet
Validated: 5
EndChar

StartChar: uni21AA
Encoding: 8618 8618 287
Width: 800
GlyphClass: 1
Flags: W
LayerCount: 2
Fore
SplineSet
500 100 m 1,0,-1
 600 100 l 1,1,-1
 600 0 l 1,2,-1
 500 0 l 1,3,-1
 500 100 l 1,0,-1
700 400 m 1,4,-1
 700 300 l 1,5,-1
 800 300 l 1,6,-1
 800 200 l 1,7,-1
 700 200 l 1,8,-1
 700 100 l 1,9,-1
 600 100 l 1,10,-1
 600 200 l 1,11,-1
 200 200 l 1,12,-1
 200 300 l 1,13,-1
 600 300 l 1,14,-1
 600 400 l 1,15,-1
 700 400 l 1,4,-1
600 500 m 1,16,-1
 600 400 l 1,17,-1
 500 400 l 1,18,-1
 500 500 l 1,19,-1
 600 500 l 1,16,-1
100 500 m 1,20,-1
 200 500 l 1,21,-1
 200 300 l 1,22,-1
 100 300 l 1,23,-1
 100 500 l 1,20,-1
EndSplineSet
Validated: 5
EndChar

StartChar: uni21AB
Encoding: 8619 8619 288
Width: 800
GlyphClass: 1
Flags: W
LayerCount: 2
Fore
SplineSet
700 400 m 1,0,-1
 800 400 l 1,1,-1
 800 300 l 1,2,-1
 700 300 l 1,3,-1
 700 400 l 1,0,-1
600 300 m 1,4,-1
 700 300 l 1,5,-1
 700 200 l 1,6,-1
 600 200 l 1,7,-1
 600 0 l 1,8,-1
 500 0 l 1,9,-1
 500 200 l 1,10,-1
 300 200 l 1,11,-1
 300 100 l 1,12,-1
 200 100 l 1,13,-1
 200 200 l 1,14,-1
 100 200 l 1,15,-1
 100 300 l 1,16,-1
 200 300 l 1,17,-1
 200 400 l 1,18,-1
 300 400 l 1,19,-1
 300 300 l 1,20,-1
 500 300 l 1,21,-1
 500 400 l 1,22,-1
 600 400 l 1,23,-1
 600 300 l 1,4,-1
600 500 m 1,24,-1
 700 500 l 1,25,-1
 700 400 l 1,26,-1
 600 400 l 1,27,-1
 600 500 l 1,24,-1
300 500 m 1,28,-1
 400 500 l 1,29,-1
 400 400 l 1,30,-1
 300 400 l 1,31,-1
 300 500 l 1,28,-1
400 0 m 1,32,-1
 300 0 l 1,33,-1
 300 100 l 1,34,-1
 400 100 l 1,35,-1
 400 0 l 1,32,-1
EndSplineSet
Validated: 5
EndChar

StartChar: uni21AC
Encoding: 8620 8620 289
Width: 800
GlyphClass: 1
Flags: W
LayerCount: 2
Fore
SplineSet
500 100 m 1,0,-1
 600 100 l 1,1,-1
 600 0 l 1,2,-1
 500 0 l 1,3,-1
 500 100 l 1,0,-1
600 300 m 1,4,-1
 600 400 l 1,5,-1
 700 400 l 1,6,-1
 700 300 l 1,7,-1
 800 300 l 1,8,-1
 800 200 l 1,9,-1
 700 200 l 1,10,-1
 700 100 l 1,11,-1
 600 100 l 1,12,-1
 600 200 l 1,13,-1
 400 200 l 1,14,-1
 400 0 l 1,15,-1
 300 0 l 1,16,-1
 300 200 l 1,17,-1
 200 200 l 1,18,-1
 200 300 l 1,19,-1
 300 300 l 1,20,-1
 300 400 l 1,21,-1
 400 400 l 1,22,-1
 400 300 l 1,23,-1
 600 300 l 1,4,-1
600 500 m 1,24,-1
 600 400 l 1,25,-1
 500 400 l 1,26,-1
 500 500 l 1,27,-1
 600 500 l 1,24,-1
300 500 m 1,28,-1
 300 400 l 1,29,-1
 200 400 l 1,30,-1
 200 500 l 1,31,-1
 300 500 l 1,28,-1
200 400 m 1,32,-1
 200 300 l 1,33,-1
 100 300 l 1,34,-1
 100 400 l 1,35,-1
 200 400 l 1,32,-1
EndSplineSet
Validated: 5
EndChar

StartChar: uni21B0
Encoding: 8624 8624 290
Width: 800
GlyphClass: 1
Flags: W
LayerCount: 2
Fore
SplineSet
400 100 m 1,0,-1
 300 100 l 1,1,-1
 300 200 l 1,2,-1
 400 200 l 1,3,-1
 400 100 l 1,0,-1
300 300 m 1,4,-1
 300 200 l 1,5,-1
 200 200 l 1,6,-1
 200 300 l 1,7,-1
 100 300 l 1,8,-1
 100 400 l 1,9,-1
 200 400 l 1,10,-1
 200 500 l 1,11,-1
 300 500 l 1,12,-1
 300 400 l 1,13,-1
 800 400 l 1,14,-1
 800 -100 l 1,15,-1
 700 -100 l 1,16,-1
 700 300 l 1,17,-1
 300 300 l 1,4,-1
300 500 m 1,18,-1
 300 600 l 1,19,-1
 400 600 l 1,20,-1
 400 500 l 1,21,-1
 300 500 l 1,18,-1
EndSplineSet
Validated: 5
EndChar

StartChar: uni21B1
Encoding: 8625 8625 291
Width: 800
GlyphClass: 1
Flags: W
LayerCount: 2
Fore
SplineSet
500 100 m 1,0,-1
 500 200 l 1,1,-1
 600 200 l 1,2,-1
 600 100 l 1,3,-1
 500 100 l 1,0,-1
600 300 m 1,4,-1
 200 300 l 1,5,-1
 200 -100 l 1,6,-1
 100 -100 l 1,7,-1
 100 400 l 1,8,-1
 600 400 l 1,9,-1
 600 500 l 1,10,-1
 700 500 l 1,11,-1
 700 400 l 1,12,-1
 800 400 l 1,13,-1
 800 300 l 1,14,-1
 700 300 l 1,15,-1
 700 200 l 1,16,-1
 600 200 l 1,17,-1
 600 300 l 1,4,-1
600 500 m 1,18,-1
 500 500 l 1,19,-1
 500 600 l 1,20,-1
 600 600 l 1,21,-1
 600 500 l 1,18,-1
EndSplineSet
Validated: 5
EndChar

StartChar: uni21B2
Encoding: 8626 8626 292
Width: 800
GlyphClass: 1
Flags: W
LayerCount: 2
Fore
SplineSet
700 200 m 1,0,-1
 700 600 l 1,1,-1
 800 600 l 1,2,-1
 800 100 l 1,3,-1
 300 100 l 1,4,-1
 300 0 l 1,5,-1
 200 0 l 1,6,-1
 200 100 l 1,7,-1
 100 100 l 1,8,-1
 100 200 l 1,9,-1
 200 200 l 1,10,-1
 200 300 l 1,11,-1
 300 300 l 1,12,-1
 300 200 l 1,13,-1
 700 200 l 1,0,-1
300 300 m 1,14,-1
 300 400 l 1,15,-1
 400 400 l 1,16,-1
 400 300 l 1,17,-1
 300 300 l 1,14,-1
400 0 m 1,18,-1
 400 -100 l 1,19,-1
 300 -100 l 1,20,-1
 300 0 l 1,21,-1
 400 0 l 1,18,-1
EndSplineSet
Validated: 5
EndChar

StartChar: uni21B3
Encoding: 8627 8627 293
Width: 800
GlyphClass: 1
Flags: W
LayerCount: 2
Fore
SplineSet
600 300 m 1,0,-1
 500 300 l 1,1,-1
 500 400 l 1,2,-1
 600 400 l 1,3,-1
 600 300 l 1,0,-1
700 200 m 1,4,-1
 800 200 l 1,5,-1
 800 100 l 1,6,-1
 700 100 l 1,7,-1
 700 0 l 1,8,-1
 600 0 l 1,9,-1
 600 100 l 1,10,-1
 100 100 l 1,11,-1
 100 600 l 1,12,-1
 200 600 l 1,13,-1
 200 200 l 1,14,-1
 600 200 l 1,15,-1
 600 300 l 1,16,-1
 700 300 l 1,17,-1
 700 200 l 1,4,-1
500 -100 m 1,18,-1
 500 0 l 1,19,-1
 600 0 l 1,20,-1
 600 -100 l 1,21,-1
 500 -100 l 1,18,-1
EndSplineSet
Validated: 5
EndChar

StartChar: uni21B4
Encoding: 8628 8628 294
Width: 800
GlyphClass: 1
Flags: W
LayerCount: 2
Fore
SplineSet
500 100 m 1,0,-1
 500 500 l 1,1,-1
 100 500 l 1,2,-1
 100 600 l 1,3,-1
 600 600 l 1,4,-1
 600 100 l 1,5,-1
 700 100 l 1,6,-1
 700 0 l 1,7,-1
 600 0 l 1,8,-1
 600 -100 l 1,9,-1
 500 -100 l 1,10,-1
 500 0 l 1,11,-1
 400 0 l 1,12,-1
 400 100 l 1,13,-1
 500 100 l 1,0,-1
400 100 m 1,14,-1
 300 100 l 1,15,-1
 300 200 l 1,16,-1
 400 200 l 1,17,-1
 400 100 l 1,14,-1
700 200 m 1,18,-1
 800 200 l 1,19,-1
 800 100 l 1,20,-1
 700 100 l 1,21,-1
 700 200 l 1,18,-1
EndSplineSet
Validated: 5
EndChar

StartChar: uni21B5
Encoding: 8629 8629 295
Width: 800
GlyphClass: 1
Flags: W
LayerCount: 2
Fore
SplineSet
400 100 m 1,0,-1
 400 0 l 1,1,-1
 300 0 l 1,2,-1
 300 100 l 1,3,-1
 400 100 l 1,0,-1
300 300 m 1,4,-1
 700 300 l 1,5,-1
 700 500 l 1,6,-1
 800 500 l 1,7,-1
 800 200 l 1,8,-1
 300 200 l 1,9,-1
 300 100 l 1,10,-1
 200 100 l 1,11,-1
 200 200 l 1,12,-1
 100 200 l 1,13,-1
 100 300 l 1,14,-1
 200 300 l 1,15,-1
 200 400 l 1,16,-1
 300 400 l 1,17,-1
 300 300 l 1,4,-1
300 500 m 1,18,-1
 400 500 l 1,19,-1
 400 400 l 1,20,-1
 300 400 l 1,21,-1
 300 500 l 1,18,-1
EndSplineSet
Validated: 5
EndChar

StartChar: uni21D0
Encoding: 8656 8656 296
Width: 800
GlyphClass: 1
Flags: W
LayerCount: 2
Fore
SplineSet
400 100 m 1,0,-1
 400 0 l 1,1,-1
 300 0 l 1,2,-1
 300 100 l 1,3,-1
 200 100 l 1,4,-1
 200 200 l 1,5,-1
 800 200 l 1,6,-1
 800 100 l 1,7,-1
 400 100 l 1,0,-1
300 500 m 1,8,-1
 400 500 l 1,9,-1
 400 400 l 1,10,-1
 800 400 l 1,11,-1
 800 300 l 1,12,-1
 200 300 l 1,13,-1
 200 400 l 1,14,-1
 300 400 l 1,15,-1
 300 500 l 1,8,-1
100 200 m 1,16,-1
 100 300 l 1,17,-1
 200 300 l 1,18,-1
 200 200 l 1,19,-1
 100 200 l 1,16,-1
EndSplineSet
Validated: 5
EndChar

StartChar: uni21D1
Encoding: 8657 8657 297
Width: 800
GlyphClass: 1
Flags: W
LayerCount: 2
Fore
SplineSet
600 300 m 1,0,-1
 600 -100 l 1,1,-1
 500 -100 l 1,2,-1
 500 500 l 1,3,-1
 600 500 l 1,4,-1
 600 400 l 1,5,-1
 700 400 l 1,6,-1
 700 300 l 1,7,-1
 600 300 l 1,0,-1
300 300 m 1,8,-1
 200 300 l 1,9,-1
 200 400 l 1,10,-1
 300 400 l 1,11,-1
 300 500 l 1,12,-1
 400 500 l 1,13,-1
 400 -100 l 1,14,-1
 300 -100 l 1,15,-1
 300 300 l 1,8,-1
400 500 m 1,16,-1
 400 600 l 1,17,-1
 500 600 l 1,18,-1
 500 500 l 1,19,-1
 400 500 l 1,16,-1
EndSplineSet
Validated: 5
EndChar

StartChar: uni21D2
Encoding: 8658 8658 298
Width: 800
GlyphClass: 1
Flags: W
LayerCount: 2
Fore
SplineSet
500 100 m 1,0,-1
 100 100 l 1,1,-1
 100 200 l 1,2,-1
 700 200 l 1,3,-1
 700 100 l 1,4,-1
 600 100 l 1,5,-1
 600 0 l 1,6,-1
 500 0 l 1,7,-1
 500 100 l 1,0,-1
700 400 m 1,8,-1
 700 300 l 1,9,-1
 100 300 l 1,10,-1
 100 400 l 1,11,-1
 500 400 l 1,12,-1
 500 500 l 1,13,-1
 600 500 l 1,14,-1
 600 400 l 1,15,-1
 700 400 l 1,8,-1
700 200 m 1,16,-1
 700 300 l 1,17,-1
 800 300 l 1,18,-1
 800 200 l 1,19,-1
 700 200 l 1,16,-1
EndSplineSet
Validated: 5
EndChar

StartChar: uni21D3
Encoding: 8659 8659 299
Width: 800
GlyphClass: 1
Flags: W
LayerCount: 2
Fore
SplineSet
700 200 m 1,0,-1
 700 100 l 1,1,-1
 600 100 l 1,2,-1
 600 0 l 1,3,-1
 500 0 l 1,4,-1
 500 600 l 1,5,-1
 600 600 l 1,6,-1
 600 200 l 1,7,-1
 700 200 l 1,0,-1
500 -100 m 1,8,-1
 400 -100 l 1,9,-1
 400 0 l 1,10,-1
 500 0 l 1,11,-1
 500 -100 l 1,8,-1
400 0 m 1,12,-1
 300 0 l 1,13,-1
 300 100 l 1,14,-1
 200 100 l 1,15,-1
 200 200 l 1,16,-1
 300 200 l 1,17,-1
 300 600 l 1,18,-1
 400 600 l 1,19,-1
 400 0 l 1,12,-1
EndSplineSet
Validated: 5
EndChar

StartChar: uni21D4
Encoding: 8660 8660 300
Width: 800
GlyphClass: 1
Flags: W
LayerCount: 2
Fore
SplineSet
500 100 m 1,0,-1
 400 100 l 1,1,-1
 400 0 l 1,2,-1
 300 0 l 1,3,-1
 300 100 l 1,4,-1
 200 100 l 1,5,-1
 200 200 l 1,6,-1
 700 200 l 1,7,-1
 700 100 l 1,8,-1
 600 100 l 1,9,-1
 600 0 l 1,10,-1
 500 0 l 1,11,-1
 500 100 l 1,0,-1
700 400 m 1,12,-1
 700 300 l 1,13,-1
 200 300 l 1,14,-1
 200 400 l 1,15,-1
 300 400 l 1,16,-1
 300 500 l 1,17,-1
 400 500 l 1,18,-1
 400 400 l 1,19,-1
 500 400 l 1,20,-1
 500 500 l 1,21,-1
 600 500 l 1,22,-1
 600 400 l 1,23,-1
 700 400 l 1,12,-1
700 200 m 1,24,-1
 700 300 l 1,25,-1
 800 300 l 1,26,-1
 800 200 l 1,27,-1
 700 200 l 1,24,-1
200 200 m 1,28,-1
 100 200 l 1,29,-1
 100 300 l 1,30,-1
 200 300 l 1,31,-1
 200 200 l 1,28,-1
EndSplineSet
Validated: 5
EndChar

StartChar: uni21D5
Encoding: 8661 8661 301
Width: 800
GlyphClass: 1
Flags: W
LayerCount: 2
Fore
SplineSet
600 300 m 1,0,-1
 600 200 l 1,1,-1
 700 200 l 1,2,-1
 700 100 l 1,3,-1
 600 100 l 1,4,-1
 600 0 l 1,5,-1
 500 0 l 1,6,-1
 500 500 l 1,7,-1
 600 500 l 1,8,-1
 600 400 l 1,9,-1
 700 400 l 1,10,-1
 700 300 l 1,11,-1
 600 300 l 1,0,-1
300 300 m 1,12,-1
 200 300 l 1,13,-1
 200 400 l 1,14,-1
 300 400 l 1,15,-1
 300 500 l 1,16,-1
 400 500 l 1,17,-1
 400 0 l 1,18,-1
 300 0 l 1,19,-1
 300 100 l 1,20,-1
 200 100 l 1,21,-1
 200 200 l 1,22,-1
 300 200 l 1,23,-1
 300 300 l 1,12,-1
500 -100 m 1,24,-1
 400 -100 l 1,25,-1
 400 0 l 1,26,-1
 500 0 l 1,27,-1
 500 -100 l 1,24,-1
500 500 m 1,28,-1
 400 500 l 1,29,-1
 400 600 l 1,30,-1
 500 600 l 1,31,-1
 500 500 l 1,28,-1
EndSplineSet
Validated: 5
EndChar

StartChar: uni21D6
Encoding: 8662 8662 302
Width: 800
GlyphClass: 1
Flags: W
LayerCount: 2
Fore
SplineSet
500 100 m 1,0,-1
 600 100 l 1,1,-1
 600 0 l 1,2,-1
 500 0 l 1,3,-1
 500 100 l 1,0,-1
600 300 m 1,4,-1
 600 200 l 1,5,-1
 500 200 l 1,6,-1
 500 300 l 1,7,-1
 600 300 l 1,4,-1
700 200 m 1,8,-1
 700 100 l 1,9,-1
 600 100 l 1,10,-1
 600 200 l 1,11,-1
 700 200 l 1,8,-1
300 300 m 1,12,-1
 400 300 l 1,13,-1
 400 200 l 1,14,-1
 300 200 l 1,15,-1
 300 300 l 1,12,-1
300 500 m 1,16,-1
 200 500 l 1,17,-1
 200 400 l 1,18,-1
 300 400 l 1,19,-1
 300 300 l 1,20,-1
 200 300 l 1,21,-1
 200 200 l 1,22,-1
 100 200 l 1,23,-1
 100 600 l 1,24,-1
 500 600 l 1,25,-1
 500 500 l 1,26,-1
 400 500 l 1,27,-1
 400 400 l 1,28,-1
 300 400 l 1,29,-1
 300 500 l 1,16,-1
500 300 m 1,30,-1
 400 300 l 1,31,-1
 400 400 l 1,32,-1
 500 400 l 1,33,-1
 500 300 l 1,30,-1
700 0 m 1,34,-1
 700 -100 l 1,35,-1
 600 -100 l 1,36,-1
 600 0 l 1,37,-1
 700 0 l 1,34,-1
800 0 m 1,38,-1
 700 0 l 1,39,-1
 700 100 l 1,40,-1
 800 100 l 1,41,-1
 800 0 l 1,38,-1
400 200 m 1,42,-1
 500 200 l 1,43,-1
 500 100 l 1,44,-1
 400 100 l 1,45,-1
 400 200 l 1,42,-1
EndSplineSet
Validated: 5
EndChar

StartChar: uni21D7
Encoding: 8663 8663 303
Width: 800
GlyphClass: 1
Flags: W
LayerCount: 2
Fore
SplineSet
500 100 m 1,0,-1
 400 100 l 1,1,-1
 400 200 l 1,2,-1
 500 200 l 1,3,-1
 500 100 l 1,0,-1
700 400 m 1,4,-1
 700 500 l 1,5,-1
 600 500 l 1,6,-1
 600 400 l 1,7,-1
 500 400 l 1,8,-1
 500 500 l 1,9,-1
 400 500 l 1,10,-1
 400 600 l 1,11,-1
 800 600 l 1,12,-1
 800 200 l 1,13,-1
 700 200 l 1,14,-1
 700 300 l 1,15,-1
 600 300 l 1,16,-1
 600 400 l 1,17,-1
 700 400 l 1,4,-1
600 300 m 1,18,-1
 600 200 l 1,19,-1
 500 200 l 1,20,-1
 500 300 l 1,21,-1
 600 300 l 1,18,-1
300 300 m 1,22,-1
 400 300 l 1,23,-1
 400 200 l 1,24,-1
 300 200 l 1,25,-1
 300 300 l 1,22,-1
200 0 m 1,26,-1
 100 0 l 1,27,-1
 100 100 l 1,28,-1
 200 100 l 1,29,-1
 200 0 l 1,26,-1
400 0 m 1,30,-1
 300 0 l 1,31,-1
 300 100 l 1,32,-1
 400 100 l 1,33,-1
 400 0 l 1,30,-1
500 300 m 1,34,-1
 400 300 l 1,35,-1
 400 400 l 1,36,-1
 500 400 l 1,37,-1
 500 300 l 1,34,-1
300 100 m 1,38,-1
 200 100 l 1,39,-1
 200 200 l 1,40,-1
 300 200 l 1,41,-1
 300 100 l 1,38,-1
300 -100 m 1,42,-1
 200 -100 l 1,43,-1
 200 0 l 1,44,-1
 300 0 l 1,45,-1
 300 -100 l 1,42,-1
EndSplineSet
Validated: 5
EndChar

StartChar: uni21D8
Encoding: 8664 8664 304
Width: 800
GlyphClass: 1
Flags: W
LayerCount: 2
Fore
SplineSet
500 100 m 1,0,-1
 600 100 l 1,1,-1
 600 0 l 1,2,-1
 700 0 l 1,3,-1
 700 100 l 1,4,-1
 600 100 l 1,5,-1
 600 200 l 1,6,-1
 700 200 l 1,7,-1
 700 300 l 1,8,-1
 800 300 l 1,9,-1
 800 -100 l 1,10,-1
 400 -100 l 1,11,-1
 400 0 l 1,12,-1
 500 0 l 1,13,-1
 500 100 l 1,0,-1
600 300 m 1,14,-1
 600 200 l 1,15,-1
 500 200 l 1,16,-1
 500 300 l 1,17,-1
 600 300 l 1,14,-1
300 300 m 1,18,-1
 400 300 l 1,19,-1
 400 200 l 1,20,-1
 300 200 l 1,21,-1
 300 300 l 1,18,-1
300 500 m 1,22,-1
 400 500 l 1,23,-1
 400 400 l 1,24,-1
 300 400 l 1,25,-1
 300 500 l 1,22,-1
300 600 m 1,26,-1
 300 500 l 1,27,-1
 200 500 l 1,28,-1
 200 600 l 1,29,-1
 300 600 l 1,26,-1
500 300 m 1,30,-1
 400 300 l 1,31,-1
 400 400 l 1,32,-1
 500 400 l 1,33,-1
 500 300 l 1,30,-1
200 400 m 1,34,-1
 100 400 l 1,35,-1
 100 500 l 1,36,-1
 200 500 l 1,37,-1
 200 400 l 1,34,-1
400 200 m 1,38,-1
 500 200 l 1,39,-1
 500 100 l 1,40,-1
 400 100 l 1,41,-1
 400 200 l 1,38,-1
300 400 m 1,42,-1
 300 300 l 1,43,-1
 200 300 l 1,44,-1
 200 400 l 1,45,-1
 300 400 l 1,42,-1
EndSplineSet
Validated: 5
EndChar

StartChar: uni21D9
Encoding: 8665 8665 305
Width: 800
GlyphClass: 1
Flags: W
LayerCount: 2
Fore
SplineSet
500 100 m 1,0,-1
 400 100 l 1,1,-1
 400 200 l 1,2,-1
 500 200 l 1,3,-1
 500 100 l 1,0,-1
700 400 m 1,4,-1
 700 500 l 1,5,-1
 800 500 l 1,6,-1
 800 400 l 1,7,-1
 700 400 l 1,4,-1
600 300 m 1,8,-1
 600 200 l 1,9,-1
 500 200 l 1,10,-1
 500 300 l 1,11,-1
 600 300 l 1,8,-1
100 -100 m 1,12,-1
 100 300 l 1,13,-1
 200 300 l 1,14,-1
 200 200 l 1,15,-1
 300 200 l 1,16,-1
 300 100 l 1,17,-1
 200 100 l 1,18,-1
 200 0 l 1,19,-1
 300 0 l 1,20,-1
 300 100 l 1,21,-1
 400 100 l 1,22,-1
 400 0 l 1,23,-1
 500 0 l 1,24,-1
 500 -100 l 1,25,-1
 100 -100 l 1,12,-1
600 500 m 1,26,-1
 600 600 l 1,27,-1
 700 600 l 1,28,-1
 700 500 l 1,29,-1
 600 500 l 1,26,-1
300 300 m 1,30,-1
 400 300 l 1,31,-1
 400 200 l 1,32,-1
 300 200 l 1,33,-1
 300 300 l 1,30,-1
500 300 m 1,34,-1
 400 300 l 1,35,-1
 400 400 l 1,36,-1
 500 400 l 1,37,-1
 500 300 l 1,34,-1
500 500 m 1,38,-1
 600 500 l 1,39,-1
 600 400 l 1,40,-1
 500 400 l 1,41,-1
 500 500 l 1,38,-1
600 400 m 1,42,-1
 700 400 l 1,43,-1
 700 300 l 1,44,-1
 600 300 l 1,45,-1
 600 400 l 1,42,-1
EndSplineSet
Validated: 5
EndChar

StartChar: uni21DE
Encoding: 8670 8670 306
Width: 800
GlyphClass: 1
Flags: W
LayerCount: 2
Fore
SplineSet
500 100 m 1,0,-1
 700 100 l 1,1,-1
 700 0 l 1,2,-1
 500 0 l 1,3,-1
 500 -100 l 1,4,-1
 400 -100 l 1,5,-1
 400 0 l 1,6,-1
 200 0 l 1,7,-1
 200 100 l 1,8,-1
 400 100 l 1,9,-1
 400 200 l 1,10,-1
 200 200 l 1,11,-1
 200 300 l 1,12,-1
 400 300 l 1,13,-1
 400 500 l 1,14,-1
 300 500 l 1,15,-1
 300 600 l 1,16,-1
 400 600 l 1,17,-1
 400 700 l 1,18,-1
 500 700 l 1,19,-1
 500 600 l 1,20,-1
 600 600 l 1,21,-1
 600 500 l 1,22,-1
 500 500 l 1,23,-1
 500 300 l 1,24,-1
 700 300 l 1,25,-1
 700 200 l 1,26,-1
 500 200 l 1,27,-1
 500 100 l 1,0,-1
700 400 m 1,28,-1
 600 400 l 1,29,-1
 600 500 l 1,30,-1
 700 500 l 1,31,-1
 700 400 l 1,28,-1
300 500 m 1,32,-1
 300 400 l 1,33,-1
 200 400 l 1,34,-1
 200 500 l 1,35,-1
 300 500 l 1,32,-1
EndSplineSet
Validated: 5
EndChar

StartChar: uni21DF
Encoding: 8671 8671 307
Width: 800
GlyphClass: 1
Flags: W
LayerCount: 2
Fore
SplineSet
500 100 m 1,0,-1
 600 100 l 1,1,-1
 600 0 l 1,2,-1
 500 0 l 1,3,-1
 500 -100 l 1,4,-1
 400 -100 l 1,5,-1
 400 0 l 1,6,-1
 300 0 l 1,7,-1
 300 100 l 1,8,-1
 400 100 l 1,9,-1
 400 300 l 1,10,-1
 200 300 l 1,11,-1
 200 400 l 1,12,-1
 400 400 l 1,13,-1
 400 500 l 1,14,-1
 200 500 l 1,15,-1
 200 600 l 1,16,-1
 400 600 l 1,17,-1
 400 700 l 1,18,-1
 500 700 l 1,19,-1
 500 600 l 1,20,-1
 700 600 l 1,21,-1
 700 500 l 1,22,-1
 500 500 l 1,23,-1
 500 400 l 1,24,-1
 700 400 l 1,25,-1
 700 300 l 1,26,-1
 500 300 l 1,27,-1
 500 100 l 1,0,-1
700 200 m 1,28,-1
 700 100 l 1,29,-1
 600 100 l 1,30,-1
 600 200 l 1,31,-1
 700 200 l 1,28,-1
300 100 m 1,32,-1
 200 100 l 1,33,-1
 200 200 l 1,34,-1
 300 200 l 1,35,-1
 300 100 l 1,32,-1
EndSplineSet
Validated: 5
EndChar

StartChar: uni21E0
Encoding: 8672 8672 308
Width: 800
GlyphClass: 1
Flags: W
LayerCount: 2
Fore
SplineSet
600 300 m 1,0,-1
 600 200 l 1,1,-1
 500 200 l 1,2,-1
 500 300 l 1,3,-1
 600 300 l 1,0,-1
700 200 m 1,4,-1
 700 300 l 1,5,-1
 800 300 l 1,6,-1
 800 200 l 1,7,-1
 700 200 l 1,4,-1
300 300 m 1,8,-1
 400 300 l 1,9,-1
 400 200 l 1,10,-1
 300 200 l 1,11,-1
 300 100 l 1,12,-1
 200 100 l 1,13,-1
 200 200 l 1,14,-1
 100 200 l 1,15,-1
 100 300 l 1,16,-1
 200 300 l 1,17,-1
 200 400 l 1,18,-1
 300 400 l 1,19,-1
 300 300 l 1,8,-1
300 500 m 1,20,-1
 400 500 l 1,21,-1
 400 400 l 1,22,-1
 300 400 l 1,23,-1
 300 500 l 1,20,-1
400 0 m 1,24,-1
 300 0 l 1,25,-1
 300 100 l 1,26,-1
 400 100 l 1,27,-1
 400 0 l 1,24,-1
EndSplineSet
Validated: 5
EndChar

StartChar: uni21E1
Encoding: 8673 8673 309
Width: 800
GlyphClass: 1
Flags: W
LayerCount: 2
Fore
SplineSet
500 100 m 1,0,-1
 400 100 l 1,1,-1
 400 200 l 1,2,-1
 500 200 l 1,3,-1
 500 100 l 1,0,-1
600 300 m 1,4,-1
 600 400 l 1,5,-1
 700 400 l 1,6,-1
 700 300 l 1,7,-1
 600 300 l 1,4,-1
600 500 m 1,8,-1
 600 400 l 1,9,-1
 500 400 l 1,10,-1
 500 300 l 1,11,-1
 400 300 l 1,12,-1
 400 400 l 1,13,-1
 300 400 l 1,14,-1
 300 500 l 1,15,-1
 400 500 l 1,16,-1
 400 600 l 1,17,-1
 500 600 l 1,18,-1
 500 500 l 1,19,-1
 600 500 l 1,8,-1
300 300 m 1,20,-1
 200 300 l 1,21,-1
 200 400 l 1,22,-1
 300 400 l 1,23,-1
 300 300 l 1,20,-1
500 -100 m 1,24,-1
 400 -100 l 1,25,-1
 400 0 l 1,26,-1
 500 0 l 1,27,-1
 500 -100 l 1,24,-1
EndSplineSet
Validated: 5
EndChar

StartChar: uni21E2
Encoding: 8674 8674 310
Width: 800
GlyphClass: 1
Flags: W
LayerCount: 2
Fore
SplineSet
500 100 m 1,0,-1
 600 100 l 1,1,-1
 600 0 l 1,2,-1
 500 0 l 1,3,-1
 500 100 l 1,0,-1
700 400 m 1,4,-1
 700 300 l 1,5,-1
 800 300 l 1,6,-1
 800 200 l 1,7,-1
 700 200 l 1,8,-1
 700 100 l 1,9,-1
 600 100 l 1,10,-1
 600 200 l 1,11,-1
 500 200 l 1,12,-1
 500 300 l 1,13,-1
 600 300 l 1,14,-1
 600 400 l 1,15,-1
 700 400 l 1,4,-1
600 500 m 1,16,-1
 600 400 l 1,17,-1
 500 400 l 1,18,-1
 500 500 l 1,19,-1
 600 500 l 1,16,-1
300 300 m 1,20,-1
 400 300 l 1,21,-1
 400 200 l 1,22,-1
 300 200 l 1,23,-1
 300 300 l 1,20,-1
200 200 m 1,24,-1
 100 200 l 1,25,-1
 100 300 l 1,26,-1
 200 300 l 1,27,-1
 200 200 l 1,24,-1
EndSplineSet
Validated: 5
EndChar

StartChar: uni21E3
Encoding: 8675 8675 311
Width: 800
GlyphClass: 1
Flags: W
LayerCount: 2
Fore
SplineSet
500 100 m 1,0,-1
 600 100 l 1,1,-1
 600 0 l 1,2,-1
 500 0 l 1,3,-1
 500 -100 l 1,4,-1
 400 -100 l 1,5,-1
 400 0 l 1,6,-1
 300 0 l 1,7,-1
 300 100 l 1,8,-1
 400 100 l 1,9,-1
 400 200 l 1,10,-1
 500 200 l 1,11,-1
 500 100 l 1,0,-1
700 200 m 1,12,-1
 700 100 l 1,13,-1
 600 100 l 1,14,-1
 600 200 l 1,15,-1
 700 200 l 1,12,-1
500 300 m 1,16,-1
 400 300 l 1,17,-1
 400 400 l 1,18,-1
 500 400 l 1,19,-1
 500 300 l 1,16,-1
500 500 m 1,20,-1
 400 500 l 1,21,-1
 400 600 l 1,22,-1
 500 600 l 1,23,-1
 500 500 l 1,20,-1
300 100 m 1,24,-1
 200 100 l 1,25,-1
 200 200 l 1,26,-1
 300 200 l 1,27,-1
 300 100 l 1,24,-1
EndSplineSet
Validated: 5
EndChar

StartChar: uni21E4
Encoding: 8676 8676 312
Width: 800
GlyphClass: 1
Flags: W
LayerCount: 2
Fore
SplineSet
500 100 m 1,0,-1
 500 0 l 1,1,-1
 400 0 l 1,2,-1
 400 100 l 1,3,-1
 500 100 l 1,0,-1
100 0 m 1,4,-1
 100 500 l 1,5,-1
 200 500 l 1,6,-1
 200 300 l 1,7,-1
 300 300 l 1,8,-1
 300 400 l 1,9,-1
 400 400 l 1,10,-1
 400 300 l 1,11,-1
 800 300 l 1,12,-1
 800 200 l 1,13,-1
 400 200 l 1,14,-1
 400 100 l 1,15,-1
 300 100 l 1,16,-1
 300 200 l 1,17,-1
 200 200 l 1,18,-1
 200 0 l 1,19,-1
 100 0 l 1,4,-1
400 500 m 1,20,-1
 500 500 l 1,21,-1
 500 400 l 1,22,-1
 400 400 l 1,23,-1
 400 500 l 1,20,-1
EndSplineSet
Validated: 5
EndChar

StartChar: uni21E5
Encoding: 8677 8677 313
Width: 800
GlyphClass: 1
Flags: W
LayerCount: 2
Fore
SplineSet
500 100 m 1,0,-1
 500 0 l 1,1,-1
 400 0 l 1,2,-1
 400 100 l 1,3,-1
 500 100 l 1,0,-1
600 300 m 1,4,-1
 700 300 l 1,5,-1
 700 500 l 1,6,-1
 800 500 l 1,7,-1
 800 0 l 1,8,-1
 700 0 l 1,9,-1
 700 200 l 1,10,-1
 600 200 l 1,11,-1
 600 100 l 1,12,-1
 500 100 l 1,13,-1
 500 200 l 1,14,-1
 100 200 l 1,15,-1
 100 300 l 1,16,-1
 500 300 l 1,17,-1
 500 400 l 1,18,-1
 600 400 l 1,19,-1
 600 300 l 1,4,-1
400 500 m 1,20,-1
 500 500 l 1,21,-1
 500 400 l 1,22,-1
 400 400 l 1,23,-1
 400 500 l 1,20,-1
EndSplineSet
Validated: 5
EndChar

StartChar: partialdiff
Encoding: 8706 8706 314
Width: 800
GlyphClass: 1
Flags: W
LayerCount: 2
Fore
SplineSet
500 100 m 1,0,-1
 500 0 l 1,1,-1
 200 0 l 1,2,-1
 200 100 l 1,3,-1
 500 100 l 1,0,-1
600 500 m 1,4,-1
 600 600 l 1,5,-1
 700 600 l 1,6,-1
 700 200 l 1,7,-1
 600 200 l 1,8,-1
 600 400 l 1,9,-1
 300 400 l 1,10,-1
 300 500 l 1,11,-1
 600 500 l 1,4,-1
300 300 m 1,12,-1
 200 300 l 1,13,-1
 200 400 l 1,14,-1
 300 400 l 1,15,-1
 300 300 l 1,12,-1
600 200 m 1,16,-1
 600 100 l 1,17,-1
 500 100 l 1,18,-1
 500 200 l 1,19,-1
 600 200 l 1,16,-1
600 600 m 1,20,-1
 300 600 l 1,21,-1
 300 700 l 1,22,-1
 600 700 l 1,23,-1
 600 600 l 1,20,-1
100 100 m 1,24,-1
 100 300 l 1,25,-1
 200 300 l 1,26,-1
 200 100 l 1,27,-1
 100 100 l 1,24,-1
EndSplineSet
Validated: 5
EndChar

StartChar: Delta
Encoding: 8710 8710 315
Width: 800
GlyphClass: 1
Flags: W
LayerCount: 2
Fore
SplineSet
700 400 m 1,0,-1
 700 200 l 1,1,-1
 600 200 l 1,2,-1
 600 400 l 1,3,-1
 700 400 l 1,0,-1
500 700 m 1,4,-1
 500 600 l 1,5,-1
 400 600 l 1,6,-1
 400 700 l 1,7,-1
 500 700 l 1,4,-1
100 0 m 1,8,-1
 100 200 l 1,9,-1
 200 200 l 1,10,-1
 200 100 l 1,11,-1
 700 100 l 1,12,-1
 700 200 l 1,13,-1
 800 200 l 1,14,-1
 800 0 l 1,15,-1
 100 0 l 1,8,-1
600 600 m 1,16,-1
 600 400 l 1,17,-1
 500 400 l 1,18,-1
 500 600 l 1,19,-1
 600 600 l 1,16,-1
300 200 m 1,20,-1
 200 200 l 1,21,-1
 200 400 l 1,22,-1
 300 400 l 1,23,-1
 300 200 l 1,20,-1
300 600 m 1,24,-1
 400 600 l 1,25,-1
 400 400 l 1,26,-1
 300 400 l 1,27,-1
 300 600 l 1,24,-1
EndSplineSet
Validated: 5
EndChar

StartChar: uni2207
Encoding: 8711 8711 316
Width: 800
GlyphClass: 1
Flags: W
LayerCount: 2
Fore
SplineSet
500 100 m 1,0,-1
 500 300 l 1,1,-1
 600 300 l 1,2,-1
 600 100 l 1,3,-1
 500 100 l 1,0,-1
600 300 m 1,4,-1
 600 500 l 1,5,-1
 700 500 l 1,6,-1
 700 300 l 1,7,-1
 600 300 l 1,4,-1
400 100 m 1,8,-1
 500 100 l 1,9,-1
 500 0 l 1,10,-1
 400 0 l 1,11,-1
 400 100 l 1,8,-1
700 600 m 1,12,-1
 200 600 l 1,13,-1
 200 500 l 1,14,-1
 100 500 l 1,15,-1
 100 700 l 1,16,-1
 800 700 l 1,17,-1
 800 500 l 1,18,-1
 700 500 l 1,19,-1
 700 600 l 1,12,-1
300 300 m 1,20,-1
 400 300 l 1,21,-1
 400 100 l 1,22,-1
 300 100 l 1,23,-1
 300 300 l 1,20,-1
300 500 m 1,24,-1
 300 300 l 1,25,-1
 200 300 l 1,26,-1
 200 500 l 1,27,-1
 300 500 l 1,24,-1
EndSplineSet
Validated: 5
EndChar

StartChar: product
Encoding: 8719 8719 317
Width: 800
GlyphClass: 1
Flags: W
LayerCount: 2
Fore
SplineSet
500 100 m 1,0,-1
 600 100 l 1,1,-1
 600 600 l 1,2,-1
 300 600 l 1,3,-1
 300 100 l 1,4,-1
 400 100 l 1,5,-1
 400 0 l 1,6,-1
 100 0 l 1,7,-1
 100 100 l 1,8,-1
 200 100 l 1,9,-1
 200 600 l 1,10,-1
 100 600 l 1,11,-1
 100 700 l 1,12,-1
 800 700 l 1,13,-1
 800 600 l 1,14,-1
 700 600 l 1,15,-1
 700 100 l 1,16,-1
 800 100 l 1,17,-1
 800 0 l 1,18,-1
 500 0 l 1,19,-1
 500 100 l 1,0,-1
EndSplineSet
Validated: 1
EndChar

StartChar: uni2210
Encoding: 8720 8720 318
Width: 800
GlyphClass: 1
Flags: W
LayerCount: 2
Fore
SplineSet
500 700 m 1,0,-1
 800 700 l 1,1,-1
 800 600 l 1,2,-1
 700 600 l 1,3,-1
 700 100 l 1,4,-1
 800 100 l 1,5,-1
 800 0 l 1,6,-1
 100 0 l 1,7,-1
 100 100 l 1,8,-1
 200 100 l 1,9,-1
 200 600 l 1,10,-1
 100 600 l 1,11,-1
 100 700 l 1,12,-1
 400 700 l 1,13,-1
 400 600 l 1,14,-1
 300 600 l 1,15,-1
 300 100 l 1,16,-1
 600 100 l 1,17,-1
 600 600 l 1,18,-1
 500 600 l 1,19,-1
 500 700 l 1,0,-1
EndSplineSet
Validated: 1
EndChar

